{
.appVersion = "3140";
.formatVersion = 3;
axes = (
{
name = Weight;
tag = wght;
}
);
classes = (
{
automatic = 1;
code = "A Aacute Acircumflex Adieresis Agrave Aring Atilde AE B C Ccedilla D Eth E Eacute Ecircumflex Edieresis Egrave F G H I Iacute Icircumflex Idieresis Igrave J K L M N Ntilde O Oacute Ocircumflex Odieresis Ograve Oslash Otilde OE P Thorn Q R S T U Uacute Ucircumflex Udieresis Ugrave V W X Y Yacute Z";
name = Uppercase;
},
{
code = "alef-hb bet-hb gimel-hb dalet-hb he-hb vav-hb zayin-hb het-hb tet-hb yod-hb finalkaf-hb kaf-hb lamed-hb finalmem-hb mem-hb finalnun-hb nun-hb samekh-hb ayin-hb finalpe-hb pe-hb finaltsadi-hb tsadi-hb qof-hb resh-hb shin-hb tav-hb
";
name = HebrewLetters;
}
);
customParameters = (
{
name = fsType;
value = (
);
},
{
name = "Write lastChange";
value = 0;
},
{
name = "Use Typo Metrics";
value = 1;
},
{
name = "Use Line Breaks";
value = 1;
},
{
name = "Enforce Compatibility Check";
value = 0;
}
);
date = "2017-03-21 06:32:22 +0000";
familyName = Solitreo;
featurePrefixes = (
{
code = "languagesystem DFLT dflt;

languagesystem latn dflt;

languagesystem hebr dflt;
languagesystem hebr IWR;
";
name = Languagesystems;
}
);
features = (
{
automatic = 1;
code = "feature subs;
feature sinf;
feature sups;
feature frac;
feature ordn;
feature case;
";
tag = aalt;
},
{
automatic = 1;
code = "lookup ccmp_Other_1 {
	@CombiningTopAccents = [acutecomb brevecomb caroncomb circumflexcomb commaturnedabovecomb dieresiscomb dotaccentcomb gravecomb hungarumlautcomb macroncomb ringcomb tildecomb];
	@CombiningNonTopAccents = [cedillacomb ogonekcomb slashlongcomb slashshortcomb strokeshortcomb];
	sub [i]' @CombiningTopAccents by [idotless];
	sub [i]' @CombiningNonTopAccents @CombiningTopAccents by [idotless];
	@Markscomb = [brevecomb-cy dieresiscomb dotaccentcomb gravecomb acutecomb hungarumlautcomb circumflexcomb caroncomb brevecomb ringcomb tildecomb macroncomb commaaccentcomb cedillacomb ogonekcomb];

glyphs = (
{
color = 5;
glyphname = A;
kernLeft = A;
kernRight = A;
layers = (
{
anchors = (
{
name = bottom;
pos = (503,0);
},
{
name = top;
pos = (503,1050);
}
);
layerId = "FF2DC345-5101-49B6-97F3-57A040F7C387";
shapes = (
{
closed = 1;
nodes = (
(161,-15,o),
(212,101,o),
(300,330,c),
(401,359,o),
(489,381,o),
(591,408,c),
(599,317,o),
(606,222,o),
(614,126,cs),
(620,78,o),
(629,-15,o),
(678,-15,cs),
(710,-15,o),
(726,-6,o),
(726,120,cs),
(726,194,o),
(722,336,o),
(714,440,c),
(803,465,o),
(846,486,o),
(846,506,cs),
(846,531,o),
(824,551,o),
(779,551,cs),
(758,551,o),
(734,543,o),
(705,540,c),
(690,686,o),
(629,1056,o),
(563,1056,cs),
(510,1056,o),
(447,1011,o),
(425,957,cs),
(396,885,o),
(228,471,o),
(212,435,c),
(113,404,o),
(63,378,o),
(63,359,cs),
(63,320,o),
(99,290,o),
(150,290,c),
(93,158,o),
(65,87,o),
(65,77,cs),
(65,33,o),
(113,-15,o),
(144,-15,cs)
);
},
{
closed = 1;
nodes = (
(426,660,o),
(483,804,o),
(528,908,c),
(545,822,o),
(563,693,o),
(581,522,c),
(501,509,o),
(426,494,o),
(356,474,c)
);
}
);
width = 912;
}
);
unicode = 65;
userData = {
com.typemytype.robofont.guides = (
{
angle = 0;
isGlobal = 0;
magnetic = 5;
x = 0;
y = 680;
},
{
angle = 90;
isGlobal = 0;
magnetic = 5;
x = 35;
y = 0;
},
{
angle = 90;
isGlobal = 0;
magnetic = 5;
x = 637;
y = 0;
},
{
angle = 90;
isGlobal = 0;
magnetic = 5;
x = 336;
y = 0;
}
);
};
},
{
color = 5;
glyphname = Aogonek;
layers = (
{
anchors = (
{
name = bottom;
pos = (503,0);
},
{
name = top;
pos = (503,1050);
}
);
layerId = "FF2DC345-5101-49B6-97F3-57A040F7C387";
shapes = (
{
closed = 1;
nodes = (
(161,-15,o),
(212,101,o),
(300,330,c),
(401,359,o),
(489,381,o),
(591,408,c),
(612,155,o),
(623,111,o),
(630,72,c),
(501,72,o),
(420,-33,o),
(420,-144,cs),
(420,-259,o),
(527,-330,o),
(630,-330,cs),
(662,-330,o),
(702,-315,o),
(702,-271,cs),
(702,-240,o),
(686,-222,o),
(662,-222,cs),
(644,-222,o),
(627,-231,o),
(594,-231,cs),
(542,-231,o),
(509,-189,o),
(509,-121,cs),
(509,-67,o),
(557,0,o),
(624,0,cs),
(645,0,o),
(660,-15,o),
(681,-15,cs),
(710,-15,o),
(726,-6,o),
(726,120,cs),
(726,194,o),
(722,336,o),
(714,440,c),
(803,465,o),
(846,486,o),
(846,506,cs),
(846,531,o),
(824,551,o),
(779,551,cs),
(758,551,o),
(734,543,o),
(705,540,c),
(690,686,o),
(629,1056,o),
(563,1056,cs),
(510,1056,o),
(447,1011,o),
(425,957,cs),
(396,885,o),
(228,471,o),
(212,435,c),
(113,404,o),
(63,378,o),
(63,359,cs),
(63,320,o),
(99,290,o),
(150,290,c),
(93,158,o),
(65,87,o),
(65,77,cs),
(65,33,o),
(113,-15,o),
(144,-15,cs)
);
},
{
closed = 1;
nodes = (
(426,660,o),
(483,804,o),
(528,908,c),
(545,822,o),
(563,693,o),
(581,522,c),
(501,509,o),
(426,494,o),
(356,474,c)
);
}
);
width = 912;
}
);
unicode = 260;
},
{
color = 5;
glyphname = AE;
kernLeft = AE;
kernRight = E;
layers = (
{
anchors = (
{
name = bottom;
pos = (702,0);
},
{
name = top;
pos = (702,1050);
}
);
layerId = "FF2DC345-5101-49B6-97F3-57A040F7C387";
shapes = (
{
closed = 1;
nodes = (
(131,-9,o),
(207,186,o),
(290,389,c),
(321,392,o),
(552,428,o),
(597,434,c),
(551,285,o),
(528,183,o),
(528,129,cs),
(528,57,o),
(609,-6,o),
(701,-6,cs),
(906,-6,o),
(1187,90,o),
(1187,162,cs),
(1187,183,o),
(1179,194,o),
(1166,194,cs),
(1077,194,o),
(855,120,o),
(707,120,cs),
(678,120,o),
(665,137,o),
(665,170,cs),
(665,188,o),
(690,282,o),
(741,453,c),
(1056,492,o),
(1116,506,o),
(1116,536,cs),
(1116,567,o),
(1077,582,o),
(998,582,cs),
(954,582,o),
(879,576,o),
(774,566,c),
(815,705,o),
(834,867,o),
(831,918,c),
(1136,918,o),
(1248,936,o),
(1248,971,cs),
(1248,1002,o),
(1182,1029,o),
(803,1029,cs),
(693,1029,o),
(438,1022,o),
(387,941,cs),
(294,794,o),
(29,89,o),
(27,69,cs),
(26,32,o),
(53,-9,o),
(99,-9,cs)
);
},
{
closed = 1;
nodes = (
(434,734,o),
(492,860,o),
(513,882,cs),
(527,899,o),
(590,909,o),
(705,915,c),
(702,827,o),
(678,704,o),
(632,549,c),
(513,534,o),
(414,519,o),
(338,503,c)
);
}
);
width = 1247;
}
);
unicode = 198;
userData = {
com.typemytype.robofont.guides = (
{
angle = 0;
isGlobal = 0;
magnetic = 5;
x = 0;
y = 505;
},
{
angle = 90;
isGlobal = 0;
magnetic = 5;
x = 431;
y = 0;
}
);
};
},
{
color = 5;
glyphname = B;
kernLeft = I;
layers = (
{
anchors = (
{
name = bottom;
pos = (503,0);
},
{
name = top;
pos = (503,1050);
}
);
hints = (
{
horizontal = 1;
place = (0, 0);
type = Tag;
}
);
layerId = "FF2DC345-5101-49B6-97F3-57A040F7C387";
shapes = (
{
closed = 1;
nodes = (
(488,-4,o),
(863,137,o),
(863,351,cs),
(863,449,o),
(740,528,o),
(560,539,c),
(753,599,o),
(857,701,o),
(857,821,cs),
(857,965,o),
(699,1043,o),
(419,1043,cs),
(327,1043,o),
(201,1022,o),
(201,980,cs),
(201,951,o),
(240,891,o),
(297,891,c),
(294,627,o),
(147,284,o),
(147,207,cs),
(147,173,o),
(177,128,o),
(206,114,c),
(114,114,o),
(68,180,o),
(35,180,cs),
(21,180,o),
(8,167,o),
(8,149,cs),
(8,65,o),
(135,-4,o),
(237,-4,cs)
);
},
{
closed = 1;
nodes = (
(249,134,o),
(288,264,o),
(350,506,c),
(369,477,o),
(393,464,o),
(420,464,cs),
(558,464,o),
(732,417,o),
(732,357,cs),
(732,248,o),
(476,122,o),
(230,114,c)
);
},
{
closed = 1;
nodes = (
(401,704,o),
(419,785,o),
(419,814,cs),
(419,842,o),
(405,870,o),
(377,900,c),
(428,911,o),
(488,918,o),
(542,918,cs),
(639,918,o),
(722,887,o),
(722,813,cs),
(722,671,o),
(446,621,o),
(366,566,c)
);
}
);
width = 956;
}
);
unicode = 66;
userData = {
com.typemytype.robofont.guides = (
{
angle = 0;
isGlobal = 0;
magnetic = 5;
x = 0;
y = 271;
},
{
angle = 0;
isGlobal = 0;
magnetic = 5;
x = 0;
y = 437;
},
{
angle = 0;
isGlobal = 0;
magnetic = 5;
x = 0;
y = 521;
},
{
angle = 0;
isGlobal = 0;
magnetic = 5;
x = 0;
y = 198;
},
{
angle = 0;
isGlobal = 0;
magnetic = 5;
x = 0;
y = 9;
},
{
angle = 90;
isGlobal = 0;
magnetic = 5;
x = 355;
y = 0;
},
{
angle = 90;
isGlobal = 0;
magnetic = 5;
x = 583;
y = 0;
},
{
angle = 90;
isGlobal = 0;
magnetic = 5;
x = 94;
y = 0;
}
);
};
},
{
color = 5;
glyphname = C;
kernLeft = O;
kernRight = C;
layers = (
{
anchors = (
{
name = bottom;
pos = (501,0);
},
{
name = top;
pos = (666,1050);
}
);
layerId = "FF2DC345-5101-49B6-97F3-57A040F7C387";
shapes = (
{
closed = 1;
nodes = (
(636,-4,o),
(809,176,o),
(809,243,cs),
(809,260,o),
(801,266,o),
(786,266,cs),
(752,266,o),
(597,135,o),
(392,135,cs),
(300,135,o),
(237,185,o),
(237,294,cs),
(237,521,o),
(539,900,o),
(716,900,cs),
(762,900,o),
(791,878,o),
(810,878,cs),
(822,878,o),
(827,887,o),
(827,899,cs),
(827,953,o),
(762,1041,o),
(705,1041,cs),
(431,1041,o),
(98,582,o),
(98,287,cs),
(98,141,o),
(249,-4,o),
(389,-4,cs)
);
}
);
width = 899;
}
);
unicode = 67;
userData = {
com.typemytype.robofont.guides = (
{
angle = 0;
isGlobal = 0;
magnetic = 5;
x = 0;
y = 434;
},
{
angle = 0;
isGlobal = 0;
magnetic = 5;
x = 0;
y = 266;
},
{
angle = 0;
isGlobal = 0;
magnetic = 5;
x = 0;
y = 710;
},
{
angle = 0;
isGlobal = 0;
magnetic = 5;
x = 0;
y = "-10";
},
{
angle = 90;
isGlobal = 0;
magnetic = 5;
x = 599;
y = 0;
},
{
angle = 90;
isGlobal = 0;
magnetic = 5;
x = 209;
y = 0;
},
{
angle = 90;
isGlobal = 0;
magnetic = 5;
x = 149;
y = 0;
},
{
angle = 90;
isGlobal = 0;
magnetic = 5;
x = 332;
y = 0;
}
);
};
},
{
color = 5;
glyphname = Ccedilla;
kernLeft = O;
kernRight = C;
layers = (
{
hints = (
{
horizontal = 1;
place = (0, 0);
type = Tag;
}
);
layerId = "FF2DC345-5101-49B6-97F3-57A040F7C387";
shapes = (
{
closed = 1;
nodes = (
(354,-282,o),
(504,-223,o),
(506,-135,cs),
(506,-91,o),
(426,-49,o),
(360,-49,c),
(374,-24,o),
(387,3,o),
(399,32,c),
(644,41,o),
(812,215,o),
(812,278,cs),
(812,293,o),
(804,302,o),
(788,302,cs),
(750,302,o),
(588,171,o),
(411,171,cs),
(318,171,o),
(239,207,o),
(239,317,cs),
(239,560,o),
(537,936,o),
(716,936,cs),
(767,936,o),
(782,914,o),
(806,914,cs),
(818,914,o),
(827,923,o),
(827,938,cs),
(827,992,o),
(761,1077,o),
(707,1077,cs),
(423,1077,o),
(99,606,o),
(99,323,cs),
(99,179,o),
(194,92,o),
(306,48,c),
(281,-16,o),
(264,-46,o),
(264,-66,cs),
(264,-79,o),
(269,-91,o),
(299,-91,cs),
(347,-91,o),
(372,-132,o),
(372,-153,cs),
(372,-192,o),
(158,-193,o),
(158,-243,cs),
(158,-265,o),
(186,-282,o),
(224,-282,cs)
);
}
);
width = 905;
}
);
unicode = 199;
userData = {
com.typemytype.robofont.guides = (
{
angle = 0;
isGlobal = 0;
magnetic = 5;
x = 0;
y = "-174";
},
{
angle = 0;
isGlobal = 0;
magnetic = 5;
x = 0;
y = "-220";
},
{
angle = 0;
isGlobal = 0;
magnetic = 5;
x = 0;
y = "-96";
},
{
angle = 0;
isGlobal = 0;
magnetic = 5;
x = 0;
y = "-50";
},
{
angle = 0;
isGlobal = 0;
magnetic = 5;
x = 0;
y = "-135";
},
{
angle = 90;
isGlobal = 0;
magnetic = 5;
x = 331;
y = 0;
},
{
angle = 90;
isGlobal = 0;
magnetic = 5;
x = 342;
y = 0;
}
);
};
},
{
color = 5;
glyphname = D;
kernLeft = I;
kernRight = D;
layers = (
{
anchors = (
{
name = bottom;
pos = (518,0);
},
{
name = center;
pos = (518,525);
},
{
name = top;
pos = (516,1050);
}
);
hints = (
{
horizontal = 1;
place = (0, 0);
type = Tag;
}
);
layerId = "FF2DC345-5101-49B6-97F3-57A040F7C387";
shapes = (
{
closed = 1;
nodes = (
(441,-9,o),
(918,309,o),
(918,506,cs),
(918,794,o),
(515,1052,o),
(227,1052,cs),
(207,1052,o),
(197,1041,o),
(197,1026,cs),
(197,995,o),
(230,942,o),
(302,912,c),
(283,662,o),
(120,342,o),
(120,139,cs),
(120,72,o),
(184,-9,o),
(222,-9,cs)
);
},
{
closed = 1;
nodes = (
(260,266,o),
(419,701,o),
(419,825,cs),
(419,846,o),
(416,863,o),
(411,881,c),
(607,816,o),
(780,646,o),
(780,522,cs),
(780,405,o),
(452,152,o),
(251,126,c)
);
}
);
width = 968;
}
);
unicode = 68;
userData = {
com.typemytype.robofont.guides = (
{
angle = 0;
isGlobal = 0;
magnetic = 5;
x = 0;
y = 425;
},
{
angle = 0;
isGlobal = 0;
magnetic = 5;
x = 0;
y = 276;
},
{
angle = 0;
isGlobal = 0;
magnetic = 5;
x = 0;
y = 9;
},
{
angle = 90;
isGlobal = 0;
magnetic = 5;
x = 320;
y = 0;
},
{
angle = 90;
isGlobal = 0;
magnetic = 5;
x = 603;
y = 0;
},
{
angle = 90;
isGlobal = 0;
magnetic = 5;
x = 94;
y = 0;
}
);
};
},
{
color = 5;
glyphname = Eth;
kernLeft = I;
kernRight = D;
layers = (
{
hints = (
{
horizontal = 1;
place = (0, 0);
type = Tag;
}
);
layerId = "FF2DC345-5101-49B6-97F3-57A040F7C387";
shapes = (
{
closed = 1;
nodes = (
(462,-6,o),
(939,314,o),
(939,507,cs),
(939,794,o),
(534,1055,o),
(248,1055,cs),
(228,1055,o),
(218,1043,o),
(218,1026,cs),
(218,995,o),
(252,945,o),
(323,914,c),
(318,849,o),
(289,723,o),
(237,536,c),
(185,528,o),
(21,516,o),
(21,462,cs),
(21,428,o),
(87,407,o),
(110,407,cs),
(122,407,o),
(153,408,o),
(203,413,c),
(162,260,o),
(141,168,o),
(141,137,cs),
(141,77,o),
(205,-6,o),
(243,-6,cs)
);
},
{
closed = 1;
nodes = (
(284,208,o),
(299,281,o),
(344,431,c),
(401,440,o),
(527,468,o),
(527,495,cs),
(527,550,o),
(428,554,o),
(377,551,c),
(419,696,o),
(440,791,o),
(440,833,cs),
(440,849,o),
(437,865,o),
(432,882,c),
(628,816,o),
(801,651,o),
(801,524,cs),
(801,384,o),
(428,150,o),
(272,129,c)
);
}
);
width = 929;
}
);
unicode = 208;
userData = {
com.typemytype.robofont.guides = (
{
angle = 0;
isGlobal = 0;
magnetic = 5;
x = 0;
y = 350;
}
);
};
},
{
color = 5;
glyphname = E;
kernLeft = I;
kernRight = E;
layers = (
{
anchors = (
{
name = bottom;
pos = (419,21);
},
{
name = top;
pos = (560,1050);
},
{
name = topleft;
pos = (240,1050);
}
);
layerId = "FF2DC345-5101-49B6-97F3-57A040F7C387";
shapes = (
{
closed = 1;
nodes = (
(473,-7,o),
(753,89,o),
(753,161,cs),
(753,182,o),
(746,192,o),
(731,192,cs),
(687,192,o),
(525,119,o),
(272,119,cs),
(248,119,o),
(231,135,o),
(231,159,cs),
(231,195,o),
(258,299,o),
(312,470,c),
(494,470,o),
(720,495,o),
(720,573,cs),
(720,593,o),
(702,600,o),
(672,600,cs),
(623,599,o),
(528,575,o),
(431,575,cs),
(402,575,o),
(374,576,o),
(345,581,c),
(383,717,o),
(401,821,o),
(401,893,c),
(449,900,o),
(525,914,o),
(578,918,cs),
(888,941,o),
(908,968,o),
(908,992,cs),
(908,1020,o),
(807,1035,o),
(606,1035,cs),
(405,1035,o),
(273,1025,o),
(273,945,cs),
(273,720,o),
(95,260,o),
(95,135,cs),
(95,53,o),
(176,-7,o),
(267,-7,cs)
);
}
);
width = 878;
}
);
unicode = 69;
userData = {
com.typemytype.robofont.guides = (
{
angle = 0;
isGlobal = 0;
magnetic = 5;
x = 0;
y = 334;
},
{
angle = 0;
isGlobal = 0;
magnetic = 5;
x = 0;
y = 9;
},
{
angle = 0;
isGlobal = 0;
magnetic = 5;
x = 0;
y = 376;
},
{
angle = 0;
isGlobal = 0;
magnetic = 5;
x = 0;
y = 691;
},
{
angle = 0;
isGlobal = 0;
magnetic = 5;
x = 0;
y = 649;
},
{
angle = 90;
isGlobal = 0;
magnetic = 5;
x = 664;
y = 0;
},
{
angle = 90;
isGlobal = 0;
magnetic = 5;
x = 94;
y = 0;
},
{
angle = 90;
isGlobal = 0;
magnetic = 5;
x = 511;
y = 0;
}
);
};
},
{
color = 5;
glyphname = Eogonek;
layers = (
{
anchors = (
{
name = bottom;
pos = (419,21);
},
{
name = top;
pos = (560,1050);
},
{
name = topleft;
pos = (240,1050);
}
);
layerId = "FF2DC345-5101-49B6-97F3-57A040F7C387";
shapes = (
{
closed = 1;
nodes = (
(338,-7,o),
(450,20,o),
(524,36,c),
(494,8,o),
(468,-27,o),
(468,-102,cs),
(468,-184,o),
(527,-256,o),
(636,-256,cs),
(710,-256,o),
(740,-241,o),
(740,-201,cs),
(740,-166,o),
(722,-156,o),
(702,-156,cs),
(681,-156,o),
(668,-168,o),
(648,-168,cs),
(579,-168,o),
(543,-130,o),
(543,-46,cs),
(543,11,o),
(606,50,o),
(648,68,cs),
(699,90,o),
(753,132,o),
(753,161,cs),
(753,182,o),
(746,192,o),
(731,192,cs),
(687,192,o),
(525,119,o),
(272,119,cs),
(248,119,o),
(231,135,o),
(231,159,cs),
(231,195,o),
(258,299,o),
(312,470,c),
(494,470,o),
(720,495,o),
(720,573,cs),
(720,593,o),
(702,600,o),
(672,600,cs),
(623,599,o),
(528,575,o),
(431,575,cs),
(402,575,o),
(374,576,o),
(345,581,c),
(383,717,o),
(401,821,o),
(401,893,c),
(449,900,o),
(525,914,o),
(578,918,cs),
(888,941,o),
(908,968,o),
(908,992,cs),
(908,1020,o),
(807,1035,o),
(606,1035,cs),
(405,1035,o),
(273,1025,o),
(273,945,cs),
(273,720,o),
(95,260,o),
(95,135,cs),
(95,53,o),
(176,-7,o),
(267,-7,cs)
);
}
);
width = 878;
}
);
unicode = 280;
},
{
color = 5;
glyphname = F;
kernLeft = I;
layers = (
{
anchors = (
{
name = bottom;
pos = (438,0);
},
{
name = top;
pos = (438,1050);
}
);
hints = (
{
horizontal = 1;
place = (0, 0);
type = Tag;
}
);
layerId = "FF2DC345-5101-49B6-97F3-57A040F7C387";
shapes = (
{
closed = 1;
nodes = (
(192,-6,o),
(261,281,o),
(293,440,c),
(392,435,o),
(710,465,o),
(710,549,cs),
(710,566,o),
(690,573,o),
(653,573,cs),
(563,573,o),
(467,552,o),
(321,560,c),
(360,723,o),
(381,825,o),
(378,897,c),
(843,939,o),
(884,962,o),
(884,983,cs),
(884,1001,o),
(855,1040,o),
(563,1040,cs),
(332,1040,o),
(260,1017,o),
(260,945,cs),
(260,683,o),
(84,308,o),
(84,107,cs),
(84,71,o),
(135,-6,o),
(159,-6,cs)
);
}
);
width = 785;
}
);
unicode = 70;
userData = {
com.typemytype.robofont.guides = (
{
angle = 0;
isGlobal = 0;
magnetic = 5;
x = 0;
y = 320;
},
{
angle = 0;
isGlobal = 0;
magnetic = 5;
x = 0;
y = 691;
},
{
angle = 0;
isGlobal = 0;
magnetic = 5;
x = 0;
y = 649;
},
{
angle = 0;
isGlobal = 0;
magnetic = 5;
x = 0;
y = 362;
},
{
angle = 0;
isGlobal = 0;
magnetic = 5;
x = 0;
y = 9;
},
{
angle = 90;
isGlobal = 0;
magnetic = 5;
x = 761;
y = 0;
},
{
angle = 90;
isGlobal = 0;
magnetic = 5;
x = 94;
y = 0;
},
{
angle = 90;
isGlobal = 0;
magnetic = 5;
x = 487;
y = 0;
},
{
angle = 90;
isGlobal = 0;
magnetic = 5;
x = 139;
y = 0;
}
);
};
},
{
color = 5;
glyphname = G;
kernLeft = O;
kernRight = G;
layers = (
{
anchors = (
{
name = bottom;
pos = (438,0);
},
{
name = top;
pos = (624,1050);
}
);
hints = (
{
horizontal = 1;
place = (0, 0);
type = Tag;
}
);
layerId = "FF2DC345-5101-49B6-97F3-57A040F7C387";
shapes = (
{
closed = 1;
nodes = (
(659,-163,o),
(795,267,o),
(795,348,cs),
(795,429,o),
(747,500,o),
(674,500,cs),
(474,500,o),
(447,464,o),
(447,447,cs),
(447,422,o),
(491,384,o),
(545,384,cs),
(582,384,o),
(620,390,o),
(669,407,c),
(669,402,l),
(560,239,o),
(416,125,o),
(321,125,cs),
(260,125,o),
(206,183,o),
(206,255,cs),
(206,512,o),
(479,906,o),
(692,906,cs),
(746,906,o),
(773,884,o),
(786,884,cs),
(798,884,o),
(803,893,o),
(803,906,cs),
(803,950,o),
(744,1046,o),
(680,1046,cs),
(407,1046,o),
(69,567,o),
(69,257,cs),
(69,126,o),
(212,-4,o),
(329,-4,cs),
(446,-4,o),
(578,99,o),
(675,266,c),
(680,266,l),
(641,144,o),
(569,-24,o),
(569,-120,cs),
(569,-148,o),
(582,-163,o),
(608,-163,cs)
);
}
);
width = 917;
}
);
unicode = 71;
userData = {
com.typemytype.robofont.guides = (
{
angle = 0;
isGlobal = 0;
magnetic = 5;
x = 0;
y = "-10";
},
{
angle = 0;
isGlobal = 0;
magnetic = 5;
x = 0;
y = 260;
},
{
angle = 0;
isGlobal = 0;
magnetic = 5;
x = 0;
y = 440;
},
{
angle = 90;
isGlobal = 0;
magnetic = 5;
x = 334;
y = 0;
},
{
angle = 90;
isGlobal = 0;
magnetic = 5;
x = 133;
y = 0;
},
{
angle = 90;
isGlobal = 0;
magnetic = 5;
x = 604;
y = 0;
},
{
angle = 90;
isGlobal = 0;
magnetic = 5;
x = 67;
y = 0;
}
);
};
},
{
color = 5;
glyphname = H;
kernLeft = I;
kernRight = I;
layers = (
{
anchors = (
{
name = bottom;
pos = (536,0);
},
{
name = center;
pos = (536,525);
},
{
name = top;
pos = (536,1050);
},
{
name = topleft;
pos = (255,1050);
}
);
layerId = "FF2DC345-5101-49B6-97F3-57A040F7C387";
shapes = (
{
closed = 1;
nodes = (
(212,-4,o),
(239,170,o),
(308,420,c),
(425,446,o),
(556,469,o),
(702,489,c),
(642,257,o),
(612,129,o),
(612,104,cs),
(612,54,o),
(660,-4,o),
(683,-4,cs),
(710,-4,o),
(714,39,o),
(842,510,c),
(903,523,o),
(935,540,o),
(935,560,cs),
(935,581,o),
(912,594,o),
(866,602,c),
(911,771,o),
(933,873,o),
(933,907,cs),
(933,974,o),
(873,1050,o),
(839,1050,cs),
(819,1050,o),
(809,1035,o),
(809,1005,cs),
(809,947,o),
(783,813,o),
(732,605,c),
(605,597,o),
(476,579,o),
(344,552,c),
(393,745,o),
(417,861,o),
(417,899,cs),
(417,977,o),
(356,1050,o),
(329,1050,cs),
(303,1050,o),
(296,1040,o),
(296,1005,cs),
(296,942,o),
(262,780,o),
(195,518,c),
(143,501,o),
(117,488,o),
(117,474,cs),
(117,443,o),
(139,415,o),
(165,405,c),
(121,233,o),
(99,135,o),
(99,111,cs),
(99,63,o),
(156,-4,o),
(180,-4,cs)
);
}
);
width = 1005;
}
);
unicode = 72;
userData = {
com.typemytype.robofont.guides = (
{
angle = 0;
isGlobal = 0;
magnetic = 5;
x = 0;
y = 350;
},
{
angle = 0;
isGlobal = 0;
magnetic = 5;
x = 0;
y = 9;
},
{
angle = 0;
isGlobal = 0;
magnetic = 5;
x = 0;
y = 691;
},
{
angle = 90;
isGlobal = 0;
magnetic = 5;
x = 94;
y = 0;
},
{
angle = 90;
isGlobal = 0;
magnetic = 5;
x = 139;
y = 0;
},
{
angle = 90;
isGlobal = 0;
magnetic = 5;
x = 543;
y = 0;
},
{
angle = 90;
isGlobal = 0;
magnetic = 5;
x = 588;
y = 0;
}
);
};
},
{
color = 5;
glyphname = Hbar;
layers = (
{
anchors = (
{
name = bottom;
pos = (536,0);
},
{
name = center;
pos = (536,525);
},
{
name = top;
pos = (536,1050);
},
{
name = topleft;
pos = (255,1050);
}
);
layerId = "FF2DC345-5101-49B6-97F3-57A040F7C387";
shapes = (
{
closed = 1;
nodes = (
(212,-4,o),
(239,170,o),
(308,420,c),
(425,446,o),
(557,470,o),
(702,489,c),
(642,257,o),
(612,129,o),
(612,104,cs),
(612,54,o),
(660,-4,o),
(683,-4,cs),
(710,-4,o),
(714,39,o),
(842,510,c),
(903,524,o),
(935,540,o),
(935,561,cs),
(935,581,o),
(912,594,o),
(866,602,c),
(902,741,l),
(915,744,o),
(1004,767,o),
(1004,786,cs),
(1004,813,o),
(968,824,o),
(921,828,c),
(929,866,o),
(933,893,o),
(933,908,cs),
(933,974,o),
(873,1050,o),
(839,1050,cs),
(819,1050,o),
(809,1035,o),
(809,1005,cs),
(809,972,o),
(800,912,o),
(783,830,c),
(710,825,o),
(543,803,o),
(398,776,c),
(411,839,o),
(417,879,o),
(417,900,cs),
(417,977,o),
(356,1050,o),
(330,1050,cs),
(303,1050,o),
(296,1040,o),
(296,1005,cs),
(296,963,o),
(281,876,o),
(251,744,c),
(216,735,o),
(87,699,o),
(87,662,cs),
(87,633,o),
(107,615,o),
(135,615,cs),
(147,615,o),
(179,618,o),
(222,624,c),
(213,591,o),
(204,555,o),
(195,518,c),
(143,501,o),
(117,488,o),
(117,474,cs),
(117,443,o),
(140,416,o),
(165,405,c),
(122,233,o),
(99,135,o),
(99,111,cs),
(99,63,o),
(156,-4,o),
(180,-4,cs)
);
},
{
closed = 1;
nodes = (
(353,585,o),
(360,615,o),
(366,644,c),
(488,662,o),
(636,686,o),
(758,710,c),
(750,677,o),
(741,642,o),
(732,605,c),
(605,597,o),
(476,579,o),
(344,552,c)
);
}
);
width = 1005;
}
);
unicode = 294;
},
{
color = 5;
glyphname = I;
kernLeft = I;
kernRight = I;
layers = (
{
anchors = (
{
name = bottom;
pos = (206,0);
},
{
name = top;
pos = (336,1050);
},
{
name = topleft;
pos = (225,1050);
}
);
layerId = "FF2DC345-5101-49B6-97F3-57A040F7C387";
shapes = (
{
closed = 1;
nodes = (
(183,-1,o),
(200,6,o),
(221,87,cs),
(285,333,o),
(410,842,o),
(410,901,cs),
(410,972,o),
(346,1047,o),
(317,1047,cs),
(288,1047,o),
(282,1037,o),
(282,1002,cs),
(282,849,o),
(102,191,o),
(102,101,cs),
(102,60,o),
(155,-1,o),
(174,-1,cs)
);
}
);
width = 465;
}
);
unicode = 73;
userData = {
com.typemytype.robofont.guides = (
{
angle = 90;
isGlobal = 0;
magnetic = 5;
x = 85;
y = 0;
},
{
angle = 90;
isGlobal = 0;
magnetic = 5;
x = 148;
y = 0;
}
);
};
},
{
color = 5;
glyphname = Iogonek;
layers = (
{
anchors = (
{
name = bottom;
pos = (206,0);
},
{
name = top;
pos = (336,1050);
},
{
name = topleft;
pos = (225,1050);
}
);
hints = (
{
horizontal = 1;
origin = (0,32);
type = Tag;
},
{
horizontal = 1;
origin = (0,2);
type = Tag;
}
);
layerId = "FF2DC345-5101-49B6-97F3-57A040F7C387";
shapes = (
{
closed = 1;
nodes = (
(123,0,o),
(200,6,o),
(221,87,cs),
(285,333,o),
(410,842,o),
(410,902,cs),
(410,972,o),
(347,1047,o),
(318,1047,cs),
(288,1047,o),
(282,1037,o),
(282,1002,cs),
(282,851,o),
(105,204,o),
(102,104,c),
(18,86,o),
(-100,14,o),
(-100,-114,cs),
(-100,-244,o),
(-24,-330,o),
(110,-330,cs),
(167,-330,o),
(201,-321,o),
(201,-271,cs),
(201,-240,o),
(179,-226,o),
(158,-226,cs),
(137,-226,o),
(123,-235,o),
(101,-235,cs),
(36,-235,o),
(-1,-181,o),
(-1,-114,cs),
(-1,-45,o),
(36,0,o),
(114,0,cs)
);
}
);
width = 465;
}
);
unicode = 302;
},
{
color = 5;
glyphname = J;
kernLeft = J;
kernRight = U;
layers = (
{
anchors = (
{
name = bottom;
pos = (476,0);
},
{
name = top;
pos = (474,1050);
}
);
hints = (
{
horizontal = 1;
place = (0, 0);
type = Tag;
}
);
layerId = "FF2DC345-5101-49B6-97F3-57A040F7C387";
shapes = (
{
closed = 1;
nodes = (
(369,-10,o),
(449,26,o),
(500,201,cs),
(645,702,o),
(746,968,o),
(746,1005,cs),
(746,1044,o),
(710,1056,o),
(678,1056,cs),
(578,1056,o),
(218,975,o),
(218,900,cs),
(218,875,o),
(236,863,o),
(273,863,cs),
(320,863,o),
(498,914,o),
(602,930,c),
(509,728,o),
(455,435,o),
(368,217,cs),
(341,147,o),
(314,113,o),
(278,113,cs),
(167,113,o),
(75,261,o),
(39,261,cs),
(21,261,o),
(12,246,o),
(12,218,cs),
(12,138,o),
(159,-10,o),
(302,-10,cs)
);
}
);
width = 702;
}
);
unicode = 74;
userData = {
com.typemytype.robofont.guides = (
{
angle = 0;
isGlobal = 0;
magnetic = 5;
x = 0;
y = "-10";
},
{
angle = 0;
isGlobal = 0;
magnetic = 5;
x = 0;
y = 133;
},
{
angle = 0;
isGlobal = 0;
magnetic = 5;
x = 0;
y = 677;
},
{
angle = 90;
isGlobal = 0;
magnetic = 5;
x = 303;
y = 0;
},
{
angle = 90;
isGlobal = 0;
magnetic = 5;
x = 60;
y = 0;
},
{
angle = 90;
isGlobal = 0;
magnetic = 5;
x = 91;
y = 0;
}
);
};
},
{
color = 5;
glyphname = K;
kernLeft = I;
kernRight = K;
layers = (
{
anchors = (
{
name = bottom;
pos = (471,0);
},
{
name = top;
pos = (452,1050);
}
);
layerId = "FF2DC345-5101-49B6-97F3-57A040F7C387";
shapes = (
{
closed = 1;
nodes = (
(177,0,o),
(186,53,o),
(219,159,cs),
(246,249,o),
(275,321,o),
(306,377,c),
(353,164,o),
(573,0,o),
(749,0,cs),
(788,0,o),
(807,14,o),
(807,39,cs),
(807,78,o),
(732,111,o),
(657,147,cs),
(504,221,o),
(408,345,o),
(408,480,c),
(533,657,o),
(876,942,o),
(876,984,cs),
(876,1008,o),
(834,1038,o),
(794,1038,cs),
(758,1038,o),
(564,881,o),
(314,539,c),
(366,735,o),
(392,854,o),
(392,894,cs),
(392,974,o),
(339,1047,o),
(310,1047,cs),
(281,1047,o),
(276,1035,o),
(276,999,cs),
(276,803,o),
(81,234,o),
(81,109,cs),
(81,59,o),
(120,0,o),
(156,0,cs)
);
}
);
width = 887;
}
);
unicode = 75;
userData = {
com.typemytype.robofont.guides = (
{
angle = 0;
isGlobal = 0;
magnetic = 5;
x = 0;
y = 365;
},
{
angle = 90;
isGlobal = 0;
magnetic = 5;
x = 547;
y = 0;
},
{
angle = 90;
isGlobal = 0;
magnetic = 5;
x = 94;
y = 0;
},
{
angle = 90;
isGlobal = 0;
magnetic = 5;
x = 139;
y = 0;
}
);
};
},
{
color = 5;
glyphname = L;
kernLeft = I;
kernRight = L;
layers = (
{
anchors = (
{
name = bottom;
pos = (372,0);
},
{
name = center;
pos = (422,525);
},
{
name = top;
pos = (260,1050);
},
{
name = topright;
pos = (533,1023);
}
);
layerId = "FF2DC345-5101-49B6-97F3-57A040F7C387";
shapes = (
{
closed = 1;
nodes = (
(483,-4,o),
(738,86,o),
(738,170,cs),
(738,188,o),
(732,195,o),
(716,195,cs),
(660,195,o),
(494,122,o),
(267,122,cs),
(242,122,o),
(228,135,o),
(228,162,cs),
(228,231,o),
(422,786,o),
(422,941,cs),
(422,996,o),
(363,1058,o),
(334,1058,cs),
(305,1058,o),
(299,1044,o),
(299,1013,cs),
(299,809,o),
(93,267,o),
(93,137,cs),
(93,60,o),
(176,-4,o),
(272,-4,cs)
);
}
);
width = 819;
}
);
unicode = 76;
},
{
color = 4;
glyphname = Lslash;
layers = (
{
anchors = (
{
name = bottom;
pos = (372,0);
},
{
name = center;
pos = (422,525);
},
{
name = top;
pos = (260,1050);
},
{
name = topright;
pos = (533,1023);
}
);
layerId = "FF2DC345-5101-49B6-97F3-57A040F7C387";
shapes = (
{
closed = 1;
nodes = (
(483,-4,o),
(738,86,o),
(738,170,cs),
(738,188,o),
(732,195,o),
(716,195,cs),
(660,195,o),
(494,122,o),
(267,122,cs),
(242,122,o),
(228,135,o),
(228,162,cs),
(228,201,o),
(288,389,o),
(341,576,c),
(479,633,o),
(621,704,o),
(621,716,cs),
(621,741,o),
(599,761,o),
(554,761,cs),
(533,761,o),
(464,746,o),
(381,723,c),
(405,816,o),
(422,896,o),
(422,941,cs),
(422,996,o),
(363,1058,o),
(335,1058,cs),
(305,1058,o),
(299,1044,o),
(299,1013,cs),
(299,936,o),
(270,812,o),
(234,680,c),
(119,642,o),
(18,599,o),
(18,569,cs),
(18,530,o),
(54,500,o),
(105,500,cs),
(123,500,o),
(152,507,o),
(188,518,c),
(140,351,o),
(93,198,o),
(93,138,cs),
(93,60,o),
(176,-4,o),
(272,-4,cs)
);
}
);
width = 819;
}
);
unicode = 321;
},
{
color = 5;
glyphname = M;
kernLeft = I;
kernRight = I;
layers = (
{
anchors = (
{
name = bottom;
pos = (596,0);
},
{
name = top;
pos = (686,1050);
}
);
hints = (
{
horizontal = 1;
place = (0, 0);
type = Tag;
}
);
layerId = "FF2DC345-5101-49B6-97F3-57A040F7C387";
shapes = (
{
closed = 1;
nodes = (
(173,0,o),
(198,84,o),
(228,194,cs),
(263,315,o),
(323,515,o),
(357,728,c),
(418,534,o),
(488,312,o),
(573,312,cs),
(663,312,o),
(840,562,o),
(1025,792,c),
(945,574,o),
(861,213,o),
(861,133,cs),
(861,57,o),
(890,0,o),
(920,0,cs),
(933,0,o),
(950,29,o),
(963,87,cs),
(1025,360,o),
(1175,830,o),
(1175,944,cs),
(1175,980,o),
(1124,1031,o),
(1088,1031,cs),
(1022,1031,o),
(824,731,o),
(599,465,c),
(510,653,o),
(432,863,o),
(425,935,cs),
(420,977,o),
(335,1047,o),
(310,1047,cs),
(285,1047,o),
(278,1037,o),
(278,1002,cs),
(278,764,o),
(84,237,o),
(84,114,cs),
(84,66,o),
(132,0,o),
(156,0,cs)
);
}
);
width = 1184;
}
);
unicode = 77;
userData = {
com.typemytype.robofont.guides = (
{
angle = 0;
isGlobal = 0;
magnetic = 5;
x = 0;
y = 168;
},
{
angle = 0;
isGlobal = 0;
magnetic = 5;
x = 0;
y = 9;
},
{
angle = 0;
isGlobal = 0;
magnetic = 5;
x = 0;
y = 691;
},
{
angle = 90;
isGlobal = 0;
magnetic = 5;
x = 126;
y = 0;
},
{
angle = 90;
isGlobal = 0;
magnetic = 5;
x = 636;
y = 0;
}
);
};
},
{
color = 5;
glyphname = N;
kernLeft = I;
kernRight = I;
layers = (
{
anchors = (
{
name = bottom;
pos = (420,0);
},
{
name = top;
pos = (626,1050);
}
);
layerId = "FF2DC345-5101-49B6-97F3-57A040F7C387";
shapes = (
{
closed = 1;
nodes = (
(203,-4,o),
(248,332,o),
(359,729,c),
(542,305,o),
(606,-4,o),
(707,-4,cs),
(857,-4,o),
(968,815,o),
(968,948,cs),
(968,995,o),
(911,1055,o),
(874,1055,cs),
(855,1055,o),
(843,1034,o),
(843,990,cs),
(843,881,o),
(794,449,o),
(698,195,c),
(654,289,o),
(552,545,o),
(392,963,cs),
(374,1007,o),
(325,1052,o),
(303,1052,cs),
(286,1052,o),
(278,1035,o),
(278,1004,cs),
(278,843,o),
(80,188,o),
(80,102,cs),
(80,54,o),
(114,-4,o),
(149,-4,cs)
);
}
);
width = 1016;
}
);
unicode = 78;
userData = {
com.typemytype.robofont.guides = (
{
angle = 0;
isGlobal = 0;
magnetic = 5;
x = 0;
y = 9;
},
{
angle = 0;
isGlobal = 0;
magnetic = 5;
x = 0;
y = 691;
},
{
angle = 90;
isGlobal = 0;
magnetic = 5;
x = 540;
y = 0;
},
{
angle = 90;
isGlobal = 0;
magnetic = 5;
x = 125;
y = 0;
}
);
};
},
{
color = 5;
glyphname = Eng;
layers = (
{
layerId = "FF2DC345-5101-49B6-97F3-57A040F7C387";
shapes = (
{
closed = 1;
nodes = (
(203,-4,o),
(248,332,o),
(359,729,c),
(486,435,o),
(635,48,o),
(635,0,cs),
(635,-54,o),
(594,-121,o),
(522,-121,cs),
(491,-121,o),
(465,-102,o),
(434,-102,cs),
(404,-102,o),
(383,-129,o),
(383,-163,cs),
(383,-198,o),
(408,-231,o),
(488,-231,cs),
(680,-231,o),
(761,-52,o),
(830,195,cs),
(893,420,o),
(968,839,o),
(968,948,cs),
(968,995,o),
(911,1055,o),
(874,1055,cs),
(855,1055,o),
(843,1034,o),
(843,990,cs),
(843,881,o),
(794,449,o),
(698,195,c),
(654,289,o),
(552,545,o),
(392,963,cs),
(374,1007,o),
(325,1052,o),
(303,1052,cs),
(286,1052,o),
(278,1035,o),
(278,1004,cs),
(278,843,o),
(80,188,o),
(80,102,cs),
(80,54,o),
(114,-4,o),
(149,-4,cs)
);
}
);
width = 1016;
}
);
unicode = 330;
},
{
color = 5;
glyphname = O;
kernLeft = O;
kernRight = O;
layers = (
{
anchors = (
{
name = bottom;
pos = (509,0);
},
{
name = center;
pos = (509,525);
},
{
name = ogonek;
pos = (408,102);
},
{
name = top;
pos = (629,1050);
},
{
name = topleft;
pos = (405,1050);
},
{
name = topright;
pos = (806,1050);
}
);
layerId = "FF2DC345-5101-49B6-97F3-57A040F7C387";
shapes = (
{
closed = 1;
nodes = (
(614,-4,o),
(888,395,o),
(888,680,cs),
(888,872,o),
(762,1053,o),
(594,1053,cs),
(371,1053,o),
(81,651,o),
(81,291,cs),
(81,158,o),
(197,-4,o),
(329,-4,cs)
);
},
{
closed = 1;
nodes = (
(273,114,o),
(218,191,o),
(218,300,cs),
(218,536,o),
(449,926,o),
(602,926,cs),
(681,926,o),
(750,821,o),
(750,666,cs),
(750,444,o),
(503,114,o),
(338,114,cs)
);
}
);
width = 920;
}
);
unicode = 79;
userData = {
com.typemytype.robofont.guides = (
{
angle = 0;
isGlobal = 0;
magnetic = 5;
x = 0;
y = "-10";
},
{
angle = 0;
isGlobal = 0;
magnetic = 5;
x = 0;
y = 710;
},
{
angle = 0;
isGlobal = 0;
magnetic = 5;
x = 0;
y = 335;
},
{
angle = 0;
isGlobal = 0;
magnetic = 5;
x = 0;
y = 434;
},
{
angle = 0;
isGlobal = 0;
magnetic = 5;
x = 0;
y = 266;
},
{
angle = 90;
isGlobal = 0;
magnetic = 5;
x = 496;
y = 0;
}
);
};
},
{
color = 4;
glyphname = Oslash;
kernLeft = O;
kernRight = O;
layers = (
{
anchors = (
{
name = bottom;
pos = (509,0);
},
{
name = top;
pos = (509,1050);
}
);
layerId = "FF2DC345-5101-49B6-97F3-57A040F7C387";
shapes = (
{
closed = 1;
nodes = (
(281,-4,o),
(228,21,o),
(179,72,c),
(138,24,o),
(111,-7,o),
(93,-7,cs),
(72,-7,o),
(54,11,o),
(54,32,cs),
(54,56,o),
(80,90,o),
(122,149,c),
(95,198,o),
(81,245,o),
(81,291,cs),
(81,615,o),
(341,1053,o),
(594,1053,cs),
(671,1053,o),
(734,1022,o),
(791,960,c),
(843,1015,o),
(881,1043,o),
(900,1043,cs),
(924,1043,o),
(936,1031,o),
(936,1006,cs),
(936,981,o),
(915,945,o),
(849,873,c),
(879,815,o),
(896,750,o),
(896,684,cs),
(896,363,o),
(596,-4,o),
(338,-4,cs)
);
},
{
closed = 1;
nodes = (
(704,863,l),
(674,905,o),
(642,926,o),
(602,926,cs),
(458,926,o),
(218,551,o),
(218,300,cs),
(218,287,o),
(218,278,o),
(219,272,c)
);
},
{
closed = 1;
nodes = (
(515,114,o),
(758,452,o),
(758,657,cs),
(758,692,o),
(754,725,o),
(747,758,c),
(581,567,o),
(417,371,o),
(257,168,c),
(282,132,o),
(311,114,o),
(345,114,cs)
);
}
);
width = 920;
}
);
unicode = 216;
userData = {
com.typemytype.robofont.guides = (
{
angle = 0;
isGlobal = 0;
magnetic = 5;
x = 0;
y = 145;
},
{
angle = 90;
isGlobal = 0;
magnetic = 5;
x = 351;
y = 0;
},
{
angle = 90;
isGlobal = 0;
magnetic = 5;
x = 679;
y = 0;
},
{
angle = 90;
isGlobal = 0;
magnetic = 5;
x = 85;
y = 0;
},
{
angle = 90;
isGlobal = 0;
magnetic = 5;
x = 20;
y = 0;
}
);
};
},
{
color = 5;
glyphname = OE;
kernLeft = O;
kernRight = E;
layers = (
{
anchors = (
{
name = bottom;
pos = (690,0);
},
{
name = top;
pos = (690,1050);
}
);
hints = (
{
horizontal = 1;
place = (0, 0);
type = Tag;
}
);
layerId = "FF2DC345-5101-49B6-97F3-57A040F7C387";
shapes = (
{
closed = 1;
nodes = (
(1010,-7,o),
(1287,89,o),
(1287,161,cs),
(1287,182,o),
(1280,192,o),
(1266,192,cs),
(1215,192,o),
(1061,119,o),
(807,119,cs),
(779,119,o),
(765,135,o),
(765,167,cs),
(765,213,o),
(819,375,o),
(848,470,c),
(939,470,o),
(1256,479,o),
(1256,573,cs),
(1256,590,o),
(1233,596,o),
(1199,596,cs),
(1137,596,o),
(1037,578,o),
(957,578,cs),
(935,578,o),
(905,578,o),
(881,581,c),
(918,717,o),
(936,820,o),
(936,893,c),
(1157,929,o),
(1343,944,o),
(1377,951,cs),
(1421,959,o),
(1442,972,o),
(1442,992,cs),
(1442,1020,o),
(1344,1035,o),
(1148,1035,cs),
(840,1035,o),
(807,1007,o),
(807,935,c),
(749,1014,o),
(677,1053,o),
(594,1053,cs),
(335,1053,o),
(81,612,o),
(81,291,cs),
(81,158,o),
(197,-4,o),
(329,-4,cs),
(429,-4,o),
(533,48,o),
(629,134,c),
(629,48,o),
(710,-7,o),
(801,-7,cs)
);
},
{
closed = 1;
nodes = (
(273,114,o),
(218,191,o),
(218,300,cs),
(218,546,o),
(444,926,o),
(602,926,cs),
(681,926,o),
(750,824,o),
(750,657,cs),
(750,464,o),
(513,114,o),
(338,114,cs)
);
}
);
width = 1410;
}
);
unicode = 338;
userData = {
com.typemytype.robofont.guides = (
{
angle = 90;
isGlobal = 0;
magnetic = 5;
x = 842;
y = 0;
},
{
angle = 90;
isGlobal = 0;
magnetic = 5;
x = 66;
y = 0;
},
{
angle = 90;
isGlobal = 0;
magnetic = 5;
x = 439;
y = 0;
},
{
angle = 90;
isGlobal = 0;
magnetic = 5;
x = 502;
y = 0;
}
);
};
},
{
color = 5;
glyphname = P;
kernLeft = I;
layers = (
{
anchors = (
{
name = bottom;
pos = (482,0);
},
{
name = top;
pos = (482,1050);
}
);
hints = (
{
horizontal = 1;
place = (0, 0);
type = Tag;
}
);
layerId = "FF2DC345-5101-49B6-97F3-57A040F7C387";
shapes = (
{
closed = 1;
nodes = (
(156,-7,o),
(200,116,o),
(273,363,c),
(613,429,o),
(839,584,o),
(839,800,cs),
(839,957,o),
(702,1065,o),
(510,1065,cs),
(386,1065,o),
(213,1008,o),
(213,959,cs),
(213,941,o),
(225,921,o),
(249,899,c),
(245,650,o),
(65,189,o),
(65,94,cs),
(65,48,o),
(114,-7,o),
(143,-7,cs)
);
},
{
closed = 1;
nodes = (
(355,661,o),
(380,780,o),
(380,836,cs),
(380,855,o),
(375,875,o),
(365,897,c),
(434,929,o),
(477,942,o),
(543,942,cs),
(629,942,o),
(707,879,o),
(707,791,cs),
(707,666,o),
(546,544,o),
(306,480,c)
);
}
);
width = 815;
}
);
unicode = 80;
userData = {
com.typemytype.robofont.guides = (
{
angle = 0;
isGlobal = 0;
magnetic = 5;
x = 0;
y = 493;
},
{
angle = 0;
isGlobal = 0;
magnetic = 5;
x = 0;
y = 403;
},
{
angle = 0;
isGlobal = 0;
magnetic = 5;
x = 0;
y = 218;
},
{
angle = 0;
isGlobal = 0;
magnetic = 5;
x = 0;
y = 310;
},
{
angle = 0;
isGlobal = 0;
magnetic = 5;
x = 0;
y = 9;
},
{
angle = 0;
isGlobal = 0;
magnetic = 5;
x = 0;
y = 691;
},
{
angle = 90;
isGlobal = 0;
magnetic = 5;
x = 345;
y = 0;
},
{
angle = 90;
isGlobal = 0;
magnetic = 5;
x = 94;
y = 0;
},
{
angle = 90;
isGlobal = 0;
magnetic = 5;
x = 139;
y = 0;
}
);
};
},
{
color = 5;
glyphname = Thorn;
kernLeft = I;
layers = (
{
anchors = (
{
name = bottom;
pos = (351,0);
},
{
name = top;
pos = (471,1050);
}
);
hints = (
{
horizontal = 1;
place = (0, 0);
type = Tag;
}
);
layerId = "FF2DC345-5101-49B6-97F3-57A040F7C387";
shapes = (
{
closed = 1;
nodes = (
(173,-7,o),
(204,104,o),
(243,246,c),
(464,246,o),
(707,350,o),
(707,549,cs),
(707,663,o),
(572,792,o),
(452,792,cs),
(428,792,o),
(399,788,o),
(368,780,c),
(374,814,o),
(377,840,o),
(377,858,cs),
(377,935,o),
(308,992,o),
(275,992,cs),
(243,992,o),
(237,980,o),
(237,945,cs),
(237,662,o),
(77,174,o),
(77,92,cs),
(77,50,o),
(117,-7,o),
(147,-7,cs)
);
},
{
closed = 1;
nodes = (
(339,633,l),
(374,648,o),
(410,657,o),
(444,657,cs),
(519,657,o),
(581,611,o),
(581,548,cs),
(581,428,o),
(405,365,o),
(273,365,c)
);
}
);
width = 755;
}
);
unicode = 222;
userData = {
com.typemytype.robofont.guides = (
{
angle = 0;
isGlobal = 0;
magnetic = 5;
x = 0;
y = 119;
},
{
angle = 0;
isGlobal = 0;
magnetic = 5;
x = 0;
y = 601;
},
{
angle = 0;
isGlobal = 0;
magnetic = 5;
x = 0;
y = 570;
},
{
angle = 0;
isGlobal = 0;
magnetic = 5;
x = 0;
y = 350;
}
);
};
},
{
color = 5;
glyphname = Q;
kernLeft = O;
kernRight = O;
layers = (
{
anchors = (
{
name = bottom;
pos = (509,0);
},
{
name = top;
pos = (614,1050);
}
);
hints = (
{
horizontal = 1;
place = (0, 0);
type = Tag;
}
);
layerId = "FF2DC345-5101-49B6-97F3-57A040F7C387";
shapes = (
{
closed = 1;
nodes = (
(745,-238,o),
(758,-227,o),
(758,-204,cs),
(758,-158,o),
(700,-42,o),
(644,117,c),
(800,255,o),
(911,486,o),
(911,677,cs),
(911,868,o),
(762,1049,o),
(594,1049,cs),
(323,1049,o),
(86,593,o),
(86,291,cs),
(86,143,o),
(228,0,o),
(356,0,cs),
(420,0,o),
(482,16,o),
(543,48,c),
(616,-143,o),
(675,-238,o),
(720,-238,cs)
);
},
{
closed = 1;
nodes = (
(293,114,o),
(218,201,o),
(218,302,cs),
(218,465,o),
(297,656,o),
(405,788,c),
(398,759,o),
(395,725,o),
(395,686,cs),
(395,561,o),
(430,389,o),
(501,167,c),
(456,134,o),
(417,114,o),
(381,114,cs)
);
},
{
closed = 1;
nodes = (
(544,434,o),
(518,603,o),
(518,767,cs),
(518,831,o),
(529,880,o),
(552,912,c),
(571,920,o),
(588,924,o),
(605,924,cs),
(687,924,o),
(774,816,o),
(774,674,cs),
(774,531,o),
(699,377,o),
(597,257,c)
);
}
);
width = 962;
}
);
unicode = 81;
userData = {
com.typemytype.robofont.guides = (
{
angle = 0;
isGlobal = 0;
magnetic = 5;
x = 0;
y = 710;
},
{
angle = 0;
isGlobal = 0;
magnetic = 5;
x = 0;
y = "-10";
},
{
angle = 0;
isGlobal = 0;
magnetic = 5;
x = 0;
y = "-56";
},
{
angle = 90;
isGlobal = 0;
magnetic = 5;
x = 82;
y = 0;
},
{
angle = 90;
isGlobal = 0;
magnetic = 5;
x = 750;
y = 0;
},
{
angle = 90;
isGlobal = 0;
magnetic = 5;
x = 580;
y = 0;
}
);
};
},
{
color = 5;
glyphname = R;
kernLeft = I;
kernRight = R;
layers = (
{
anchors = (
{
name = bottom;
pos = (393,0);
},
{
name = top;
pos = (581,1050);
}
);
layerId = "FF2DC345-5101-49B6-97F3-57A040F7C387";
shapes = (
{
closed = 1;
nodes = (
(177,-6,o),
(245,263,o),
(291,419,c),
(341,273,o),
(632,-4,o),
(752,-4,cs),
(785,-4,o),
(801,8,o),
(801,32,cs),
(801,60,o),
(780,81,o),
(611,221,cs),
(441,362,o),
(434,404,o),
(434,426,cs),
(434,447,o),
(474,453,o),
(690,584,cs),
(771,633,o),
(831,728,o),
(831,825,cs),
(831,969,o),
(690,1052,o),
(526,1052,cs),
(360,1052,o),
(198,989,o),
(198,944,cs),
(198,918,o),
(222,877,o),
(248,861,c),
(225,575,o),
(71,191,o),
(71,94,cs),
(71,50,o),
(120,-6,o),
(140,-6,cs)
);
},
{
closed = 1;
nodes = (
(356,648,o),
(377,756,o),
(377,821,cs),
(377,839,o),
(372,858,o),
(362,881,c),
(426,906,o),
(483,918,o),
(533,918,cs),
(641,918,o),
(695,887,o),
(695,825,cs),
(695,657,o),
(438,593,o),
(314,498,c)
);
}
);
width = 876;
}
);
unicode = 82;
userData = {
com.typemytype.robofont.guides = (
{
angle = 0;
isGlobal = 0;
magnetic = 5;
x = 0;
y = 691;
},
{
angle = 0;
isGlobal = 0;
magnetic = 5;
x = 0;
y = 9;
},
{
angle = 90;
isGlobal = 0;
magnetic = 5;
x = 616;
y = 0;
},
{
angle = 90;
isGlobal = 0;
magnetic = 5;
x = 574;
y = 0;
},
{
angle = 90;
isGlobal = 0;
magnetic = 5;
x = 94;
y = 0;
},
{
angle = 90;
isGlobal = 0;
magnetic = 5;
x = 139;
y = 0;
}
);
};
},
{
color = 5;
glyphname = S;
kernLeft = S;
kernRight = S;
layers = (
{
anchors = (
{
name = bottom;
pos = (333,0);
},
{
name = top;
pos = (573,1050);
}
);
layerId = "FF2DC345-5101-49B6-97F3-57A040F7C387";
shapes = (
{
closed = 1;
nodes = (
(528,2,o),
(702,128,o),
(702,291,cs),
(702,491,o),
(350,686,o),
(350,764,cs),
(350,804,o),
(407,836,o),
(522,879,cs),
(632,923,o),
(762,924,o),
(762,960,cs),
(762,1002,o),
(717,1049,o),
(659,1049,cs),
(477,1049,o),
(221,914,o),
(221,735,cs),
(221,618,o),
(567,410,o),
(567,290,cs),
(567,206,o),
(438,119,o),
(299,119,cs),
(156,119,o),
(86,261,o),
(35,261,cs),
(17,261,o),
(8,246,o),
(8,216,cs),
(8,128,o),
(146,2,o),
(337,2,cs)
);
}
);
width = 797;
}
);
unicode = 83;
userData = {
com.typemytype.robofont.guides = (
{
angle = 0;
isGlobal = 0;
magnetic = 5;
x = 0;
y = 355;
},
{
angle = 90;
isGlobal = 0;
magnetic = 5;
x = 306;
y = 0;
}
);
};
},
{
color = 5;
glyphname = Scedilla;
layers = (
{
layerId = "FF2DC345-5101-49B6-97F3-57A040F7C387";
shapes = (
{
closed = 1;
nodes = (
(465,-330,o),
(515,-271,o),
(515,-198,cs),
(515,-124,o),
(467,-72,o),
(399,-72,cs),
(380,-72,o),
(356,-76,o),
(344,-84,c),
(372,0,l),
(543,20,o),
(702,143,o),
(702,291,cs),
(702,491,o),
(350,686,o),
(350,764,cs),
(350,804,o),
(407,836,o),
(522,879,cs),
(632,923,o),
(762,924,o),
(762,960,cs),
(762,1002,o),
(717,1049,o),
(659,1049,cs),
(477,1049,o),
(221,914,o),
(221,735,cs),
(221,618,o),
(567,410,o),
(567,290,cs),
(567,206,o),
(438,119,o),
(299,119,cs),
(156,119,o),
(86,261,o),
(35,261,cs),
(17,261,o),
(8,246,o),
(8,216,cs),
(8,134,o),
(128,18,o),
(300,3,c),
(275,-49,ls),
(267,-66,o),
(255,-97,o),
(255,-112,cs),
(255,-132,o),
(281,-162,o),
(299,-162,cs),
(321,-162,o),
(335,-147,o),
(372,-147,cs),
(405,-147,o),
(432,-166,o),
(432,-199,cs),
(432,-234,o),
(405,-258,o),
(372,-258,cs),
(326,-258,o),
(315,-225,o),
(290,-225,cs),
(266,-225,o),
(240,-235,o),
(240,-264,cs),
(240,-300,o),
(264,-330,o),
(372,-330,cs)
);
}
);
width = 797;
}
);
unicode = 350;
},
{
color = 5;
glyphname = Germandbls;
layers = (
{
layerId = "FF2DC345-5101-49B6-97F3-57A040F7C387";
shapes = (
{
closed = 1;
nodes = (
(183,0,o),
(227,30,o),
(227,107,cs),
(227,204,o),
(215,503,o),
(215,735,cs),
(215,894,o),
(278,918,o),
(542,918,cs),
(639,918,o),
(722,887,o),
(722,813,cs),
(722,707,o),
(542,648,o),
(437,593,cs),
(401,575,o),
(366,557,o),
(365,530,cs),
(363,495,o),
(387,464,o),
(435,464,cs),
(573,464,o),
(732,417,o),
(732,297,cs),
(732,188,o),
(701,114,o),
(431,114,cs),
(392,114,o),
(372,87,o),
(372,63,cs),
(372,30,o),
(404,-4,o),
(462,-4,cs),
(713,-4,o),
(863,77,o),
(863,291,cs),
(863,434,o),
(740,528,o),
(560,539,c),
(753,599,o),
(857,701,o),
(857,821,cs),
(857,965,o),
(699,1043,o),
(419,1043,cs),
(237,1043,o),
(104,993,o),
(104,735,cs),
(104,276,o),
(68,183,o),
(68,102,cs),
(68,41,o),
(90,0,o),
(141,0,cs)
);
}
);
width = 956;
}
);
unicode = 7838;
},
{
color = 5;
glyphname = T;
kernLeft = T;
kernRight = T;
layers = (
{
anchors = (
{
name = bottom;
pos = (255,0);
},
{
name = center;
pos = (435,525);
},
{
name = top;
pos = (435,1050);
}
);
hints = (
{
horizontal = 1;
place = (0, 0);
type = Tag;
}
);
layerId = "FF2DC345-5101-49B6-97F3-57A040F7C387";
shapes = (
{
closed = 1;
nodes = (
(339,-1,o),
(352,25,o),
(366,78,cs),
(375,107,o),
(524,744,o),
(551,920,c),
(665,917,o),
(779,905,o),
(858,906,cs),
(891,906,o),
(908,915,o),
(908,935,cs),
(908,1017,o),
(645,1041,o),
(560,1041,cs),
(110,1041,o),
(95,1025,o),
(95,999,cs),
(95,959,o),
(138,906,o),
(170,906,cs),
(237,906,o),
(329,917,o),
(426,918,c),
(399,626,o),
(251,230,o),
(251,101,cs),
(251,54,o),
(299,-1,o),
(329,-1,cs)
);
}
);
width = 803;
}
);
unicode = 84;
userData = {
com.typemytype.robofont.guides = (
{
angle = 0;
isGlobal = 0;
magnetic = 5;
x = 0;
y = 495;
},
{
angle = 0;
isGlobal = 0;
magnetic = 5;
x = 0;
y = 9;
},
{
angle = 0;
isGlobal = 0;
magnetic = 5;
x = 0;
y = 691;
},
{
angle = 0;
isGlobal = 0;
magnetic = 5;
x = 0;
y = 649;
},
{
angle = 90;
isGlobal = 0;
magnetic = 5;
x = 279;
y = 0;
},
{
angle = 90;
isGlobal = 0;
magnetic = 5;
x = 324;
y = 0;
},
{
angle = 90;
isGlobal = 0;
magnetic = 5;
x = 59;
y = 0;
},
{
angle = 90;
isGlobal = 0;
magnetic = 5;
x = 544;
y = 0;
}
);
};
},
{
color = 5;
glyphname = U;
kernLeft = U;
kernRight = U;
layers = (
{
anchors = (
{
name = bottom;
pos = (407,0);
},
{
name = ogonek;
pos = (452,93);
},
{
name = top;
pos = (542,1050);
},
{
name = topright;
pos = (872,1050);
}
);
layerId = "FF2DC345-5101-49B6-97F3-57A040F7C387";
shapes = (
{
closed = 1;
nodes = (
(693,-13,o),
(854,497,o),
(854,864,cs),
(854,972,o),
(775,1049,o),
(729,1049,cs),
(711,1049,o),
(702,1038,o),
(702,1017,cs),
(702,962,o),
(716,915,o),
(716,813,cs),
(716,558,o),
(570,114,o),
(372,114,cs),
(306,114,o),
(260,191,o),
(260,304,cs),
(260,447,o),
(381,815,o),
(381,916,cs),
(381,987,o),
(317,1049,o),
(287,1049,cs),
(258,1049,o),
(254,1038,o),
(254,1004,cs),
(254,815,o),
(128,519,o),
(128,288,cs),
(128,130,o),
(236,-13,o),
(362,-13,cs)
);
}
);
width = 897;
}
);
unicode = 85;
userData = {
com.typemytype.robofont.guides = (
{
angle = 0;
isGlobal = 0;
magnetic = 5;
x = 0;
y = 267;
},
{
angle = 90;
isGlobal = 0;
magnetic = 5;
x = 333;
y = 0;
},
{
angle = 90;
isGlobal = 0;
magnetic = 5;
x = 535;
y = 0;
},
{
angle = 90;
isGlobal = 0;
magnetic = 5;
x = 580;
y = 0;
},
{
angle = 90;
isGlobal = 0;
magnetic = 5;
x = 84;
y = 0;
},
{
angle = 90;
isGlobal = 0;
magnetic = 5;
x = 129;
y = 0;
}
);
};
},
{
color = 5;
glyphname = Uogonek;
layers = (
{
layerId = "FF2DC345-5101-49B6-97F3-57A040F7C387";
shapes = (
{
closed = 1;
nodes = (
(422,-340,o),
(452,-325,o),
(452,-286,cs),
(452,-265,o),
(437,-237,o),
(417,-237,cs),
(405,-237,o),
(393,-241,o),
(381,-243,cs),
(317,-253,o),
(266,-192,o),
(266,-144,cs),
(266,-69,o),
(318,-13,o),
(369,-13,cs),
(711,-13,o),
(854,527,o),
(854,864,cs),
(854,972,o),
(776,1049,o),
(729,1049,cs),
(711,1049,o),
(702,1038,o),
(702,1017,cs),
(702,962,o),
(716,915,o),
(716,813,cs),
(716,558,o),
(570,114,o),
(372,114,cs),
(306,114,o),
(260,191,o),
(260,305,cs),
(260,447,o),
(381,815,o),
(381,917,cs),
(381,987,o),
(317,1049,o),
(288,1049,cs),
(258,1049,o),
(254,1038,o),
(254,1004,cs),
(254,815,o),
(128,519,o),
(128,288,cs),
(128,170,o),
(188,60,o),
(272,12,c),
(212,-15,o),
(180,-66,o),
(180,-144,cs),
(180,-255,o),
(257,-340,o),
(390,-340,cs)
);
}
);
width = 897;
}
);
unicode = 370;
},
{
color = 5;
glyphname = V;
layers = (
{
anchors = (
{
name = bottom;
pos = (491,0);
},
{
name = top;
pos = (491,1050);
}
);
hints = (
{
horizontal = 1;
place = (0, 0);
type = Tag;
}
);
layerId = "FF2DC345-5101-49B6-97F3-57A040F7C387";
shapes = (
{
closed = 1;
nodes = (
(386,-10,o),
(417,15,o),
(444,81,cs),
(626,515,o),
(890,935,o),
(890,988,cs),
(890,1020,o),
(849,1047,o),
(818,1047,cs),
(786,1047,o),
(645,899,o),
(371,191,c),
(341,305,o),
(261,903,o),
(246,933,cs),
(215,998,o),
(171,1047,o),
(129,1047,cs),
(113,1047,o),
(104,1032,o),
(104,1001,cs),
(104,887,o),
(227,219,o),
(281,86,cs),
(300,36,o),
(341,-10,o),
(365,-10,cs)
);
}
);
width = 798;
}
);
unicode = 86;
userData = {
com.typemytype.robofont.guides = (
{
angle = 0;
isGlobal = 0;
magnetic = 5;
x = 0;
y = 24;
}
);
};
},
{
color = 5;
glyphname = W;
kernLeft = W;
kernRight = W;
layers = (
{
anchors = (
{
name = bottom;
pos = (600,0);
},
{
name = top;
pos = (600,1050);
}
);
layerId = "FF2DC345-5101-49B6-97F3-57A040F7C387";
shapes = (
{
closed = 1;
nodes = (
(282,-1,o),
(516,357,o),
(558,416,c),
(569,257,o),
(594,0,o),
(758,0,cs),
(939,0,o),
(1103,276,o),
(1103,558,cs),
(1103,840,o),
(981,1049,o),
(747,1049,cs),
(699,1049,o),
(675,1034,o),
(675,1005,cs),
(675,971,o),
(729,911,o),
(796,911,cs),
(912,911,o),
(969,711,o),
(969,576,cs),
(969,356,o),
(873,140,o),
(761,140,cs),
(711,140,o),
(682,252,o),
(672,365,cs),
(659,515,o),
(636,590,o),
(602,590,cs),
(536,590,o),
(353,378,o),
(231,173,c),
(239,281,o),
(344,896,o),
(344,937,cs),
(344,981,o),
(266,1047,o),
(222,1047,cs),
(200,1047,o),
(189,1029,o),
(189,992,cs),
(189,681,o),
(108,333,o),
(108,136,cs),
(108,56,o),
(163,-1,o),
(195,-1,cs)
);
}
);
width = 1173;
}
);
unicode = 87;
userData = {
com.typemytype.robofont.guides = (
{
angle = 0;
isGlobal = 0;
magnetic = 5;
x = 0;
y = 545;
},
{
angle = 0;
isGlobal = 0;
magnetic = 5;
x = 0;
y = 670;
},
{
angle = 0;
isGlobal = 0;
magnetic = 5;
x = 0;
y = 24;
}
);
};
},
{
color = 5;
glyphname = X;
layers = (
{
anchors = (
{
name = bottom;
pos = (461,0);
},
{
name = top;
pos = (491,1050);
}
);
hints = (
{
horizontal = 1;
place = (0, 0);
type = Tag;
}
);
layerId = "FF2DC345-5101-49B6-97F3-57A040F7C387";
shapes = (
{
closed = 1;
nodes = (
(779,-1,o),
(798,17,o),
(798,48,cs),
(798,113,o),
(658,285,o),
(537,483,c),
(717,715,o),
(825,849,o),
(863,885,cs),
(904,927,o),
(939,932,o),
(939,964,cs),
(939,984,o),
(885,1043,o),
(861,1043,cs),
(833,1043,o),
(796,1017,o),
(749,968,cs),
(703,918,o),
(609,795,o),
(468,600,c),
(378,759,o),
(333,885,o),
(333,977,cs),
(333,1014,o),
(263,1049,o),
(204,1049,cs),
(191,1049,o),
(183,1035,o),
(183,1008,cs),
(183,905,o),
(251,732,o),
(386,489,c),
(258,323,o),
(155,196,o),
(74,108,cs),
(45,79,o),
(38,71,o),
(38,51,cs),
(38,30,o),
(83,0,o),
(108,0,cs),
(165,0,o),
(225,83,o),
(260,124,cs),
(279,146,o),
(399,305,o),
(452,374,c),
(516,267,o),
(578,177,o),
(635,106,cs),
(693,34,o),
(734,-1,o),
(759,-1,cs)
);
}
);
width = 936;
}
);
unicode = 88;
userData = {
com.typemytype.robofont.guides = (
{
angle = 0;
isGlobal = 0;
magnetic = 5;
x = 0;
y = 350;
},
{
angle = 90;
isGlobal = 0;
magnetic = 5;
x = 28;
y = 0;
},
{
angle = 90;
isGlobal = 0;
magnetic = 5;
x = 580;
y = 0;
}
);
};
},
{
color = 5;
glyphname = Y;
kernLeft = Y;
kernRight = Y;
layers = (
{
anchors = (
{
name = bottom;
pos = (485,0);
},
{
name = top;
pos = (485,1050);
},
{
name = topleft;
pos = (30,1050);
}
);
layerId = "FF2DC345-5101-49B6-97F3-57A040F7C387";
shapes = (
{
closed = 1;
nodes = (
(347,-16,o),
(383,18,o),
(423,96,cs),
(542,323,o),
(705,597,o),
(854,842,cs),
(891,905,o),
(911,944,o),
(911,974,cs),
(911,1007,o),
(884,1044,o),
(840,1044,cs),
(759,1044,o),
(560,530,o),
(486,530,cs),
(416,530,o),
(311,701,o),
(272,864,cs),
(236,1014,o),
(224,1044,o),
(198,1044,cs),
(159,1044,o),
(138,1004,o),
(138,968,cs),
(138,741,o),
(254,464,o),
(453,413,c),
(441,390,o),
(353,215,o),
(327,165,cs),
(299,108,o),
(285,66,o),
(285,38,cs),
(285,2,o),
(296,-16,o),
(318,-16,cs)
);
}
);
width = 863;
}
);
unicode = 89;
userData = {
com.typemytype.robofont.guides = (
{
angle = 90;
isGlobal = 0;
magnetic = 5;
x = 310;
y = 0;
}
);
};
},
{
color = 5;
glyphname = Z;
kernLeft = Z;
kernRight = Z;
layers = (
{
anchors = (
{
name = bottom;
pos = (452,0);
},
{
name = center;
pos = (452,525);
},
{
name = top;
pos = (557,1050);
}
);
layerId = "FF2DC345-5101-49B6-97F3-57A040F7C387";
shapes = (
{
closed = 1;
nodes = (
(578,0,o),
(806,110,o),
(806,144,cs),
(806,168,o),
(788,180,o),
(753,180,cs),
(707,180,o),
(402,131,o),
(275,131,cs),
(251,131,o),
(236,146,o),
(236,170,cs),
(236,213,o),
(443,369,o),
(629,533,cs),
(748,638,o),
(843,756,o),
(843,821,cs),
(843,879,o),
(795,933,o),
(755,962,cs),
(696,1004,o),
(540,1035,o),
(407,1035,cs),
(353,1035,o),
(186,1023,o),
(186,980,cs),
(186,942,o),
(239,882,o),
(282,882,cs),
(306,882,o),
(407,905,o),
(506,905,cs),
(614,905,o),
(719,882,o),
(719,839,cs),
(719,795,o),
(644,713,o),
(495,590,cs),
(402,512,o),
(89,275,o),
(89,155,cs),
(89,89,o),
(164,0,o),
(240,0,cs)
);
}
);
width = 930;
}
);
unicode = 90;
userData = {
com.typemytype.robofont.guides = (
{
angle = 0;
isGlobal = 0;
magnetic = 5;
x = 0;
y = 51;
},
{
angle = 0;
isGlobal = 0;
magnetic = 5;
x = 0;
y = 9;
},
{
angle = 0;
isGlobal = 0;
magnetic = 5;
x = 0;
y = 691;
},
{
angle = 0;
isGlobal = 0;
magnetic = 5;
x = 0;
y = 649;
},
{
angle = 90;
isGlobal = 0;
magnetic = 5;
x = 189;
y = 0;
},
{
angle = 90;
isGlobal = 0;
magnetic = 5;
x = 815;
y = 0;
},
{
angle = 90;
isGlobal = 0;
magnetic = 5;
x = 732;
y = 0;
},
{
angle = 90;
isGlobal = 0;
magnetic = 5;
x = "-431";
y = 0;
},
{
angle = 90;
isGlobal = 0;
magnetic = 5;
x = 74;
y = 0;
},
{
angle = 90;
isGlobal = 0;
magnetic = 5;
x = 541;
y = 0;
}
);
};
},
{
color = 5;
glyphname = a;
kernLeft = a;
kernRight = a;
layers = (
{
anchors = (
{
name = bottom;
pos = (354,0);
},
{
name = top;
pos = (465,735);
}
);
hints = (
{
horizontal = 1;
place = (0, 0);
type = Tag;
},
{
horizontal = 1;
place = (0, 0);
type = Tag;
}
);
layerId = "FF2DC345-5101-49B6-97F3-57A040F7C387";
shapes = (
{
closed = 1;
nodes = (
(290,-7,o),
(372,49,o),
(461,162,c),
(462,113,o),
(476,-7,o),
(525,-7,cs),
(539,-7,o),
(549,6,o),
(552,30,cs),
(576,204,o),
(608,320,o),
(608,395,cs),
(608,405,o),
(602,419,o),
(590,434,c),
(617,474,o),
(627,512,o),
(627,549,cs),
(627,587,o),
(606,626,o),
(570,668,cs),
(532,714,o),
(491,737,o),
(446,737,cs),
(279,737,o),
(11,396,o),
(11,174,cs),
(11,90,o),
(122,-7,o),
(213,-7,cs)
);
},
{
closed = 1;
nodes = (
(170,117,o),
(137,140,o),
(137,174,cs),
(137,305,o),
(336,612,o),
(459,612,cs),
(497,612,o),
(515,566,o),
(515,473,c),
(501,468,o),
(492,459,o),
(489,444,cs),
(443,262,o),
(302,117,o),
(207,117,cs)
);
}
);
width = 704;
}
);
unicode = 97;
},
{
color = 5;
glyphname = aogonek;
layers = (
{
anchors = (
{
name = bottom;
pos = (354,0);
},
{
name = top;
pos = (465,735);
}
);
hints = (
{
horizontal = 1;
origin = (0,23);
type = Tag;
},
{
horizontal = 1;
origin = (0,29);
type = Tag;
},
{
horizontal = 1;
place = (0, 0);
type = Tag;
},
{
horizontal = 1;
place = (0, 0);
type = Tag;
}
);
layerId = "FF2DC345-5101-49B6-97F3-57A040F7C387";
shapes = (
{
closed = 1;
nodes = (
(290,-7,o),
(372,50,o),
(461,162,c),
(462,137,o),
(465,90,o),
(477,53,c),
(398,32,o),
(275,-51,o),
(275,-189,cs),
(275,-274,o),
(336,-330,o),
(485,-330,cs),
(531,-330,o),
(561,-315,o),
(561,-274,cs),
(561,-240,o),
(536,-226,o),
(522,-226,cs),
(509,-226,o),
(489,-241,o),
(476,-241,cs),
(396,-241,o),
(369,-211,o),
(369,-174,cs),
(369,-90,o),
(426,-12,o),
(512,-12,cs),
(534,-12,o),
(549,5,o),
(552,30,cs),
(576,204,o),
(608,320,o),
(608,395,cs),
(608,405,o),
(602,419,o),
(590,434,c),
(617,474,o),
(627,512,o),
(627,549,cs),
(627,587,o),
(606,626,o),
(570,669,cs),
(533,714,o),
(491,737,o),
(446,737,cs),
(279,737,o),
(11,396,o),
(11,174,cs),
(11,90,o),
(122,-7,o),
(213,-7,cs)
);
},
{
closed = 1;
nodes = (
(137,305,o),
(336,612,o),
(459,612,cs),
(497,612,o),
(515,566,o),
(515,473,c),
(501,468,o),
(492,459,o),
(489,444,cs),
(443,263,o),
(302,117,o),
(207,117,cs),
(170,117,o),
(137,140,o),
(137,174,cs)
);
}
);
width = 704;
}
);
unicode = 261;
},
{
color = 5;
glyphname = ae;
kernLeft = a;
kernRight = e;
layers = (
{
anchors = (
{
name = bottom;
pos = (474,0);
},
{
name = top;
pos = (672,780);
}
);
hints = (
{
horizontal = 1;
place = (0, 0);
type = Tag;
},
{
horizontal = 1;
place = (0, 0);
type = Tag;
},
{
horizontal = 1;
place = (0, 0);
type = Tag;
}
);
layerId = "FF2DC345-5101-49B6-97F3-57A040F7C387";
shapes = (
{
closed = 1;
nodes = (
(324,-7,o),
(399,59,o),
(491,183,c),
(512,74,o),
(611,-7,o),
(738,-7,cs),
(857,-7,o),
(1016,71,o),
(1016,128,cs),
(1016,147,o),
(1002,158,o),
(977,158,cs),
(953,158,o),
(851,105,o),
(737,105,cs),
(635,105,o),
(599,146,o),
(599,224,cs),
(599,252,o),
(606,291,o),
(620,332,c),
(687,317,o),
(755,308,o),
(816,308,cs),
(938,308,o),
(1098,366,o),
(1098,488,cs),
(1098,596,o),
(983,737,o),
(863,737,cs),
(789,737,o),
(714,695,o),
(641,612,c),
(609,682,o),
(542,737,o),
(471,737,cs),
(269,737,o),
(44,372,o),
(44,177,cs),
(44,89,o),
(150,-7,o),
(236,-7,cs)
);
},
{
closed = 1;
nodes = (
(198,117,o),
(167,140,o),
(167,174,cs),
(167,306,o),
(354,612,o),
(483,612,cs),
(525,612,o),
(549,569,o),
(552,488,c),
(471,270,o),
(335,117,o),
(230,117,cs)
);
},
{
closed = 1;
nodes = (
(744,404,o),
(698,408,o),
(656,417,c),
(711,531,o),
(801,618,o),
(863,618,cs),
(924,618,o),
(983,549,o),
(983,494,cs),
(983,440,o),
(894,404,o),
(794,404,cs)
);
}
);
width = 1115;
}
);
unicode = 230;
userData = {
com.typemytype.robofont.guides = (
{
angle = 0;
isGlobal = 0;
magnetic = 5;
x = 0;
y = "-10";
},
{
angle = 0;
isGlobal = 0;
magnetic = 5;
x = 0;
y = 530;
},
{
angle = 90;
isGlobal = 0;
magnetic = 5;
x = 473;
y = 0;
},
{
angle = 90;
isGlobal = 0;
magnetic = 5;
x = "-379";
y = 0;
},
{
angle = 90;
isGlobal = 0;
magnetic = 5;
x = 453;
y = 0;
}
);
};
},
{
color = 5;
glyphname = b;
kernLeft = h;
kernRight = b;
layers = (
{
anchors = (
{
name = bottom;
pos = (447,0);
},
{
name = top;
pos = (447,1125);
}
);
hints = (
{
horizontal = 1;
place = (0, 0);
type = Tag;
},
{
horizontal = 1;
place = (0, 0);
type = Tag;
}
);
layerId = "FF2DC345-5101-49B6-97F3-57A040F7C387";
shapes = (
{
closed = 1;
nodes = (
(122,-7,o),
(137,26,o),
(161,95,c),
(227,26,o),
(297,-7,o),
(368,-7,cs),
(587,-9,o),
(758,317,o),
(759,506,cs),
(761,615,o),
(699,741,o),
(591,741,cs),
(494,741,o),
(386,660,o),
(267,500,c),
(321,728,o),
(348,903,o),
(348,1026,cs),
(348,1082,o),
(287,1157,o),
(255,1157,cs),
(233,1157,o),
(222,1142,o),
(222,1112,cs),
(222,717,o),
(33,135,o),
(33,86,cs),
(33,48,o),
(83,-7,o),
(111,-7,cs)
);
},
{
closed = 1;
nodes = (
(297,108,o),
(248,138,o),
(201,198,c),
(305,422,o),
(465,609,o),
(581,609,cs),
(617,609,o),
(635,579,o),
(635,521,cs),
(635,324,o),
(480,108,o),
(350,108,cs)
);
}
);
width = 788;
}
);
unicode = 98;
userData = {
com.typemytype.robofont.guides = (
{
angle = 0;
isGlobal = 0;
magnetic = 5;
x = 0;
y = 530;
},
{
angle = 0;
isGlobal = 0;
magnetic = 5;
x = 0;
y = "-10";
},
{
angle = 0;
isGlobal = 0;
magnetic = 5;
x = 0;
y = 710;
},
{
angle = 0;
isGlobal = 0;
magnetic = 5;
x = 0;
y = 288;
},
{
angle = 0;
isGlobal = 0;
magnetic = 5;
x = 0;
y = 232;
},
{
angle = 0;
isGlobal = 0;
magnetic = 5;
x = 0;
y = 451;
},
{
angle = 0;
isGlobal = 0;
magnetic = 5;
x = 0;
y = 69;
},
{
angle = 90;
isGlobal = 0;
magnetic = 5;
x = 121;
y = 0;
},
{
angle = 90;
isGlobal = 0;
magnetic = 5;
x = 79;
y = 0;
}
);
};
},
{
color = 5;
glyphname = c;
kernLeft = o;
kernRight = c;
layers = (
{
anchors = (
{
name = bottom;
pos = (414,0);
},
{
name = top;
pos = (419,780);
}
);
hints = (
{
horizontal = 1;
place = (0, 0);
type = Tag;
},
{
horizontal = 1;
place = (0, 0);
type = Tag;
}
);
layerId = "FF2DC345-5101-49B6-97F3-57A040F7C387";
shapes = (
{
closed = 1;
nodes = (
(406,-7,o),
(585,93,o),
(585,152,cs),
(585,171,o),
(576,180,o),
(557,180,cs),
(518,180,o),
(450,117,o),
(305,117,cs),
(219,117,o),
(182,156,o),
(182,218,cs),
(182,360,o),
(371,609,o),
(479,609,cs),
(531,609,o),
(561,555,o),
(593,555,cs),
(609,555,o),
(623,563,o),
(623,584,cs),
(623,639,o),
(550,737,o),
(468,737,cs),
(267,737,o),
(48,417,o),
(48,223,cs),
(48,98,o),
(172,-7,o),
(289,-7,cs)
);
}
);
width = 668;
}
);
unicode = 99;
userData = {
com.typemytype.robofont.guides = (
{
angle = 0;
isGlobal = 0;
magnetic = 5;
x = 0;
y = "-10";
},
{
angle = 0;
isGlobal = 0;
magnetic = 5;
x = 0;
y = 295;
},
{
angle = 0;
isGlobal = 0;
magnetic = 5;
x = 0;
y = 225;
},
{
angle = 90;
isGlobal = 0;
magnetic = 5;
x = 445;
y = 0;
},
{
angle = 90;
isGlobal = 0;
magnetic = 5;
x = 484;
y = 0;
},
{
angle = 90;
isGlobal = 0;
magnetic = 5;
x = 137;
y = 0;
},
{
angle = 90;
isGlobal = 0;
magnetic = 5;
x = 270;
y = 0;
}
);
};
},
{
color = 5;
glyphname = ccedilla;
kernLeft = o;
kernRight = c;
layers = (
{
hints = (
{
horizontal = 1;
place = (0, 0);
type = Tag;
},
{
horizontal = 1;
place = (0, 0);
type = Tag;
}
);
layerId = "FF2DC345-5101-49B6-97F3-57A040F7C387";
shapes = (
{
closed = 1;
nodes = (
(258,-312,o),
(408,-253,o),
(408,-165,cs),
(408,-123,o),
(336,-79,o),
(264,-79,c),
(277,-58,o),
(289,-34,o),
(300,-7,c),
(416,-1,o),
(585,96,o),
(585,152,cs),
(585,171,o),
(576,180,o),
(557,180,cs),
(527,180,o),
(432,117,o),
(305,117,cs),
(219,117,o),
(182,156,o),
(182,218,cs),
(182,360,o),
(365,609,o),
(479,609,cs),
(531,609,o),
(561,555,o),
(594,555,cs),
(609,555,o),
(623,566,o),
(623,584,cs),
(623,639,o),
(551,737,o),
(468,737,cs),
(270,737,o),
(48,423,o),
(48,215,cs),
(48,129,o),
(117,47,o),
(206,11,c),
(201,-1,o),
(149,-108,o),
(149,-129,cs),
(149,-156,o),
(281,-166,o),
(281,-184,cs),
(281,-196,o),
(236,-220,o),
(174,-232,cs),
(87,-250,o),
(60,-253,o),
(60,-276,cs),
(60,-295,o),
(87,-312,o),
(128,-312,cs)
);
}
);
width = 671;
}
);
unicode = 231;
},
{
color = 5;
glyphname = d;
kernLeft = d;
kernRight = d;
layers = (
{
anchors = (
{
name = bottom;
pos = (447,0);
},
{
name = center;
pos = (350,921);
},
{
name = top;
pos = (402,1125);
},
{
name = topright;
pos = (834,1080);
}
);
hints = (
{
horizontal = 1;
place = (0, 0);
type = Tag;
},
{
horizontal = 1;
place = (0, 0);
type = Tag;
}
);
layerId = "FF2DC345-5101-49B6-97F3-57A040F7C387";
shapes = (
{
closed = 1;
nodes = (
(273,-7,o),
(358,42,o),
(456,143,c),
(452,116,o),
(446,92,o),
(446,78,cs),
(446,50,o),
(456,33,o),
(471,20,cs),
(488,2,o),
(503,-7,o),
(516,-7,cs),
(573,-7,o),
(783,944,o),
(783,1029,cs),
(783,1081,o),
(720,1157,o),
(689,1157,cs),
(666,1157,o),
(657,1142,o),
(656,1112,cs),
(651,989,o),
(623,821,o),
(572,609,c),
(543,694,o),
(494,737,o),
(423,737,cs),
(213,737,o),
(27,384,o),
(27,177,cs),
(27,91,o),
(111,-7,o),
(200,-7,cs)
);
},
{
closed = 1;
nodes = (
(180,113,o),
(150,137,o),
(150,173,cs),
(150,366,o),
(303,612,o),
(429,612,cs),
(482,612,o),
(524,534,o),
(524,410,c),
(471,252,o),
(294,113,o),
(216,113,cs)
);
}
);
width = 749;
}
);
unicode = 100;
userData = {
com.typemytype.robofont.guides = (
{
angle = 0;
isGlobal = 0;
magnetic = 5;
x = 0;
y = 650;
},
{
angle = 0;
isGlobal = 0;
magnetic = 5;
x = 0;
y = 530;
},
{
angle = 90;
isGlobal = 0;
magnetic = 5;
x = 438;
y = 0;
},
{
angle = 90;
isGlobal = 0;
magnetic = 5;
x = 499;
y = 0;
}
);
};
},
{
color = 5;
glyphname = eth;
layers = (
{
hints = (
{
horizontal = 1;
place = (0, 0);
type = Tag;
}
);
layerId = "FF2DC345-5101-49B6-97F3-57A040F7C387";
shapes = (
{
closed = 1;
nodes = (
(480,-7,o),
(636,326,o),
(636,564,cs),
(636,657,o),
(617,749,o),
(576,834,c),
(661,874,o),
(704,903,o),
(704,923,cs),
(704,939,o),
(692,947,o),
(669,947,cs),
(653,947,o),
(614,932,o),
(537,902,c),
(476,993,o),
(408,1040,o),
(335,1040,cs),
(281,1040,o),
(219,990,o),
(219,946,cs),
(219,924,o),
(228,912,o),
(246,912,cs),
(269,912,o),
(302,935,o),
(321,935,cs),
(353,935,o),
(386,909,o),
(422,857,c),
(350,831,o),
(261,804,o),
(261,764,cs),
(261,746,o),
(278,737,o),
(309,737,cs),
(332,737,o),
(380,753,o),
(461,785,c),
(482,734,o),
(494,678,o),
(498,618,c),
(461,653,o),
(423,671,o),
(386,671,cs),
(204,671,o),
(47,470,o),
(47,236,cs),
(47,92,o),
(131,-7,o),
(233,-7,cs)
);
},
{
closed = 1;
nodes = (
(207,99,o),
(179,162,o),
(179,224,cs),
(179,422,o),
(302,573,o),
(411,573,cs),
(440,573,o),
(470,555,o),
(500,518,c),
(486,321,o),
(351,99,o),
(243,99,cs)
);
}
);
width = 678;
}
);
unicode = 240;
userData = {
com.typemytype.robofont.guides = (
{
angle = 0;
isGlobal = 0;
magnetic = 5;
x = 0;
y = 512;
},
{
angle = 90;
isGlobal = 0;
magnetic = 5;
x = 214;
y = 0;
},
{
angle = 90;
isGlobal = 0;
magnetic = 5;
x = 484;
y = 0;
}
);
};
},
{
color = 5;
glyphname = dcroat;
layers = (
{
anchors = (
{
name = bottom;
pos = (447,0);
},
{
name = top;
pos = (432,1125);
},
{
name = topright;
pos = (833,1080);
}
);
hints = (
{
horizontal = 1;
place = (0, 0);
type = Tag;
},
{
horizontal = 1;
place = (0, 0);
type = Tag;
}
);
layerId = "FF2DC345-5101-49B6-97F3-57A040F7C387";
shapes = (
{
closed = 1;
nodes = (
(273,-7,o),
(359,42,o),
(456,143,c),
(452,116,o),
(446,92,o),
(446,78,cs),
(446,50,o),
(456,33,o),
(471,20,cs),
(488,2,o),
(503,-7,o),
(516,-7,cs),
(560,-7,o),
(692,543,o),
(752,843,c),
(822,849,o),
(845,863,o),
(845,885,cs),
(845,906,o),
(825,920,o),
(768,927,c),
(777,978,o),
(783,1016,o),
(783,1029,cs),
(783,1082,o),
(720,1157,o),
(689,1157,cs),
(666,1157,o),
(657,1142,o),
(656,1112,cs),
(654,1061,o),
(648,1001,o),
(638,933,c),
(636,933,ls),
(473,933,o),
(429,918,o),
(429,887,cs),
(429,854,o),
(470,840,o),
(621,840,c),
(609,770,o),
(591,693,o),
(572,609,c),
(543,695,o),
(494,737,o),
(423,737,cs),
(213,737,o),
(27,384,o),
(27,177,cs),
(27,92,o),
(111,-7,o),
(200,-7,cs)
);
},
{
closed = 1;
nodes = (
(150,366,o),
(303,612,o),
(429,612,cs),
(482,612,o),
(524,534,o),
(524,410,c),
(471,252,o),
(294,113,o),
(216,113,cs),
(180,113,o),
(150,137,o),
(150,173,cs)
);
}
);
width = 830;
}
);
unicode = 273;
},
{
color = 5;
glyphname = e;
kernLeft = o;
kernRight = e;
layers = (
{
anchors = (
{
name = bottom;
pos = (420,0);
},
{
name = top;
pos = (437,735);
}
);
hints = (
{
horizontal = 1;
place = (0, 0);
type = Tag;
}
);
layerId = "FF2DC345-5101-49B6-97F3-57A040F7C387";
shapes = (
{
closed = 1;
nodes = (
(408,-7,o),
(563,74,o),
(563,128,cs),
(563,147,o),
(549,158,o),
(524,158,cs),
(504,158,o),
(395,105,o),
(284,105,cs),
(186,105,o),
(146,146,o),
(146,214,cs),
(146,249,o),
(153,288,o),
(167,332,c),
(225,315,o),
(284,308,o),
(350,308,cs),
(471,308,o),
(645,357,o),
(645,488,cs),
(645,595,o),
(529,737,o),
(411,737,cs),
(213,737,o),
(29,437,o),
(29,239,cs),
(29,96,o),
(137,-7,o),
(293,-7,cs)
);
},
{
closed = 1;
nodes = (
(287,404,o),
(241,408,o),
(201,417,c),
(257,531,o),
(345,618,o),
(419,618,cs),
(467,618,o),
(528,548,o),
(528,494,cs),
(528,440,o),
(440,404,o),
(338,404,cs)
);
}
);
width = 675;
}
);
unicode = 101;
userData = {
com.typemytype.robofont.guides = (
{
angle = 0;
isGlobal = 0;
magnetic = 5;
x = 0;
y = "-10";
},
{
angle = 90;
isGlobal = 0;
magnetic = 5;
x = 275;
y = 0;
},
{
angle = 90;
isGlobal = 0;
magnetic = 5;
x = 496;
y = 0;
},
{
angle = 90;
isGlobal = 0;
magnetic = 5;
x = 61;
y = 0;
},
{
angle = 90;
isGlobal = 0;
magnetic = 5;
x = 122;
y = 0;
},
{
angle = 90;
isGlobal = 0;
magnetic = 5;
x = 430;
y = 0;
}
);
};
},
{
color = 5;
glyphname = eogonek;
layers = (
{
anchors = (
{
name = bottom;
pos = (420,0);
},
{
name = top;
pos = (437,735);
}
);
hints = (
{
horizontal = 1;
origin = (1,20);
type = Tag;
},
{
horizontal = 1;
origin = (1,32);
type = Tag;
},
{
horizontal = 1;
place = (0, 0);
type = Tag;
}
);
layerId = "FF2DC345-5101-49B6-97F3-57A040F7C387";
shapes = (
{
closed = 1;
nodes = (
(287,404,o),
(242,408,o),
(201,417,c),
(257,531,o),
(345,618,o),
(419,618,cs),
(467,618,o),
(528,548,o),
(528,494,cs),
(528,440,o),
(440,404,o),
(338,404,cs)
);
},
{
closed = 1;
nodes = (
(29,98,o),
(134,-6,o),
(288,-7,c),
(254,-45,o),
(231,-90,o),
(231,-138,cs),
(231,-264,o),
(308,-330,o),
(441,-330,cs),
(488,-330,o),
(522,-315,o),
(522,-270,cs),
(522,-237,o),
(503,-226,o),
(483,-226,cs),
(461,-226,o),
(455,-241,o),
(420,-241,cs),
(368,-241,o),
(326,-201,o),
(326,-138,cs),
(326,-54,o),
(381,6,o),
(447,32,cs),
(515,57,o),
(563,92,o),
(563,128,cs),
(563,147,o),
(549,158,o),
(524,158,cs),
(504,158,o),
(395,105,o),
(285,105,cs),
(186,105,o),
(146,146,o),
(146,215,cs),
(146,249,o),
(153,288,o),
(167,332,c),
(225,315,o),
(284,308,o),
(350,308,cs),
(471,308,o),
(645,357,o),
(645,489,cs),
(645,596,o),
(530,737,o),
(411,737,cs),
(213,737,o),
(29,437,o),
(29,239,cs)
);
}
);
width = 675;
}
);
unicode = 281;
},
{
color = 5;
glyphname = f;
kernLeft = f;
kernRight = f;
layers = (
{
anchors = (
{
name = bottom;
pos = (288,0);
},
{
name = top;
pos = (288,1077);
}
);
hints = (
{
horizontal = 1;
place = (0, 0);
type = Tag;
}
);
layerId = "FF2DC345-5101-49B6-97F3-57A040F7C387";
shapes = (
{
closed = 1;
nodes = (
(165,-10,o),
(178,4,o),
(192,33,cs),
(218,88,o),
(267,260,o),
(338,548,c),
(552,578,o),
(581,603,o),
(581,630,cs),
(581,657,o),
(542,672,o),
(486,672,cs),
(452,672,o),
(410,671,o),
(366,665,c),
(429,990,o),
(480,1029,o),
(519,1029,cs),
(551,1029,o),
(579,999,o),
(591,948,cs),
(606,894,o),
(626,867,o),
(650,867,cs),
(680,867,o),
(693,900,o),
(693,939,cs),
(693,1046,o),
(629,1146,o),
(521,1146,cs),
(375,1146,o),
(296,1037,o),
(234,645,c),
(107,621,o),
(47,602,o),
(47,572,cs),
(47,548,o),
(78,506,o),
(120,506,cs),
(141,506,o),
(168,512,o),
(207,521,c),
(155,284,o),
(90,98,o),
(90,66,cs),
(90,39,o),
(128,-10,o),
(155,-10,cs)
);
}
);
width = 564;
}
);
unicode = 102;
userData = {
com.typemytype.robofont.guides = (
{
angle = 0;
isGlobal = 0;
magnetic = 5;
x = 0;
y = 345;
},
{
angle = 0;
isGlobal = 0;
magnetic = 5;
x = 0;
y = 9;
},
{
angle = 0;
isGlobal = 0;
magnetic = 5;
x = 0;
y = 740;
},
{
angle = 90;
isGlobal = 0;
magnetic = 5;
x = 297;
y = 0;
},
{
angle = 90;
isGlobal = 0;
magnetic = 5;
x = 371;
y = 0;
}
);
};
},
{
color = 5;
glyphname = g;
kernLeft = g;
kernRight = u;
layers = (
{
anchors = (
{
name = bottom;
pos = (449,-337);
},
{
name = top;
pos = (491,735);
}
);
hints = (
{
horizontal = 1;
place = (0, 0);
type = Tag;
},
{
horizontal = 1;
place = (0, 0);
type = Tag;
},
{
horizontal = 1;
place = (0, 0);
type = Tag;
}
);
layerId = "FF2DC345-5101-49B6-97F3-57A040F7C387";
shapes = (
{
closed = 1;
nodes = (
(368,-400,o),
(422,-304,o),
(501,-2,cs),
(569,254,o),
(641,357,o),
(641,398,cs),
(641,413,o),
(635,430,o),
(623,447,c),
(624,453,o),
(626,462,o),
(626,474,cs),
(626,594,o),
(572,737,o),
(452,737,cs),
(249,737,o),
(36,357,o),
(36,190,cs),
(36,85,o),
(120,-7,o),
(218,-7,cs),
(267,-7,o),
(330,21,o),
(408,80,c),
(381,-16,o),
(344,-298,o),
(215,-298,cs),
(119,-298,o),
(59,-156,o),
(22,-156,cs),
(2,-156,o),
(-22,-196,o),
(-22,-228,cs),
(-22,-304,o),
(87,-400,o),
(230,-400,cs)
);
},
{
closed = 1;
nodes = (
(182,117,o),
(158,140,o),
(158,174,cs),
(158,329,o),
(342,612,o),
(459,612,cs),
(528,612,o),
(521,468,o),
(537,414,c),
(481,256,o),
(317,117,o),
(216,117,cs)
);
}
);
width = 713;
}
);
unicode = 103;
userData = {
com.typemytype.robofont.guides = (
{
angle = 0;
isGlobal = 0;
magnetic = 5;
x = 0;
y = 530;
},
{
angle = 0;
isGlobal = 0;
magnetic = 5;
x = 0;
y = "-220";
},
{
angle = 0;
isGlobal = 0;
magnetic = 5;
x = 0;
y = 288;
},
{
angle = 0;
isGlobal = 0;
magnetic = 5;
x = 0;
y = 232;
},
{
angle = 90;
isGlobal = 0;
magnetic = 5;
x = 56;
y = 0;
},
{
angle = 90;
isGlobal = 0;
magnetic = 5;
x = 270;
y = 0;
}
);
};
},
{
color = 5;
glyphname = h;
kernLeft = h;
kernRight = n;
layers = (
{
anchors = (
{
name = bottom;
pos = (413,0);
},
{
name = center;
pos = (302,896);
},
{
name = top;
pos = (639,1013);
}
);
layerId = "FF2DC345-5101-49B6-97F3-57A040F7C387";
shapes = (
{
closed = 1;
nodes = (
(173,-7,o),
(449,566,o),
(564,566,cs),
(593,566,o),
(614,545,o),
(614,503,cs),
(614,374,o),
(498,132,o),
(498,38,cs),
(498,8,o),
(509,-7,o),
(531,-7,cs),
(636,-7,o),
(744,441,o),
(744,534,cs),
(744,624,o),
(654,737,o),
(602,737,cs),
(554,737,o),
(462,722,o),
(182,224,c),
(177,224,l),
(281,536,o),
(353,894,o),
(353,1025,cs),
(353,1080,o),
(297,1157,o),
(260,1157,cs),
(236,1157,o),
(224,1137,o),
(224,1098,cs),
(224,882,o),
(107,386,o),
(51,171,cs),
(41,131,o),
(35,107,o),
(35,86,cs),
(35,48,o),
(89,-7,o),
(113,-7,cs)
);
}
);
width = 804;
}
);
unicode = 104;
userData = {
com.typemytype.robofont.guides = (
{
angle = 0;
isGlobal = 0;
magnetic = 5;
x = 0;
y = 9;
},
{
angle = 0;
isGlobal = 0;
magnetic = 5;
x = 0;
y = 301;
},
{
angle = 0;
isGlobal = 0;
magnetic = 5;
x = 0;
y = 414;
},
{
angle = 0;
isGlobal = 0;
magnetic = 5;
x = 0;
y = 710;
},
{
angle = 90;
isGlobal = 0;
magnetic = 5;
x = 79;
y = 0;
},
{
angle = 90;
isGlobal = 0;
magnetic = 5;
x = 291;
y = 0;
}
);
};
},
{
color = 4;
glyphname = hbar;
layers = (
{
anchors = (
{
name = bottom;
pos = (413,0);
},
{
name = top;
pos = (639,1013);
}
);
layerId = "FF2DC345-5101-49B6-97F3-57A040F7C387";
shapes = (
{
closed = 1;
nodes = (
(173,-7,o),
(449,566,o),
(564,566,cs),
(593,566,o),
(614,545,o),
(614,503,cs),
(614,374,o),
(498,132,o),
(498,38,cs),
(498,8,o),
(509,-7,o),
(531,-7,cs),
(636,-7,o),
(744,441,o),
(744,534,cs),
(744,624,o),
(654,737,o),
(602,737,cs),
(554,737,o),
(462,722,o),
(182,224,c),
(177,224,l),
(251,443,o),
(308,684,o),
(335,854,c),
(470,855,o),
(510,869,o),
(510,899,cs),
(510,929,o),
(474,944,o),
(347,947,c),
(351,977,o),
(353,1004,o),
(353,1025,cs),
(353,1080,o),
(297,1157,o),
(260,1157,cs),
(236,1157,o),
(224,1137,o),
(224,1098,cs),
(224,1056,o),
(219,1004,o),
(212,945,c),
(122,939,o),
(95,924,o),
(95,900,cs),
(95,875,o),
(119,861,o),
(200,857,c),
(162,620,o),
(90,324,o),
(51,171,cs),
(41,131,o),
(35,107,o),
(35,86,cs),
(35,48,o),
(89,-7,o),
(113,-7,cs)
);
}
);
width = 804;
}
);
unicode = 295;
},
{
color = 5;
glyphname = i;
kernLeft = i;
kernRight = i;
layers = (
{
anchors = (
{
name = bottom;
pos = (182,0);
},
{
name = top;
pos = (183,1083);
}
);
hints = (
{
horizontal = 1;
place = (0, 0);
type = Tag;
}
);
layerId = "FF2DC345-5101-49B6-97F3-57A040F7C387";
shapes = (
{
closed = 1;
nodes = (
(119,-6,o),
(141,19,o),
(158,69,cs),
(241,327,o),
(311,551,o),
(311,635,cs),
(311,678,o),
(269,737,o),
(231,737,cs),
(216,737,o),
(201,712,o),
(188,663,cs),
(147,513,o),
(42,75,o),
(42,50,cs),
(42,21,o),
(65,-6,o),
(93,-6,cs)
);
},
{
closed = 1;
nodes = (
(383,833,o),
(405,852,o),
(405,872,cs),
(405,926,o),
(344,1034,o),
(311,1034,cs),
(279,1034,o),
(239,990,o),
(239,950,cs),
(239,909,o),
(315,833,o),
(363,833,cs)
);
}
);
width = 357;
}
);
unicode = 105;
userData = {
com.typemytype.robofont.guides = (
{
angle = 0;
isGlobal = 0;
magnetic = 5;
x = 0;
y = 510;
},
{
angle = 0;
isGlobal = 0;
magnetic = 5;
x = 0;
y = 22;
},
{
angle = 0;
isGlobal = 0;
magnetic = 5;
x = 0;
y = 627;
},
{
angle = 90;
isGlobal = 0;
magnetic = 5;
x = 79;
y = 0;
},
{
angle = 90;
isGlobal = 0;
magnetic = 5;
x = 121;
y = 0;
},
{
angle = 90;
isGlobal = 0;
magnetic = 5;
x = 70;
y = 0;
},
{
angle = 90;
isGlobal = 0;
magnetic = 5;
x = 131;
y = 0;
}
);
};
},
{
color = 5;
glyphname = idotless;
kernLeft = i;
kernRight = i;
layers = (
{
anchors = (
{
name = bottom;
pos = (182,0);
},
{
name = ogonek;
pos = (254,72);
},
{
name = top;
pos = (269,735);
}
);
hints = (
{
horizontal = 1;
place = (0, 0);
type = Tag;
}
);
layerId = "FF2DC345-5101-49B6-97F3-57A040F7C387";
shapes = (
{
closed = 1;
nodes = (
(119,-6,o),
(143,20,o),
(158,69,cs),
(236,329,o),
(311,551,o),
(311,635,cs),
(311,678,o),
(269,737,o),
(231,737,cs),
(216,737,o),
(201,713,o),
(188,663,cs),
(149,513,o),
(42,75,o),
(42,50,cs),
(42,21,o),
(65,-6,o),
(93,-6,cs)
);
}
);
width = 357;
}
);
unicode = 305;
},
{
color = 5;
glyphname = iogonek;
layers = (
{
hints = (
{
horizontal = 1;
place = (0, 0);
type = Tag;
}
);
layerId = "FF2DC345-5101-49B6-97F3-57A040F7C387";
shapes = (
{
closed = 1;
nodes = (
(107,-382,o),
(141,-373,o),
(141,-324,cs),
(141,-292,o),
(119,-279,o),
(98,-279,cs),
(77,-279,o),
(63,-288,o),
(41,-288,cs),
(-24,-288,o),
(-61,-234,o),
(-61,-166,cs),
(-61,-97,o),
(-24,-52,o),
(54,-52,cs),
(108,-52,o),
(137,-12,o),
(158,69,cs),
(236,329,o),
(311,551,o),
(311,635,cs),
(311,678,o),
(269,737,o),
(231,737,cs),
(216,737,o),
(201,713,o),
(188,663,cs),
(149,513,o),
(50,75,o),
(50,51,c),
(-34,33,o),
(-160,-39,o),
(-160,-166,cs),
(-160,-297,o),
(-84,-382,o),
(50,-382,cs)
);
},
{
closed = 1;
nodes = (
(326,795,o),
(365,836,o),
(365,884,cs),
(365,932,o),
(326,972,o),
(276,972,cs),
(228,972,o),
(189,932,o),
(189,884,cs),
(189,836,o),
(228,795,o),
(276,795,cs)
);
}
);
width = 357;
}
);
unicode = 303;
},
{
color = 5;
glyphname = j;
kernRight = i;
layers = (
{
anchors = (
{
name = top;
pos = (197,1083);
}
);
layerId = "FF2DC345-5101-49B6-97F3-57A040F7C387";
shapes = (
{
closed = 1;
nodes = (
(0,-397,o),
(77,-319,o),
(120,-162,cs),
(198,140,o),
(320,554,o),
(320,635,cs),
(320,684,o),
(274,737,o),
(240,737,cs),
(226,737,o),
(212,712,o),
(197,663,cs),
(114,358,o),
(76,133,o),
(9,-107,cs),
(-24,-225,o),
(-63,-294,o),
(-112,-294,cs),
(-196,-294,o),
(-238,-154,o),
(-286,-154,cs),
(-304,-154,o),
(-331,-199,o),
(-331,-226,cs),
(-331,-286,o),
(-216,-397,o),
(-114,-397,cs)
);
},
{
closed = 1;
nodes = (
(402,833,o),
(425,851,o),
(425,872,cs),
(425,926,o),
(368,1034,o),
(332,1034,cs),
(296,1034,o),
(258,992,o),
(258,950,cs),
(258,908,o),
(336,833,o),
(384,833,cs)
);
}
);
width = 381;
}
);
unicode = 106;
userData = {
com.typemytype.robofont.guides = (
{
angle = 0;
isGlobal = 0;
magnetic = 5;
x = 0;
y = 740;
},
{
angle = 0;
isGlobal = 0;
magnetic = 5;
x = 0;
y = "-190";
},
{
angle = 90;
isGlobal = 0;
magnetic = 5;
x = "-46";
y = 0;
}
);
};
},
{
color = 5;
glyphname = jdotless;
layers = (
{
anchors = (
{
name = top;
pos = (287,783);
}
);
layerId = "FF2DC345-5101-49B6-97F3-57A040F7C387";
shapes = (
{
closed = 1;
nodes = (
(0,-397,o),
(77,-319,o),
(120,-162,cs),
(198,140,o),
(320,554,o),
(320,635,cs),
(320,684,o),
(274,737,o),
(240,737,cs),
(226,737,o),
(212,712,o),
(197,663,cs),
(114,358,o),
(76,133,o),
(9,-107,cs),
(-24,-225,o),
(-63,-294,o),
(-112,-294,cs),
(-196,-294,o),
(-238,-154,o),
(-286,-154,cs),
(-304,-154,o),
(-331,-199,o),
(-331,-226,cs),
(-331,-286,o),
(-216,-397,o),
(-114,-397,cs)
);
}
);
width = 381;
}
);
unicode = 567;
},
{
color = 5;
glyphname = k;
kernLeft = h;
kernRight = k;
layers = (
{
anchors = (
{
name = bottom;
pos = (389,0);
},
{
name = top;
pos = (389,1125);
}
);
hints = (
{
horizontal = 1;
place = (0, 0);
type = Tag;
}
);
layerId = "FF2DC345-5101-49B6-97F3-57A040F7C387";
shapes = (
{
closed = 1;
nodes = (
(135,-7,o),
(159,9,o),
(189,45,cs),
(218,81,o),
(270,146,o),
(336,237,c),
(401,21,o),
(564,-7,o),
(591,-7,cs),
(630,-7,o),
(650,5,o),
(650,30,cs),
(650,66,o),
(530,107,o),
(477,183,cs),
(453,216,o),
(444,251,o),
(444,290,cs),
(444,435,o),
(710,617,o),
(710,665,cs),
(710,687,o),
(666,737,o),
(627,737,cs),
(570,737,o),
(293,357,o),
(180,197,c),
(281,485,o),
(363,848,o),
(363,1026,cs),
(363,1082,o),
(305,1157,o),
(275,1157,cs),
(245,1157,o),
(239,1146,o),
(239,1115,cs),
(239,864,o),
(158,507,o),
(93,281,cs),
(60,167,o),
(44,116,o),
(44,87,cs),
(44,56,o),
(90,-7,o),
(120,-7,cs)
);
}
);
width = 704;
}
);
unicode = 107;
userData = {
com.typemytype.robofont.guides = (
{
angle = 0;
isGlobal = 0;
magnetic = 5;
x = 0;
y = 520;
},
{
angle = 0;
isGlobal = 0;
magnetic = 5;
x = 0;
y = 710;
},
{
angle = 0;
isGlobal = 0;
magnetic = 5;
x = 0;
y = 260;
},
{
angle = 90;
isGlobal = 0;
magnetic = 5;
x = 460;
y = 0;
},
{
angle = 90;
isGlobal = 0;
magnetic = 5;
x = 430;
y = 0;
}
);
};
},
{
color = 5;
glyphname = l;
kernLeft = l;
kernRight = l;
layers = (
{
anchors = (
{
name = bottom;
pos = (93,0);
},
{
name = center;
pos = (183,563);
},
{
name = top;
pos = (243,1125);
},
{
name = topright;
pos = (380,1065);
}
);
layerId = "FF2DC345-5101-49B6-97F3-57A040F7C387";
shapes = (
{
closed = 1;
nodes = (
(155,-7,o),
(342,618,o),
(342,1031,cs),
(342,1085,o),
(275,1157,o),
(249,1157,cs),
(224,1157,o),
(218,1146,o),
(218,1118,cs),
(218,720,o),
(44,104,o),
(44,77,cs),
(44,53,o),
(92,-7,o),
(120,-7,cs)
);
}
);
width = 368;
}
);
unicode = 108;
userData = {
com.typemytype.robofont.guides = (
{
angle = 0;
isGlobal = 0;
magnetic = 5;
x = 0;
y = 9;
},
{
angle = 0;
isGlobal = 0;
magnetic = 5;
x = 0;
y = 710;
}
);
};
},
{
color = 4;
glyphname = lslash;
layers = (
{
layerId = "FF2DC345-5101-49B6-97F3-57A040F7C387";
shapes = (
{
closed = 1;
nodes = (
(236,-22,o),
(278,138,o),
(314,284,cs),
(336,369,o),
(356,458,o),
(374,545,c),
(521,597,o),
(576,621,o),
(576,650,cs),
(576,668,o),
(561,674,o),
(537,674,cs),
(519,674,o),
(462,663,o),
(392,647,c),
(416,789,o),
(431,920,o),
(431,1016,cs),
(431,1074,o),
(360,1142,o),
(335,1142,cs),
(311,1142,o),
(305,1130,o),
(305,1103,cs),
(305,942,o),
(282,770,o),
(254,612,c),
(152,582,o),
(62,549,o),
(62,525,cs),
(62,501,o),
(107,467,o),
(143,467,cs),
(156,467,o),
(191,479,o),
(230,492,c),
(183,269,o),
(131,98,o),
(131,68,cs),
(131,36,o),
(180,-22,o),
(209,-22,cs)
);
}
);
width = 576;
}
);
unicode = 322;
},
{
color = 5;
glyphname = m;
kernLeft = n;
kernRight = n;
layers = (
{
anchors = (
{
name = bottom;
pos = (668,0);
},
{
name = top;
pos = (743,780);
}
);
hints = (
{
horizontal = 1;
place = (0, 0);
type = Tag;
},
{
horizontal = 1;
place = (0, 0);
type = Tag;
}
);
layerId = "FF2DC345-5101-49B6-97F3-57A040F7C387";
shapes = (
{
closed = 1;
nodes = (
(128,-7,o),
(146,11,o),
(171,48,cs),
(353,311,o),
(485,588,o),
(557,588,cs),
(579,588,o),
(600,555,o),
(600,513,cs),
(600,254,o),
(495,131,o),
(495,65,cs),
(495,33,o),
(533,-6,o),
(560,-6,cs),
(636,-6,o),
(846,588,o),
(981,588,cs),
(1002,588,o),
(1011,557,o),
(1011,506,cs),
(1010,312,o),
(909,143,o),
(909,39,cs),
(909,8,o),
(915,-7,o),
(939,-7,cs),
(1040,-7,o),
(1133,401,o),
(1133,534,cs),
(1133,639,o),
(1077,737,o),
(1017,737,cs),
(923,737,o),
(818,618,o),
(701,393,c),
(696,393,l),
(710,446,o),
(714,494,o),
(714,539,cs),
(714,635,o),
(635,737,o),
(578,737,cs),
(480,737,o),
(366,584,o),
(177,204,c),
(173,204,l),
(239,407,o),
(272,551,o),
(272,639,cs),
(272,686,o),
(219,743,o),
(176,743,cs),
(156,743,o),
(144,725,o),
(144,663,cs),
(144,374,o),
(33,167,o),
(33,78,cs),
(33,54,o),
(87,-7,o),
(113,-7,cs)
);
}
);
width = 1194;
}
);
unicode = 109;
},
{
color = 5;
glyphname = n;
kernLeft = n;
kernRight = n;
layers = (
{
anchors = (
{
name = bottom;
pos = (294,0);
},
{
name = top;
pos = (473,735);
}
);
hints = (
{
horizontal = 1;
place = (0, 0);
type = Tag;
},
{
horizontal = 1;
place = (0, 0);
type = Tag;
}
);
layerId = "FF2DC345-5101-49B6-97F3-57A040F7C387";
shapes = (
{
closed = 1;
nodes = (
(128,-7,o),
(147,8,o),
(173,48,cs),
(495,563,o),
(527,590,o),
(572,590,cs),
(602,590,o),
(614,534,o),
(614,498,cs),
(614,359,o),
(494,134,o),
(494,38,cs),
(494,8,o),
(504,-7,o),
(527,-7,cs),
(632,-7,o),
(738,420,o),
(738,545,cs),
(738,636,o),
(654,737,o),
(578,737,cs),
(534,737,o),
(461,707,o),
(198,254,c),
(194,254,l),
(237,390,o),
(276,578,o),
(276,633,cs),
(276,687,o),
(221,743,o),
(177,743,cs),
(159,743,o),
(146,707,o),
(146,633,cs),
(146,368,o),
(35,113,o),
(35,86,cs),
(35,51,o),
(84,-7,o),
(114,-7,cs)
);
}
);
width = 800;
}
);
unicode = 110;
userData = {
com.typemytype.robofont.guides = (
{
angle = 0;
isGlobal = 0;
magnetic = 5;
x = 0;
y = 530;
},
{
angle = 0;
isGlobal = 0;
magnetic = 5;
x = 0;
y = 301;
},
{
angle = 0;
isGlobal = 0;
magnetic = 5;
x = 0;
y = 650;
},
{
angle = 0;
isGlobal = 0;
magnetic = 5;
x = 0;
y = 407;
},
{
angle = 0;
isGlobal = 0;
magnetic = 5;
x = 0;
y = 451;
},
{
angle = 90;
isGlobal = 0;
magnetic = 5;
x = 291;
y = 0;
},
{
angle = 90;
isGlobal = 0;
magnetic = 5;
x = 131;
y = 0;
}
);
};
},
{
color = 5;
glyphname = eng;
layers = (
{
hints = (
{
horizontal = 1;
place = (0, 0);
type = Tag;
},
{
horizontal = 1;
place = (0, 0);
type = Tag;
}
);
layerId = "FF2DC345-5101-49B6-97F3-57A040F7C387";
shapes = (
{
closed = 1;
nodes = (
(128,-7,o),
(147,8,o),
(173,48,cs),
(495,563,o),
(527,590,o),
(572,590,cs),
(602,590,o),
(614,534,o),
(614,498,cs),
(614,314,o),
(458,-112,o),
(338,-133,cs),
(231,-151,o),
(171,-171,o),
(171,-195,cs),
(171,-226,o),
(197,-240,o),
(309,-240,cs),
(534,-240,o),
(738,255,o),
(738,545,cs),
(738,636,o),
(654,737,o),
(578,737,cs),
(534,737,o),
(461,707,o),
(198,254,c),
(194,254,l),
(237,390,o),
(276,578,o),
(276,633,cs),
(276,687,o),
(221,743,o),
(177,743,cs),
(159,743,o),
(146,707,o),
(146,633,cs),
(146,368,o),
(35,113,o),
(35,86,cs),
(35,51,o),
(84,-7,o),
(114,-7,cs)
);
}
);
width = 800;
}
);
unicode = 331;
},
{
color = 5;
glyphname = o;
kernLeft = o;
kernRight = o;
layers = (
{
anchors = (
{
name = bottom;
pos = (131,0);
},
{
name = center;
pos = (341,390);
},
{
name = ogonek;
pos = (354,15);
},
{
name = top;
pos = (464,735);
},
{
name = topright;
pos = (591,735);
}
);
hints = (
{
horizontal = 1;
place = (0, 0);
type = Tag;
}
);
layerId = "FF2DC345-5101-49B6-97F3-57A040F7C387";
shapes = (
{
closed = 1;
nodes = (
(432,-7,o),
(626,221,o),
(626,476,cs),
(626,621,o),
(535,737,o),
(416,737,cs),
(212,737,o),
(54,438,o),
(54,242,cs),
(54,97,o),
(131,-7,o),
(233,-7,cs)
);
},
{
closed = 1;
nodes = (
(206,95,o),
(182,167,o),
(182,231,cs),
(182,374,o),
(315,642,o),
(435,642,cs),
(465,642,o),
(500,549,o),
(500,482,cs),
(500,332,o),
(365,95,o),
(240,95,cs)
);
}
);
width = 680;
}
);
unicode = 111;
userData = {
com.typemytype.robofont.guides = (
{
angle = 0;
isGlobal = 0;
magnetic = 5;
x = 0;
y = 302;
},
{
angle = 0;
isGlobal = 0;
magnetic = 5;
x = 0;
y = 218;
},
{
angle = 0;
isGlobal = 0;
magnetic = 5;
x = 0;
y = 411;
},
{
angle = 0;
isGlobal = 0;
magnetic = 5;
x = 0;
y = 109;
},
{
angle = 90;
isGlobal = 0;
magnetic = 5;
x = 278;
y = 0;
},
{
angle = 90;
isGlobal = 0;
magnetic = 5;
x = 56;
y = 0;
},
{
angle = 90;
isGlobal = 0;
magnetic = 5;
x = 500;
y = 0;
}
);
};
},
{
color = 4;
glyphname = oslash;
kernLeft = o;
kernRight = o;
layers = (
{
anchors = (
{
name = top;
pos = (431,780);
}
);
hints = (
{
horizontal = 1;
place = (628, 0);
type = Tag;
}
);
layerId = "FF2DC345-5101-49B6-97F3-57A040F7C387";
shapes = (
{
closed = 1;
nodes = (
(77,-7,o),
(99,9,o),
(132,44,c),
(169,9,o),
(207,-7,o),
(248,-7,cs),
(459,-7,o),
(666,251,o),
(666,485,cs),
(666,528,o),
(657,567,o),
(641,605,c),
(695,668,o),
(713,695,o),
(713,710,cs),
(713,729,o),
(701,740,o),
(677,740,cs),
(653,740,o),
(621,722,o),
(582,686,c),
(546,720,o),
(504,737,o),
(456,737,cs),
(246,737,o),
(54,458,o),
(54,236,cs),
(54,191,o),
(65,148,o),
(86,108,c),
(48,61,o),
(30,32,o),
(30,21,cs),
(30,2,o),
(41,-7,o),
(60,-7,cs)
);
},
{
closed = 1;
nodes = (
(237,86,o),
(216,99,o),
(203,117,c),
(273,194,o),
(389,324,o),
(555,510,c),
(555,345,o),
(404,86,o),
(257,86,cs)
);
},
{
closed = 1;
nodes = (
(173,387,o),
(323,644,o),
(461,644,cs),
(483,644,o),
(497,629,o),
(512,611,c),
(494,591,o),
(285,341,o),
(173,212,c)
);
}
);
width = 686;
}
);
unicode = 248;
userData = {
com.typemytype.robofont.guides = (
{
angle = 0;
isGlobal = 0;
magnetic = 5;
x = 0;
y = 259;
},
{
angle = 90;
isGlobal = 0;
magnetic = 5;
x = 370;
y = 0;
},
{
angle = 90;
isGlobal = 0;
magnetic = 5;
x = 80;
y = 0;
},
{
angle = 90;
isGlobal = 0;
magnetic = 5;
x = 584;
y = 0;
},
{
angle = 90;
isGlobal = 0;
magnetic = 5;
x = 141;
y = 0;
},
{
angle = 90;
isGlobal = 0;
magnetic = 5;
x = 20;
y = 0;
}
);
};
},
{
color = 5;
glyphname = oe;
kernLeft = o;
kernRight = e;
layers = (
{
anchors = (
{
name = bottom;
pos = (464,0);
},
{
name = top;
pos = (644,780);
}
);
hints = (
{
horizontal = 1;
place = (0, 0);
type = Tag;
},
{
horizontal = 1;
place = (0, 0);
type = Tag;
},
{
horizontal = 1;
place = (0, 0);
type = Tag;
},
{
horizontal = 1;
place = (0, 0);
type = Tag;
}
);
layerId = "FF2DC345-5101-49B6-97F3-57A040F7C387";
shapes = (
{
closed = 1;
nodes = (
(327,-7,o),
(412,37,o),
(489,126,c),
(529,44,o),
(615,-7,o),
(728,-7,cs),
(840,-7,o),
(995,74,o),
(995,128,cs),
(995,147,o),
(981,158,o),
(956,158,cs),
(920,158,o),
(846,105,o),
(704,105,cs),
(620,105,o),
(578,143,o),
(578,218,cs),
(578,255,o),
(585,292,o),
(602,330,c),
(662,315,o),
(725,308,o),
(785,308,cs),
(911,308,o),
(1077,362,o),
(1077,488,cs),
(1077,595,o),
(962,737,o),
(842,737,cs),
(761,737,o),
(681,687,o),
(602,590,c),
(567,675,o),
(500,737,o),
(414,737,cs),
(213,737,o),
(54,440,o),
(54,242,cs),
(54,98,o),
(131,-7,o),
(233,-7,cs)
);
},
{
closed = 1;
nodes = (
(212,105,o),
(183,146,o),
(183,230,cs),
(183,372,o),
(279,602,o),
(435,645,c),
(477,617,o),
(500,549,o),
(500,482,cs),
(500,320,o),
(380,120,o),
(240,96,c)
);
},
{
closed = 1;
nodes = (
(714,404,o),
(669,408,o),
(635,417,c),
(690,531,o),
(777,618,o),
(851,618,cs),
(899,618,o),
(960,548,o),
(960,494,cs),
(960,440,o),
(873,404,o),
(767,404,cs)
);
}
);
width = 1131;
}
);
unicode = 339;
userData = {
com.typemytype.robofont.guides = (
{
angle = 90;
isGlobal = 0;
magnetic = 5;
x = 51;
y = 0;
},
{
angle = 90;
isGlobal = 0;
magnetic = 5;
x = 495;
y = 0;
}
);
};
},
{
color = 5;
glyphname = p;
kernLeft = n;
kernRight = b;
layers = (
{
anchors = (
{
name = bottom;
pos = (449,0);
},
{
name = top;
pos = (449,780);
}
);
hints = (
{
horizontal = 1;
place = (0, 0);
type = Tag;
},
{
horizontal = 1;
place = (0, 0);
type = Tag;
}
);
layerId = "FF2DC345-5101-49B6-97F3-57A040F7C387";
shapes = (
{
closed = 1;
nodes = (
(24,-393,o),
(39,-363,o),
(59,-291,cs),
(84,-198,o),
(96,-135,o),
(129,3,c),
(147,-1,o),
(167,-4,o),
(186,-4,cs),
(399,-4,o),
(699,267,o),
(698,489,cs),
(698,584,o),
(636,741,o),
(537,741,cs),
(446,741,o),
(354,683,o),
(266,567,c),
(270,587,o),
(272,603,o),
(272,620,cs),
(272,684,o),
(204,747,o),
(168,747,cs),
(146,747,o),
(135,732,o),
(135,702,cs),
(135,567,o),
(87,305,o),
(-9,-84,cs),
(-40,-213,o),
(-57,-283,o),
(-57,-303,cs),
(-57,-334,o),
(-15,-393,o),
(5,-393,cs)
);
},
{
closed = 1;
nodes = (
(183,221,ls),
(237,438,o),
(429,612,o),
(507,612,cs),
(546,612,o),
(566,570,o),
(566,488,cs),
(566,317,o),
(360,113,o),
(156,113,c)
);
}
);
width = 717;
}
);
unicode = 112;
userData = {
com.typemytype.robofont.guides = (
{
angle = 0;
isGlobal = 0;
magnetic = 5;
x = 0;
y = 530;
},
{
angle = 0;
isGlobal = 0;
magnetic = 5;
x = 0;
y = "-10";
},
{
angle = 0;
isGlobal = 0;
magnetic = 5;
x = 0;
y = 422;
},
{
angle = 0;
isGlobal = 0;
magnetic = 5;
x = 0;
y = "-190";
},
{
angle = 90;
isGlobal = 0;
magnetic = 5;
x = 419;
y = 0;
},
{
angle = 90;
isGlobal = 0;
magnetic = 5;
x = "-609";
y = 0;
},
{
angle = 90;
isGlobal = 0;
magnetic = 5;
x = 79;
y = 0;
},
{
angle = 90;
isGlobal = 0;
magnetic = 5;
x = 122;
y = 0;
},
{
angle = 90;
isGlobal = 0;
magnetic = 5;
x = 291;
y = 0;
}
);
};
},
{
color = 5;
glyphname = thorn;
kernLeft = h;
kernRight = b;
layers = (
{
anchors = (
{
name = bottom;
pos = (374,0);
},
{
name = top;
pos = (479,780);
}
);
hints = (
{
horizontal = 1;
place = (0, 0);
type = Tag;
}
);
layerId = "FF2DC345-5101-49B6-97F3-57A040F7C387";
shapes = (
{
closed = 1;
nodes = (
(77,-330,o),
(123,-175,o),
(203,135,c),
(230,114,o),
(269,102,o),
(314,102,cs),
(482,102,o),
(750,258,o),
(750,453,cs),
(750,579,o),
(607,725,o),
(502,725,cs),
(449,725,o),
(391,710,o),
(327,681,c),
(354,821,o),
(368,909,o),
(368,946,cs),
(368,1019,o),
(308,1089,o),
(278,1089,cs),
(248,1089,o),
(242,1076,o),
(242,1044,cs),
(242,717,o),
(-13,-148,o),
(-13,-235,cs),
(-13,-277,o),
(38,-330,o),
(64,-330,cs)
);
},
{
closed = 1;
nodes = (
(266,213,o),
(248,218,o),
(225,228,c),
(260,364,o),
(284,465,o),
(297,530,c),
(374,576,o),
(435,597,o),
(486,597,cs),
(566,597,o),
(630,536,o),
(630,453,cs),
(630,335,o),
(438,213,o),
(290,213,cs)
);
}
);
width = 789;
}
);
unicode = 254;
userData = {
com.typemytype.robofont.guides = (
{
angle = 0;
isGlobal = 0;
magnetic = 5;
x = 0;
y = 710;
}
);
};
},
{
color = 5;
glyphname = q;
kernLeft = d;
kernRight = u;
layers = (
{
anchors = (
{
name = bottom;
pos = (449,0);
},
{
name = top;
pos = (449,780);
}
);
hints = (
{
horizontal = 1;
place = (0, 0);
type = Tag;
},
{
horizontal = 1;
place = (0, 0);
type = Tag;
}
);
layerId = "FF2DC345-5101-49B6-97F3-57A040F7C387";
shapes = (
{
closed = 1;
nodes = (
(353,-397,o),
(429,-340,o),
(501,-291,cs),
(570,-246,o),
(636,-211,o),
(636,-187,cs),
(636,-168,o),
(614,-147,o),
(594,-147,cs),
(554,-147,o),
(498,-171,o),
(425,-220,c),
(528,74,o),
(647,336,o),
(647,404,cs),
(647,431,o),
(596,471,o),
(560,471,cs),
(543,471,o),
(531,462,o),
(528,449,cs),
(479,255,o),
(308,117,o),
(198,117,cs),
(167,117,o),
(141,143,o),
(141,174,cs),
(141,306,o),
(353,617,o),
(491,617,cs),
(539,617,o),
(584,549,o),
(618,549,cs),
(633,549,o),
(645,563,o),
(645,584,cs),
(645,630,o),
(566,737,o),
(465,737,cs),
(275,737,o),
(24,372,o),
(24,185,cs),
(24,98,o),
(123,-7,o),
(194,-7,cs),
(264,-7,o),
(350,35,o),
(417,101,c),
(390,27,o),
(278,-249,o),
(278,-315,cs),
(278,-339,o),
(311,-397,o),
(335,-397,cs)
);
}
);
width = 711;
}
);
unicode = 113;
userData = {
com.typemytype.robofont.guides = (
{
angle = 0;
isGlobal = 0;
magnetic = 5;
x = 0;
y = 530;
},
{
angle = 0;
isGlobal = 0;
magnetic = 5;
x = 0;
y = "-10";
},
{
angle = 0;
isGlobal = 0;
magnetic = 5;
x = 0;
y = "-190";
}
);
};
},
{
color = 5;
glyphname = r;
kernLeft = n;
kernRight = r;
layers = (
{
anchors = (
{
name = bottom;
pos = (183,0);
},
{
name = top;
pos = (311,780);
}
);
hints = (
{
horizontal = 1;
place = (0, 0);
type = Tag;
}
);
layerId = "FF2DC345-5101-49B6-97F3-57A040F7C387";
shapes = (
{
closed = 1;
nodes = (
(128,-10,o),
(150,9,o),
(162,50,cs),
(282,455,o),
(357,569,o),
(495,632,cs),
(545,654,o),
(564,675,o),
(564,699,cs),
(564,723,o),
(540,735,o),
(491,735,cs),
(413,735,o),
(330,669,o),
(243,537,c),
(246,557,o),
(248,581,o),
(248,605,cs),
(248,668,o),
(213,737,o),
(165,737,cs),
(143,737,o),
(132,711,o),
(132,681,cs),
(132,644,o),
(137,591,o),
(137,554,cs),
(137,290,o),
(50,165,o),
(50,72,cs),
(50,42,o),
(71,-10,o),
(107,-10,cs)
);
}
);
width = 497;
}
);
unicode = 114;
userData = {
com.typemytype.robofont.guides = (
{
angle = 0;
isGlobal = 0;
magnetic = 5;
x = 0;
y = 462;
}
);
};
},
{
color = 5;
glyphname = s;
kernLeft = s;
kernRight = s;
layers = (
{
anchors = (
{
name = bottom;
pos = (278,0);
},
{
name = top;
pos = (425,780);
}
);
hints = (
{
horizontal = 1;
place = (0, 0);
type = Tag;
},
{
horizontal = 1;
place = (0, 0);
type = Tag;
}
);
layerId = "FF2DC345-5101-49B6-97F3-57A040F7C387";
shapes = (
{
closed = 1;
nodes = (
(429,-7,o),
(557,86,o),
(557,165,cs),
(557,243,o),
(489,317,o),
(419,360,cs),
(327,416,o),
(281,456,o),
(281,479,cs),
(281,540,o),
(423,609,o),
(471,609,cs),
(522,609,o),
(560,557,o),
(593,557,cs),
(609,557,o),
(617,566,o),
(617,582,cs),
(617,638,o),
(543,737,o),
(476,737,cs),
(366,737,o),
(143,591,o),
(143,485,cs),
(143,425,o),
(213,363,o),
(282,323,cs),
(351,282,o),
(420,228,o),
(420,183,cs),
(420,134,o),
(362,108,o),
(255,108,cs),
(123,108,o),
(84,186,o),
(41,186,cs),
(20,186,o),
(9,164,o),
(9,144,cs),
(9,83,o),
(140,-7,o),
(285,-7,cs)
);
}
);
width = 639;
}
);
unicode = 115;
userData = {
com.typemytype.robofont.guides = (
{
angle = 0;
isGlobal = 0;
magnetic = 5;
x = 0;
y = 265;
},
{
angle = 0;
isGlobal = 0;
magnetic = 5;
x = 0;
y = 139;
},
{
angle = 90;
isGlobal = 0;
magnetic = 5;
x = 250;
y = 0;
}
);
};
},
{
color = 5;
glyphname = scedilla;
layers = (
{
hints = (
{
horizontal = 1;
place = (0, 0);
type = Tag;
},
{
horizontal = 1;
place = (0, 0);
type = Tag;
}
);
layerId = "FF2DC345-5101-49B6-97F3-57A040F7C387";
shapes = (
{
closed = 1;
nodes = (
(9,90,o),
(113,12,o),
(237,-4,c),
(215,-49,ls),
(206,-66,o),
(195,-97,o),
(195,-112,cs),
(195,-132,o),
(221,-162,o),
(239,-162,cs),
(261,-162,o),
(275,-147,o),
(312,-147,cs),
(345,-147,o),
(372,-166,o),
(372,-199,cs),
(372,-234,o),
(345,-258,o),
(312,-258,cs),
(266,-258,o),
(255,-225,o),
(230,-225,cs),
(206,-225,o),
(180,-235,o),
(180,-264,cs),
(180,-300,o),
(204,-330,o),
(312,-330,cs),
(405,-330,o),
(455,-271,o),
(455,-198,cs),
(455,-124,o),
(407,-72,o),
(339,-72,cs),
(320,-72,o),
(296,-76,o),
(284,-84,c),
(311,-6,l),
(444,3,o),
(557,90,o),
(557,165,cs),
(557,243,o),
(489,317,o),
(419,360,cs),
(327,416,o),
(281,456,o),
(281,479,cs),
(281,540,o),
(423,609,o),
(471,609,cs),
(522,609,o),
(560,557,o),
(593,557,cs),
(609,557,o),
(617,566,o),
(617,582,cs),
(617,638,o),
(543,737,o),
(476,737,cs),
(366,737,o),
(143,591,o),
(143,485,cs),
(143,425,o),
(213,363,o),
(282,323,cs),
(351,282,o),
(420,228,o),
(420,183,cs),
(420,134,o),
(362,108,o),
(255,108,cs),
(123,108,o),
(84,186,o),
(41,186,cs),
(20,186,o),
(9,164,o),
(9,144,cs)
);
}
);
width = 639;
}
);
unicode = 351;
},
{
color = 5;
glyphname = germandbls;
kernLeft = h;
layers = (
{
anchors = (
{
name = bottom;
pos = (443,0);
},
{
name = top;
pos = (443,780);
}
);
hints = (
{
horizontal = 1;
place = (0, 0);
type = Tag;
}
);
layerId = "FF2DC345-5101-49B6-97F3-57A040F7C387";
shapes = (
{
closed = 1;
nodes = (
(179,-7,o),
(254,231,o),
(351,708,cs),
(378,846,o),
(438,911,o),
(518,911,cs),
(585,911,o),
(656,842,o),
(656,753,cs),
(656,638,o),
(452,602,o),
(452,528,cs),
(452,426,o),
(656,390,o),
(656,252,cs),
(656,164,o),
(543,105,o),
(482,105,cs),
(456,105,o),
(417,111,o),
(392,111,cs),
(366,111,o),
(350,99,o),
(350,78,cs),
(350,32,o),
(402,-4,o),
(488,-4,cs),
(644,-4,o),
(782,98,o),
(782,248,cs),
(782,417,o),
(594,485,o),
(594,522,cs),
(594,557,o),
(782,602,o),
(782,762,cs),
(782,890,o),
(665,1035,o),
(534,1035,cs),
(362,1035,o),
(257,924,o),
(225,746,cs),
(198,600,o),
(71,99,o),
(71,74,cs),
(71,41,o),
(101,-7,o),
(138,-7,cs)
);
}
);
width = 878;
}
);
unicode = 223;
userData = {
com.typemytype.robofont.guides = (
{
angle = 0;
isGlobal = 0;
magnetic = 5;
x = 0;
y = 527;
},
{
angle = 0;
isGlobal = 0;
magnetic = 5;
x = 0;
y = 601;
},
{
angle = 90;
isGlobal = 0;
magnetic = 5;
x = 267;
y = 0;
},
{
angle = 90;
isGlobal = 0;
magnetic = 5;
x = 499;
y = 0;
}
);
};
},
{
color = 5;
glyphname = t;
kernLeft = t;
kernRight = t;
layers = (
{
anchors = (
{
name = bottom;
pos = (218,0);
},
{
name = center;
pos = (288,390);
},
{
name = top;
pos = (294,780);
},
{
name = topright;
pos = (500,1092);
}
);
hints = (
{
horizontal = 1;
place = (0, 0);
type = Tag;
}
);
layerId = "FF2DC345-5101-49B6-97F3-57A040F7C387";
shapes = (
{
closed = 1;
nodes = (
(350,-7,o),
(504,92,o),
(504,150,cs),
(504,170,o),
(495,179,o),
(477,179,cs),
(456,179,o),
(330,114,o),
(248,114,cs),
(225,114,o),
(215,123,o),
(215,143,cs),
(215,165,o),
(321,519,o),
(342,599,c),
(563,636,o),
(596,668,o),
(596,683,cs),
(596,708,o),
(566,723,o),
(506,723,cs),
(471,723,o),
(426,719,o),
(369,714,c),
(384,776,o),
(395,819,o),
(395,852,cs),
(393,927,o),
(317,962,o),
(294,962,cs),
(275,962,o),
(264,947,o),
(264,917,cs),
(264,852,o),
(255,779,o),
(237,696,c),
(107,674,o),
(42,651,o),
(42,627,cs),
(42,597,o),
(81,555,o),
(113,555,cs),
(129,555,o),
(161,561,o),
(207,572,c),
(146,350,o),
(84,201,o),
(84,114,cs),
(84,59,o),
(156,-7,o),
(254,-7,cs)
);
}
);
width = 581;
}
);
unicode = 116;
userData = {
com.typemytype.robofont.guides = (
{
angle = 0;
isGlobal = 0;
magnetic = 5;
x = 0;
y = 175;
},
{
angle = 90;
isGlobal = 0;
magnetic = 5;
x = 342;
y = 0;
},
{
angle = 90;
isGlobal = 0;
magnetic = 5;
x = 35;
y = 0;
}
);
};
},
{
color = 5;
glyphname = u;
kernLeft = u;
kernRight = u;
layers = (
{
anchors = (
{
name = bottom;
pos = (440,0);
},
{
name = ogonek;
pos = (470,101);
},
{
name = top;
pos = (432,735);
},
{
name = topright;
pos = (684,735);
}
);
hints = (
{
horizontal = 1;
place = (0, 0);
type = Tag;
},
{
horizontal = 1;
place = (107, 0);
type = Tag;
}
);
layerId = "FF2DC345-5101-49B6-97F3-57A040F7C387";
shapes = (
{
closed = 1;
nodes = (
(275,-7,o),
(380,90,o),
(464,227,c),
(447,171,o),
(428,99,o),
(428,66,cs),
(428,26,o),
(441,-7,o),
(476,-7,cs),
(498,-7,o),
(515,14,o),
(527,56,cs),
(551,138,o),
(695,594,o),
(695,623,cs),
(695,671,o),
(644,737,o),
(617,737,cs),
(590,737,o),
(585,726,o),
(578,695,cs),
(536,543,o),
(444,347,o),
(339,213,cs),
(287,146,o),
(240,113,o),
(203,113,cs),
(174,113,o),
(152,137,o),
(152,168,cs),
(152,281,o),
(219,449,o),
(273,560,cs),
(300,615,o),
(314,647,o),
(314,656,cs),
(314,698,o),
(282,737,o),
(246,737,cs),
(168,737,o),
(24,357,o),
(24,167,cs),
(24,87,o),
(98,-7,o),
(194,-7,cs)
);
}
);
width = 722;
}
);
unicode = 117;
userData = {
com.typemytype.robofont.guides = (
{
angle = 0;
isGlobal = 0;
magnetic = 5;
x = 0;
y = "-10";
},
{
angle = 90;
isGlobal = 0;
magnetic = 5;
x = 432;
y = 0;
},
{
angle = 90;
isGlobal = 0;
magnetic = 5;
x = 126;
y = 0;
},
{
angle = 90;
isGlobal = 0;
magnetic = 5;
x = 65;
y = 0;
}
);
};
},
{
color = 5;
glyphname = uogonek;
layers = (
{
anchors = (
{
name = bottom;
pos = (440,0);
},
{
name = ogonek;
pos = (470,101);
},
{
name = top;
pos = (462,735);
},
{
name = topright;
pos = (684,735);
}
);
hints = (
{
horizontal = 1;
origin = (0,23);
type = Tag;
},
{
horizontal = 1;
origin = (0,29);
type = Tag;
},
{
horizontal = 1;
place = (0, 0);
type = Tag;
},
{
horizontal = 1;
place = (107, 0);
type = Tag;
}
);
layerId = "FF2DC345-5101-49B6-97F3-57A040F7C387";
shapes = (
{
closed = 1;
nodes = (
(275,-7,o),
(380,90,o),
(464,227,c),
(447,171,o),
(428,99,o),
(428,51,c),
(321,14,o),
(273,-85,o),
(273,-160,cs),
(273,-277,o),
(350,-333,o),
(483,-333,cs),
(530,-333,o),
(545,-318,o),
(545,-264,cs),
(545,-243,o),
(528,-229,o),
(501,-229,cs),
(482,-229,o),
(465,-244,o),
(444,-244,cs),
(380,-244,o),
(360,-199,o),
(360,-160,cs),
(360,-123,o),
(372,-37,o),
(458,-7,cs),
(491,5,o),
(519,29,o),
(527,56,cs),
(549,138,o),
(695,594,o),
(695,623,cs),
(695,671,o),
(644,737,o),
(617,737,cs),
(590,737,o),
(585,726,o),
(578,695,cs),
(536,543,o),
(444,347,o),
(339,213,cs),
(287,146,o),
(240,113,o),
(203,113,cs),
(174,113,o),
(152,137,o),
(152,168,cs),
(152,281,o),
(219,449,o),
(273,560,cs),
(300,615,o),
(314,647,o),
(314,656,cs),
(314,698,o),
(282,737,o),
(246,737,cs),
(168,737,o),
(24,357,o),
(24,167,cs),
(24,87,o),
(98,-7,o),
(194,-7,cs)
);
}
);
width = 722;
}
);
unicode = 371;
},
{
color = 5;
glyphname = v;
layers = (
{
anchors = (
{
name = bottom;
pos = (416,0);
},
{
name = top;
pos = (416,780);
}
);
hints = (
{
horizontal = 1;
place = (0, 0);
type = Tag;
}
);
layerId = "FF2DC345-5101-49B6-97F3-57A040F7C387";
shapes = (
{
closed = 1;
nodes = (
(317,-10,o),
(344,18,o),
(375,74,cs),
(435,185,o),
(638,623,o),
(638,677,cs),
(638,707,o),
(599,737,o),
(564,737,cs),
(543,737,o),
(519,690,o),
(500,639,cs),
(437,477,o),
(368,305,o),
(297,155,c),
(230,323,o),
(233,521,o),
(213,639,cs),
(203,699,o),
(141,737,o),
(98,737,cs),
(80,737,o),
(71,722,o),
(71,692,cs),
(71,561,o),
(150,206,o),
(204,80,cs),
(222,36,o),
(269,-10,o),
(294,-10,cs)
);
}
);
width = 633;
}
);
unicode = 118;
userData = {
com.typemytype.robofont.guides = (
{
angle = 90;
isGlobal = 0;
magnetic = 5;
x = 267;
y = 0;
}
);
};
},
{
color = 5;
glyphname = w;
kernLeft = w;
kernRight = w;
layers = (
{
anchors = (
{
name = bottom;
pos = (497,0);
},
{
name = top;
pos = (587,765);
}
);
hints = (
{
horizontal = 1;
place = (749, 0);
type = Tag;
}
);
layerId = "FF2DC345-5101-49B6-97F3-57A040F7C387";
shapes = (
{
closed = 1;
nodes = (
(263,-10,o),
(305,38,o),
(357,134,cs),
(410,230,o),
(471,372,o),
(540,560,c),
(530,398,o),
(530,126,o),
(566,48,cs),
(582,9,o),
(609,-10,o),
(644,-10,cs),
(714,-10,o),
(866,204,o),
(944,420,cs),
(990,537,o),
(1013,621,o),
(1013,672,cs),
(1013,713,o),
(977,749,o),
(939,749,cs),
(894,749,o),
(873,591,o),
(833,453,cs),
(801,350,o),
(735,216,o),
(650,126,c),
(639,161,o),
(639,218,o),
(639,296,cs),
(639,390,o),
(650,483,o),
(650,578,cs),
(650,675,o),
(602,743,o),
(536,743,cs),
(483,743,o),
(432,582,o),
(362,399,cs),
(320,293,o),
(278,203,o),
(237,132,c),
(200,339,o),
(215,521,o),
(201,635,cs),
(195,683,o),
(152,746,o),
(108,746,cs),
(83,746,o),
(71,725,o),
(71,684,cs),
(71,557,o),
(107,167,o),
(150,60,cs),
(168,18,o),
(203,-10,o),
(231,-10,cs)
);
}
);
width = 1010;
}
);
unicode = 119;
userData = {
com.typemytype.robofont.guides = (
{
angle = 90;
isGlobal = 0;
magnetic = 5;
x = 45;
y = 0;
},
{
angle = 90;
isGlobal = 0;
magnetic = 5;
x = 737;
y = 0;
}
);
};
},
{
color = 5;
glyphname = x;
layers = (
{
anchors = (
{
name = bottom;
pos = (315,0);
},
{
name = top;
pos = (405,780);
}
);
hints = (
{
horizontal = 1;
place = (23, 0);
type = Tag;
}
);
layerId = "FF2DC345-5101-49B6-97F3-57A040F7C387";
shapes = (
{
closed = 1;
nodes = (
(89,-7,o),
(168,74,o),
(299,234,c),
(398,74,o),
(470,-7,o),
(515,-7,cs),
(533,-7,o),
(551,3,o),
(551,24,cs),
(551,41,o),
(543,56,o),
(527,81,cs),
(507,116,o),
(452,192,o),
(375,326,c),
(492,471,o),
(558,561,o),
(620,612,cs),
(650,636,o),
(663,648,o),
(663,672,cs),
(663,695,o),
(617,737,o),
(579,737,cs),
(560,737,o),
(531,714,o),
(492,671,cs),
(452,627,o),
(392,551,o),
(311,441,c),
(252,555,o),
(222,633,o),
(222,675,cs),
(222,711,o),
(146,737,o),
(113,737,cs),
(83,737,o),
(71,732,o),
(71,713,cs),
(71,689,o),
(77,653,o),
(119,569,cs),
(153,498,o),
(189,423,o),
(236,341,c),
(188,279,o),
(116,201,o),
(18,104,cs),
(-4,81,o),
(-15,69,o),
(-15,57,cs),
(-15,35,o),
(29,-7,o),
(60,-7,cs)
);
}
);
width = 641;
}
);
unicode = 120;
userData = {
com.typemytype.robofont.guides = (
{
angle = 90;
isGlobal = 0;
magnetic = 5;
x = 255;
y = 0;
}
);
};
},
{
color = 5;
glyphname = y;
kernLeft = y;
kernRight = y;
layers = (
{
anchors = (
{
name = bottom;
pos = (414,0);
},
{
name = top;
pos = (470,765);
}
);
hints = (
{
horizontal = 1;
place = (-260, 0);
type = Tag;
}
);
layerId = "FF2DC345-5101-49B6-97F3-57A040F7C387";
shapes = (
{
closed = 1;
nodes = (
(314,-397,o),
(387,-325,o),
(438,-183,cs),
(525,59,o),
(713,560,o),
(713,623,cs),
(713,681,o),
(665,737,o),
(633,737,cs),
(617,737,o),
(608,731,o),
(603,720,cs),
(566,605,o),
(528,510,o),
(494,437,cs),
(410,261,o),
(299,113,o),
(227,113,cs),
(198,113,o),
(176,137,o),
(176,168,cs),
(176,351,o),
(336,611,o),
(336,662,cs),
(336,698,o),
(302,737,o),
(263,737,cs),
(180,737,o),
(47,336,o),
(47,189,cs),
(47,83,o),
(132,-7,o),
(216,-7,cs),
(285,-7,o),
(356,41,o),
(426,138,c),
(318,-199,o),
(276,-298,o),
(215,-298,cs),
(174,-298,o),
(125,-265,o),
(66,-199,cs),
(47,-178,o),
(35,-166,o),
(23,-166,cs),
(3,-166,o),
(-28,-213,o),
(-28,-238,cs),
(-28,-312,o),
(99,-397,o),
(213,-397,cs)
);
}
);
width = 704;
}
);
unicode = 121;
},
{
color = 5;
glyphname = z;
kernLeft = z;
kernRight = z;
layers = (
{
anchors = (
{
name = bottom;
pos = (381,0);
},
{
name = center;
pos = (381,390);
},
{
name = top;
pos = (383,780);
}
);
hints = (
{
horizontal = 1;
place = (119, 0);
type = Tag;
}
);
layerId = "FF2DC345-5101-49B6-97F3-57A040F7C387";
shapes = (
{
closed = 1;
nodes = (
(363,-7,o),
(617,42,o),
(617,107,cs),
(617,129,o),
(597,141,o),
(558,141,cs),
(497,141,o),
(381,117,o),
(200,117,cs),
(174,117,o),
(161,126,o),
(161,143,cs),
(161,174,o),
(273,248,o),
(383,323,cs),
(492,399,o),
(605,507,o),
(605,584,cs),
(605,696,o),
(477,738,o),
(285,738,cs),
(236,738,o),
(81,720,o),
(81,677,cs),
(81,647,o),
(129,591,o),
(162,591,cs),
(209,591,o),
(275,608,o),
(335,608,cs),
(437,608,o),
(488,599,o),
(488,579,cs),
(488,551,o),
(407,482,o),
(246,369,cs),
(126,287,o),
(5,185,o),
(5,131,cs),
(5,77,o),
(92,-7,o),
(177,-7,cs)
);
}
);
width = 660;
}
);
unicode = 122;
userData = {
com.typemytype.robofont.guides = (
{
angle = 0;
isGlobal = 0;
magnetic = 5;
x = 0;
y = 36;
},
{
angle = 90;
isGlobal = 0;
magnetic = 5;
x = 480;
y = 0;
},
{
angle = 90;
isGlobal = 0;
magnetic = 5;
x = 70;
y = 0;
}
);
};
},
{
color = 5;
glyphname = ordfeminine;
layers = (
{
hints = (
{
horizontal = 1;
place = (966, 0);
type = Tag;
}
);
layerId = "FF2DC345-5101-49B6-97F3-57A040F7C387";
shapes = (
{
closed = 1;
nodes = (
(359,584,o),
(422,621,o),
(483,696,c),
(489,634,o),
(518,584,o),
(546,584,cs),
(561,584,o),
(572,608,o),
(572,626,cs),
(572,839,o),
(609,891,o),
(609,969,cs),
(609,1031,o),
(530,1127,o),
(441,1127,cs),
(272,1127,o),
(140,873,o),
(140,731,cs),
(140,664,o),
(216,584,o),
(294,584,cs)
);
},
{
closed = 1;
nodes = (
(262,680,o),
(243,699,o),
(243,740,cs),
(243,843,o),
(350,1026,o),
(444,1026,cs),
(484,1026,o),
(515,990,o),
(521,953,c),
(477,795,o),
(374,680,o),
(299,680,cs)
);
}
);
width = 711;
}
);
unicode = 170;
},
{
color = 5;
glyphname = ordmasculine;
layers = (
{
hints = (
{
horizontal = 1;
place = (891, 0);
type = Tag;
}
);
layerId = "FF2DC345-5101-49B6-97F3-57A040F7C387";
shapes = (
{
closed = 1;
nodes = (
(483,587,o),
(605,753,o),
(605,903,cs),
(605,1016,o),
(540,1127,o),
(438,1127,cs),
(284,1127,o),
(162,965,o),
(162,801,cs),
(162,692,o),
(228,587,o),
(317,587,cs)
);
},
{
closed = 1;
nodes = (
(281,702,o),
(263,749,o),
(263,800,cs),
(263,891,o),
(320,1008,o),
(437,1037,c),
(485,1013,o),
(504,965,o),
(504,909,cs),
(504,807,o),
(443,692,o),
(321,672,c)
);
}
);
width = 678;
}
);
unicode = 186;
userData = {
com.typemytype.robofont.guides = (
{
angle = 0;
isGlobal = 0;
magnetic = 5;
x = 0;
y = 589;
},
{
angle = 0;
isGlobal = 0;
magnetic = 5;
x = 0;
y = 545;
},
{
angle = 0;
isGlobal = 0;
magnetic = 5;
x = 0;
y = 429;
},
{
angle = 0;
isGlobal = 0;
magnetic = 5;
x = 0;
y = 705;
},
{
angle = 90;
isGlobal = 0;
magnetic = 5;
x = 134;
y = 0;
}
);
};
},
{
color = 5;
glyphname = uni05D2.alt_uni05F3;
layers = (
{
layerId = "FF2DC345-5101-49B6-97F3-57A040F7C387";
shapes = (
{
closed = 1;
nodes = (
(-135,-130,o),
(-75,-66,o),
(54,-66,cs),
(108,-66,o),
(174,-73,o),
(221,-73,cs),
(395,-73,o),
(558,153,o),
(558,335,cs),
(558,356,o),
(542,366,o),
(524,366,cs),
(464,366,o),
(405,351,o),
(405,297,cs),
(405,167,o),
(348,3,o),
(222,3,cs),
(168,3,o),
(104,14,o),
(32,14,cs),
(-175,14,o),
(-211,-58,o),
(-358,-58,cs),
(-405,-58,o),
(-430,-52,o),
(-445,-52,cs),
(-456,-52,o),
(-459,-58,o),
(-459,-64,cs),
(-459,-97,o),
(-388,-130,o),
(-283,-130,cs)
);
},
{
closed = 1;
nodes = (
(221,701,o),
(381,873,o),
(381,911,cs),
(381,941,o),
(335,960,o),
(306,960,cs),
(287,960,o),
(275,951,o),
(269,942,cs),
(182,804,o),
(123,761,o),
(123,729,cs),
(123,713,o),
(138,701,o),
(159,701,cs)
);
}
);
width = 608;
},
{
associatedMasterId = "FF2DC345-5101-49B6-97F3-57A040F7C387";
layerId = "688BE758-80D8-4EA7-9175-E8AC9F99B18B";
name = "Aug 30, 22, 18:35";
shapes = (
{
closed = 1;
nodes = (
(-261,-130,o),
(-237,-129,o),
(-210,-124,cs),
(-130,-115,o),
(-88,-79,o),
(11,-69,cs),
(24,-67,o),
(38,-66,o),
(54,-66,cs),
(108,-66,o),
(174,-73,o),
(221,-73,cs),
(395,-73,o),
(558,153,o),
(558,335,cs),
(558,356,o),
(542,366,o),
(524,366,cs),
(464,366,o),
(405,351,o),
(405,297,cs),
(405,167,o),
(348,3,o),
(222,3,cs),
(168,3,o),
(104,14,o),
(32,14,cs),
(15,14,o),
(-1,14,o),
(-18,12,cs),
(-202,-1,o),
(-214,-58,o),
(-358,-58,cs),
(-382,-58,o),
(-409,-57,o),
(-442,-52,cs),
(-444,-52,o),
(-445,-52,o),
(-445,-52,cs),
(-456,-52,o),
(-459,-58,o),
(-459,-64,cs),
(-459,-66,o),
(-459,-67,o),
(-459,-69,cs),
(-454,-97,o),
(-388,-130,o),
(-283,-130,cs)
);
},
{
closed = 1;
nodes = (
(165,701,o),
(170,702,o),
(176,704,cs),
(228,714,o),
(330,825,o),
(375,891,cs),
(380,897,o),
(381,903,o),
(381,911,cs),
(381,923,o),
(374,938,o),
(351,948,cs),
(333,957,o),
(318,960,o),
(306,960,cs),
(287,960,o),
(275,951,o),
(269,942,cs),
(185,815,o),
(132,762,o),
(123,737,cs),
(123,734,o),
(123,731,o),
(123,729,cs),
(123,713,o),
(138,701,o),
(159,701,cs)
);
}
);
visible = 1;
width = 608;
}
);
},
{
color = 5;
glyphname = uni05D3.alt_uni05F3;
layers = (
{
layerId = "FF2DC345-5101-49B6-97F3-57A040F7C387";
shapes = (
{
closed = 1;
nodes = (
(366,0,o),
(452,147,o),
(452,299,cs),
(452,426,o),
(381,456,o),
(303,456,cs),
(248,456,o),
(168,435,o),
(120,435,cs),
(32,435,o),
(15,471,o),
(-16,471,cs),
(-55,471,o),
(-88,447,o),
(-88,408,cs),
(-88,375,o),
(-61,347,o),
(11,347,cs),
(69,347,o),
(177,378,o),
(230,378,cs),
(281,378,o),
(317,357,o),
(317,285,cs),
(317,204,o),
(285,80,o),
(194,63,cs),
(177,60,o),
(162,42,o),
(162,27,cs),
(162,12,o),
(174,0,o),
(204,0,cs)
);
},
{
closed = 1;
nodes = (
(264,701,o),
(423,875,o),
(423,911,cs),
(423,941,o),
(377,960,o),
(348,960,cs),
(329,960,o),
(317,951,o),
(311,942,cs),
(227,815,o),
(164,756,o),
(164,729,cs),
(164,713,o),
(179,701,o),
(201,701,cs)
);
}
);
width = 500;
},
{
associatedMasterId = "FF2DC345-5101-49B6-97F3-57A040F7C387";
layerId = "AEE58CF8-245A-4F12-8E07-3C53F758CD75";
name = "Aug 30, 22, 15:00";
shapes = (
{
closed = 1;
nodes = (
(353,0,o),
(441,131,o),
(452,270,cs),
(452,281,o),
(452,290,o),
(452,299,cs),
(452,426,o),
(381,456,o),
(303,456,cs),
(239,456,o),
(168,437,o),
(125,435,cs),
(123,435,o),
(122,435,o),
(120,435,cs),
(21,435,o),
(23,471,o),
(-16,471,cs),
(-22,471,o),
(-31,470,o),
(-42,468,cs),
(-69,461,o),
(-88,434,o),
(-88,408,cs),
(-88,377,o),
(-61,347,o),
(11,347,cs),
(21,347,o),
(32,348,o),
(44,350,cs),
(105,356,o),
(176,378,o),
(230,378,cs),
(281,378,o),
(317,357,o),
(317,285,cs),
(317,276,o),
(317,266,o),
(315,255,cs),
(305,147,o),
(261,75,o),
(194,63,cs),
(177,60,o),
(162,42,o),
(162,27,cs),
(162,12,o),
(174,0,o),
(204,0,cs)
);
},
{
closed = 1;
nodes = (
(207,701,o),
(212,702,o),
(218,704,cs),
(269,714,o),
(372,825,o),
(417,891,cs),
(422,897,o),
(423,903,o),
(423,911,cs),
(423,923,o),
(416,938,o),
(393,948,cs),
(375,957,o),
(360,960,o),
(348,960,cs),
(329,960,o),
(317,951,o),
(311,942,cs),
(227,815,o),
(174,762,o),
(165,737,cs),
(165,734,o),
(164,731,o),
(164,729,cs),
(164,713,o),
(179,701,o),
(201,701,cs)
);
}
);
visible = 1;
width = 500;
}
);
},
{
color = 10;
export = 0;
glyphname = uni05D2.alt_quoteright;
layers = (
{
layerId = "FF2DC345-5101-49B6-97F3-57A040F7C387";
shapes = (
{
closed = 1;
nodes = (
(-261,-130,o),
(-237,-129,o),
(-210,-124,cs),
(-130,-115,o),
(-88,-79,o),
(11,-69,cs),
(24,-67,o),
(38,-66,o),
(54,-66,cs),
(108,-66,o),
(174,-73,o),
(221,-73,cs),
(395,-73,o),
(558,153,o),
(558,335,cs),
(558,356,o),
(542,366,o),
(524,366,cs),
(464,366,o),
(405,351,o),
(405,297,cs),
(405,167,o),
(348,3,o),
(222,3,cs),
(168,3,o),
(104,14,o),
(32,14,cs),
(15,14,o),
(-1,14,o),
(-18,12,cs),
(-202,-1,o),
(-214,-58,o),
(-358,-58,cs),
(-382,-58,o),
(-409,-57,o),
(-442,-52,cs),
(-444,-52,o),
(-445,-52,o),
(-445,-52,cs),
(-456,-52,o),
(-459,-58,o),
(-459,-64,cs),
(-459,-66,o),
(-459,-67,o),
(-459,-69,cs),
(-454,-97,o),
(-388,-130,o),
(-283,-130,cs)
);
},
{
closed = 1;
nodes = (
(165,701,o),
(170,702,o),
(176,704,cs),
(228,714,o),
(330,825,o),
(375,891,cs),
(380,897,o),
(381,903,o),
(381,911,cs),
(381,923,o),
(374,938,o),
(351,948,cs),
(333,957,o),
(318,960,o),
(306,960,cs),
(287,960,o),
(275,951,o),
(269,942,cs),
(185,815,o),
(132,762,o),
(123,737,cs),
(123,734,o),
(123,731,o),
(123,729,cs),
(123,713,o),
(138,701,o),
(159,701,cs)
);
}
);
width = 608;
}
);
},
{
color = 10;
export = 0;
glyphname = uni05D3.alt_quoteright;
layers = (
{
layerId = "FF2DC345-5101-49B6-97F3-57A040F7C387";
shapes = (
{
closed = 1;
nodes = (
(353,0,o),
(441,131,o),
(452,270,cs),
(452,281,o),
(452,290,o),
(452,299,cs),
(452,426,o),
(381,456,o),
(303,456,cs),
(239,456,o),
(168,437,o),
(125,435,cs),
(123,435,o),
(122,435,o),
(120,435,cs),
(21,435,o),
(23,471,o),
(-16,471,cs),
(-22,471,o),
(-31,470,o),
(-42,468,cs),
(-69,461,o),
(-88,434,o),
(-88,408,cs),
(-88,377,o),
(-61,347,o),
(11,347,cs),
(21,347,o),
(32,348,o),
(44,350,cs),
(105,356,o),
(176,378,o),
(230,378,cs),
(281,378,o),
(317,357,o),
(317,285,cs),
(317,276,o),
(317,266,o),
(315,255,cs),
(305,147,o),
(261,75,o),
(194,63,cs),
(177,60,o),
(162,42,o),
(162,27,cs),
(162,12,o),
(174,0,o),
(204,0,cs)
);
},
{
closed = 1;
nodes = (
(207,701,o),
(212,702,o),
(218,704,cs),
(269,714,o),
(372,825,o),
(417,891,cs),
(422,897,o),
(423,903,o),
(423,911,cs),
(423,923,o),
(416,938,o),
(393,948,cs),
(375,957,o),
(360,960,o),
(348,960,cs),
(329,960,o),
(317,951,o),
(311,942,cs),
(227,815,o),
(174,762,o),
(165,737,cs),
(165,734,o),
(164,731,o),
(164,729,cs),
(164,713,o),
(179,701,o),
(201,701,cs)
);
}
);
width = 500;
}
);
},
{
color = 10;
export = 0;
glyphname = uni05D2.alt_quotesingle;
layers = (
{
layerId = "FF2DC345-5101-49B6-97F3-57A040F7C387";
shapes = (
{
closed = 1;
nodes = (
(-261,-130,o),
(-237,-129,o),
(-210,-124,cs),
(-130,-115,o),
(-88,-79,o),
(11,-69,cs),
(24,-67,o),
(38,-66,o),
(54,-66,cs),
(108,-66,o),
(174,-73,o),
(221,-73,cs),
(395,-73,o),
(558,153,o),
(558,335,cs),
(558,356,o),
(542,366,o),
(524,366,cs),
(464,366,o),
(405,351,o),
(405,297,cs),
(405,167,o),
(348,3,o),
(222,3,cs),
(168,3,o),
(104,14,o),
(32,14,cs),
(15,14,o),
(-1,14,o),
(-18,12,cs),
(-202,-1,o),
(-214,-58,o),
(-358,-58,cs),
(-382,-58,o),
(-409,-57,o),
(-442,-52,cs),
(-444,-52,o),
(-445,-52,o),
(-445,-52,cs),
(-456,-52,o),
(-459,-58,o),
(-459,-64,cs),
(-459,-66,o),
(-459,-67,o),
(-459,-69,cs),
(-454,-97,o),
(-388,-130,o),
(-283,-130,cs)
);
},
{
closed = 1;
nodes = (
(165,701,o),
(170,702,o),
(176,704,cs),
(228,714,o),
(330,825,o),
(375,891,cs),
(380,897,o),
(381,903,o),
(381,911,cs),
(381,923,o),
(374,938,o),
(351,948,cs),
(333,957,o),
(318,960,o),
(306,960,cs),
(287,960,o),
(275,951,o),
(269,942,cs),
(185,815,o),
(132,762,o),
(123,737,cs),
(123,734,o),
(123,731,o),
(123,729,cs),
(123,713,o),
(138,701,o),
(159,701,cs)
);
}
);
width = 608;
}
);
},
{
color = 10;
export = 0;
glyphname = uni05D3.alt_quotesingle;
layers = (
{
layerId = "FF2DC345-5101-49B6-97F3-57A040F7C387";
shapes = (
{
closed = 1;
nodes = (
(353,0,o),
(441,131,o),
(452,270,cs),
(452,281,o),
(452,290,o),
(452,299,cs),
(452,426,o),
(381,456,o),
(303,456,cs),
(239,456,o),
(168,437,o),
(125,435,cs),
(123,435,o),
(122,435,o),
(120,435,cs),
(21,435,o),
(23,471,o),
(-16,471,cs),
(-22,471,o),
(-31,470,o),
(-42,468,cs),
(-69,461,o),
(-88,434,o),
(-88,408,cs),
(-88,377,o),
(-61,347,o),
(11,347,cs),
(21,347,o),
(32,348,o),
(44,350,cs),
(105,356,o),
(176,378,o),
(230,378,cs),
(281,378,o),
(317,357,o),
(317,285,cs),
(317,276,o),
(317,266,o),
(315,255,cs),
(305,147,o),
(261,75,o),
(194,63,cs),
(177,60,o),
(162,42,o),
(162,27,cs),
(162,12,o),
(174,0,o),
(204,0,cs)
);
},
{
closed = 1;
nodes = (
(207,701,o),
(212,702,o),
(218,704,cs),
(269,714,o),
(372,825,o),
(417,891,cs),
(422,897,o),
(423,903,o),
(423,911,cs),
(423,923,o),
(416,938,o),
(393,948,cs),
(375,957,o),
(360,960,o),
(348,960,cs),
(329,960,o),
(317,951,o),
(311,942,cs),
(227,815,o),
(174,762,o),
(165,737,cs),
(165,734,o),
(164,731,o),
(164,729,cs),
(164,713,o),
(179,701,o),
(201,701,cs)
);
}
);
width = 500;
}
);
},
{
color = 5;
glyphname = "alef-hb";
kernLeft = "alef-hb";
kernRight = "alef-hb";
layers = (
{
anchors = (
{
name = bottom;
pos = (128,0);
},
{
name = bottomleft;
pos = (38,0);
},
{
name = center;
pos = (264,180);
},
{
name = top;
pos = (440,780);
},
{
name = topleft;
pos = (128,780);
}
);
layerId = "FF2DC345-5101-49B6-97F3-57A040F7C387";
shapes = (
{
closed = 1;
nodes = (
(165,-1,o),
(303,692,o),
(372,843,cs),
(383,866,o),
(399,873,o),
(416,873,cs),
(428,873,o),
(437,870,o),
(447,870,cs),
(500,870,o),
(527,930,o),
(527,983,cs),
(527,1022,o),
(507,1050,o),
(456,1050,cs),
(246,1050,o),
(69,90,o),
(-91,62,cs),
(-108,59,o),
(-123,41,o),
(-123,26,cs),
(-123,11,o),
(-112,-1,o),
(-82,-1,cs)
);
}
);
width = 234;
},
{
anchors = (
{
name = bottom;
pos = (128,0);
},
{
name = bottomleft;
pos = (38,0);
},
{
name = center;
pos = (264,180);
},
{
name = top;
pos = (440,780);
},
{
name = topleft;
pos = (128,780);
}
);
associatedMasterId = "FF2DC345-5101-49B6-97F3-57A040F7C387";
layerId = "5CF4FD32-8DD9-4A99-A5D3-1AF5D90F9257";
name = "Mar 9, 22, 23:11";
shapes = (
{
closed = 1;
nodes = (
(303,692,o),
(165,-1,o),
(-82,-1,cs),
(-112,-1,o),
(-123,11,o),
(-123,26,cs),
(-123,41,o),
(-108,59,o),
(-91,62,cs),
(69,90,o),
(246,1050,o),
(456,1050,cs),
(507,1050,o),
(527,1022,o),
(527,983,cs),
(527,930,o),
(500,870,o),
(447,870,cs),
(443,870,o),
(437,870,o),
(431,872,cs),
(426,873,o),
(420,873,o),
(416,873,cs),
(398,873,o),
(383,866,o),
(372,843,cs)
);
}
);
visible = 1;
width = 234;
}
);
unicode = 1488;
userData = {
com.typemytype.robofont.guides = (
{
angle = 0;
isGlobal = 0;
magnetic = 5;
x = 0;
y = 571;
},
{
angle = 90;
isGlobal = 0;
magnetic = 5;
x = 50;
y = 0;
},
{
angle = 90;
isGlobal = 0;
magnetic = 5;
x = 478;
y = 0;
}
);
};
},
{
color = 5;
glyphname = "bet-hb";
kernLeft = bethebrew;
kernRight = bethebrew;
layers = (
{
anchors = (
{
name = bottom;
pos = (230,0);
},
{
name = bottomleft;
pos = (30,0);
},
{
name = center;
pos = (140,167);
},
{
name = top;
pos = (249,479);
},
{
name = topleft;
pos = (68,335);
}
);
layerId = "FF2DC345-5101-49B6-97F3-57A040F7C387";
shapes = (
{
closed = 1;
nodes = (
(273,0,o),
(407,117,o),
(407,266,cs),
(407,374,o),
(299,419,o),
(204,419,cs),
(108,419,o),
(14,354,o),
(14,321,cs),
(14,308,o),
(26,300,o),
(39,300,cs),
(77,300,o),
(99,348,o),
(177,348,cs),
(231,348,o),
(278,321,o),
(278,258,cs),
(278,153,o),
(189,77,o),
(83,77,cs),
(-18,77,o),
(-63,131,o),
(-99,131,cs),
(-111,131,o),
(-117,125,o),
(-117,114,cs),
(-117,78,o),
(-48,0,o),
(99,0,cs)
);
}
);
userData = {
com.schriftgestaltung.hints = (
{
horizontal = 1;
options = 0;
origin = (
0,
16
);
stem = -2;
type = Tag;
}
);
};
width = 458;
},
{
anchors = (
{
name = bottom;
pos = (230,0);
},
{
name = bottomleft;
pos = (30,0);
},
{
name = center;
pos = (140,167);
},
{
name = top;
pos = (408,330);
},
{
name = topleft;
pos = (30,330);
}
);
associatedMasterId = "FF2DC345-5101-49B6-97F3-57A040F7C387";
layerId = "CA4CA57D-EA13-4938-A2EA-9FC29D217E6A";
name = "Mar 10, 22, 08:52";
shapes = (
{
closed = 1;
nodes = (
(-48,0,o),
(-117,78,o),
(-117,114,cs),
(-117,125,o),
(-111,131,o),
(-99,131,cs),
(-94,131,o),
(-90,131,o),
(-85,129,cs),
(-63,122,o),
(-3,77,o),
(83,77,cs),
(89,77,o),
(95,77,o),
(101,77,cs),
(192,84,o),
(278,156,o),
(278,246,cs),
(278,314,o),
(245,348,o),
(177,348,cs),
(119,348,o),
(93,324,o),
(68,309,cs),
(56,303,o),
(47,300,o),
(39,300,cs),
(27,300,o),
(18,306,o),
(15,314,cs),
(14,317,o),
(14,318,o),
(14,321,cs),
(14,354,o),
(108,419,o),
(204,419,cs),
(299,419,o),
(407,374,o),
(407,266,cs),
(407,117,o),
(273,0,o),
(99,0,cs)
);
}
);
userData = {
com.schriftgestaltung.hints = (
{
horizontal = 1;
options = 0;
origin = (
0,
16
);
stem = -2;
type = Tag;
}
);
};
visible = 1;
width = 458;
}
);
unicode = 1489;
userData = {
com.typemytype.robofont.guides = (
{
angle = 0;
isGlobal = 0;
magnetic = 5;
x = 0;
y = 571;
},
{
angle = 90;
isGlobal = 0;
magnetic = 5;
x = 40;
y = 0;
},
{
angle = 90;
isGlobal = 0;
magnetic = 5;
x = 516;
y = 0;
}
);
};
},
{
color = 5;
glyphname = "gimel-hb";
kernLeft = gimelhebrew;
kernRight = gimelhebrew;
layers = (
{
anchors = (
{
name = bottom;
pos = (473,0);
},
{
name = bottomleft;
pos = (156,0);
},
{
name = center;
pos = (470,167);
},
{
name = top;
pos = (812,444);
},
{
name = topleft;
pos = (221,207);
}
);
layerId = "FF2DC345-5101-49B6-97F3-57A040F7C387";
shapes = (
{
closed = 1;
nodes = (
(662,-61,o),
(828,153,o),
(828,335,cs),
(828,356,o),
(812,366,o),
(795,366,cs),
(735,366,o),
(677,351,o),
(677,297,cs),
(677,167,o),
(623,17,o),
(498,17,cs),
(431,17,o),
(332,80,o),
(252,80,cs),
(177,80,o),
(110,27,o),
(9,27,cs),
(-75,27,o),
(-114,72,o),
(-172,72,cs),
(-186,72,o),
(-189,68,o),
(-189,57,cs),
(-189,21,o),
(-73,-57,o),
(77,-57,cs),
(138,-57,o),
(233,-9,o),
(281,-9,cs),
(341,-9,o),
(428,-61,o),
(488,-61,cs)
);
}
);
userData = {
com.schriftgestaltung.hints = (
{
horizontal = 1;
options = 0;
place = (
15,
0
);
stem = -2;
type = Tag;
}
);
};
width = 878;
},
{
anchors = (
{
name = bottom;
pos = (473,0);
},
{
name = bottomleft;
pos = (156,0);
},
{
name = center;
pos = (470,167);
},
{
name = top;
pos = (812,444);
},
{
name = topleft;
pos = (221,207);
}
);
associatedMasterId = "FF2DC345-5101-49B6-97F3-57A040F7C387";
layerId = "D2446033-459D-40D6-AEA3-5F38DD58BE67";
name = "Mar 10, 22, 18:55";
shapes = (
{
closed = 1;
nodes = (
(-73,-57,o),
(-189,21,o),
(-189,57,cs),
(-189,68,o),
(-186,72,o),
(-172,72,cs),
(-114,72,o),
(-75,27,o),
(9,27,cs),
(110,27,o),
(177,80,o),
(252,80,cs),
(332,80,o),
(431,17,o),
(498,17,cs),
(623,17,o),
(677,167,o),
(677,297,cs),
(677,351,o),
(735,366,o),
(795,366,cs),
(812,366,o),
(828,356,o),
(828,335,cs),
(828,153,o),
(662,-61,o),
(488,-61,cs),
(428,-61,o),
(341,-9,o),
(281,-9,cs),
(233,-9,o),
(138,-57,o),
(77,-57,cs)
);
}
);
userData = {
com.schriftgestaltung.hints = (
{
horizontal = 1;
options = 0;
place = (
15,
0
);
stem = -2;
type = Tag;
}
);
};
visible = 1;
width = 878;
}
);
unicode = 1490;
userData = {
com.typemytype.robofont.guides = (
{
angle = 90;
isGlobal = 0;
magnetic = 5;
x = 55;
y = 0;
}
);
};
},
{
color = 5;
glyphname = "dalet-hb";
kernLeft = dalethebrew;
kernRight = dalethebrew;
layers = (
{
anchors = (
{
name = bottom;
pos = (165,0);
},
{
name = bottomleft;
pos = (66,0);
},
{
name = center;
pos = (0,225);
},
{
name = top;
pos = (278,548);
},
{
name = topleft;
pos = (36,455);
}
);
layerId = "FF2DC345-5101-49B6-97F3-57A040F7C387";
shapes = (
{
closed = 1;
nodes = (
(204,0,o),
(293,174,o),
(293,296,cs),
(293,471,o),
(83,516,o),
(-30,524,cs),
(-150,533,o),
(-246,594,o),
(-277,594,cs),
(-291,594,o),
(-297,588,o),
(-297,578,cs),
(-297,548,o),
(-241,492,o),
(-67,462,cs),
(74,438,o),
(158,422,o),
(158,281,cs),
(158,189,o),
(119,78,o),
(32,63,cs),
(15,60,o),
(0,42,o),
(0,27,cs),
(0,12,o),
(12,0,o),
(42,0,cs)
);
}
);
userData = {
com.schriftgestaltung.hints = (
{
horizontal = 1;
options = 0;
place = (
513,
0
);
stem = -2;
type = Tag;
}
);
};
width = 341;
},
{
anchors = (
{
name = bottom;
pos = (165,0);
},
{
name = bottomleft;
pos = (66,0);
},
{
name = center;
pos = (278,390);
},
{
name = top;
pos = (239,626);
},
{
name = topleft;
pos = (36,495);
}
);
associatedMasterId = "FF2DC345-5101-49B6-97F3-57A040F7C387";
layerId = "3E73F148-554D-4CAB-B0AD-3DCAA1113238";
name = "Mar 10, 22, 19:16";
shapes = (
{
closed = 1;
nodes = (
(83,516,o),
(293,471,o),
(293,296,cs),
(293,174,o),
(204,0,o),
(42,0,cs),
(12,0,o),
(0,12,o),
(0,27,cs),
(0,42,o),
(15,60,o),
(32,63,cs),
(119,78,o),
(146,173,o),
(158,281,cs),
(158,288,o),
(158,297,o),
(158,303,cs),
(158,428,o),
(41,444,o),
(-67,462,cs),
(-241,492,o),
(-297,548,o),
(-297,578,cs),
(-297,588,o),
(-289,594,o),
(-277,594,cs),
(-276,594,o),
(-274,594,o),
(-274,594,cs),
(-243,591,o),
(-150,533,o),
(-30,524,cs)
);
}
);
userData = {
com.schriftgestaltung.hints = (
{
horizontal = 1;
options = 0;
place = (
513,
0
);
stem = -2;
type = Tag;
}
);
};
visible = 1;
width = 341;
}
);
unicode = 1491;
userData = {
com.typemytype.robofont.guides = (
{
angle = 0;
isGlobal = 0;
magnetic = 5;
x = 0;
y = 571;
},
{
angle = 90;
isGlobal = 0;
magnetic = 5;
x = 30;
y = 0;
},
{
angle = 90;
isGlobal = 0;
magnetic = 5;
x = 496;
y = 0;
}
);
};
},
{
color = 5;
glyphname = "he-hb";
kernLeft = hethebrew;
kernRight = vavhebrew;
layers = (
{
anchors = (
{
name = bottom;
pos = (345,0);
},
{
name = bottomleft;
pos = (45,0);
},
{
name = center;
pos = (332,218);
},
{
name = top;
pos = (567,377);
},
{
name = topleft;
pos = (161,119);
}
);
layerId = "FF2DC345-5101-49B6-97F3-57A040F7C387";
shapes = (
{
closed = 1;
nodes = (
(107,-99,o),
(113,-90,o),
(113,-70,cs),
(113,-54,o),
(105,-24,o),
(105,0,cs),
(105,32,o),
(117,57,o),
(174,57,cs),
(242,57,o),
(302,21,o),
(383,21,cs),
(531,21,o),
(653,141,o),
(653,302,cs),
(653,324,o),
(635,335,o),
(618,335,cs),
(558,335,o),
(501,320,o),
(501,266,cs),
(501,159,o),
(464,87,o),
(369,87,cs),
(285,87,o),
(185,134,o),
(105,134,cs),
(3,134,o),
(-12,81,o),
(-12,27,cs),
(-12,-28,o),
(15,-99,o),
(80,-99,cs)
);
}
);
userData = {
com.schriftgestaltung.Glyphs.glyph.rightMetricsKey = "het-hb";
com.schriftgestaltung.hints = (
{
horizontal = 1;
options = 0;
origin = (
0,
11
);
stem = -2;
type = Tag;
}
);
};
width = 701;
},
{
anchors = (
{
name = bottom;
pos = (345,0);
},
{
name = bottomleft;
pos = (45,0);
},
{
name = center;
pos = (342,218);
},
{
name = top;
pos = (567,377);
},
{
name = topleft;
pos = (161,119);
}
);
associatedMasterId = "FF2DC345-5101-49B6-97F3-57A040F7C387";
layerId = "F2D27739-EAA6-4AFF-B28E-06E1E8522342";
name = "Mar 10, 22, 20:30";
shapes = (
{
closed = 1;
nodes = (
(185,134,o),
(285,87,o),
(369,87,cs),
(389,87,o),
(410,90,o),
(428,98,cs),
(459,110,o),
(501,168,o),
(501,266,cs),
(501,320,o),
(558,335,o),
(618,335,cs),
(635,335,o),
(653,324,o),
(653,302,cs),
(653,159,o),
(558,54,o),
(446,29,cs),
(423,23,o),
(402,21,o),
(383,21,cs),
(302,21,o),
(242,57,o),
(174,57,cs),
(117,57,o),
(105,29,o),
(105,-3,cs),
(105,-27,o),
(113,-54,o),
(113,-70,cs),
(113,-88,o),
(113,-99,o),
(80,-99,cs),
(24,-99,o),
(-9,-40,o),
(-12,12,cs),
(-12,17,o),
(-12,23,o),
(-12,27,cs),
(-12,81,o),
(3,134,o),
(105,134,cs)
);
}
);
userData = {
com.schriftgestaltung.Glyphs.glyph.rightMetricsKey = "het-hb";
com.schriftgestaltung.hints = (
{
horizontal = 1;
options = 0;
origin = (
0,
11
);
stem = -2;
type = Tag;
}
);
};
visible = 1;
width = 701;
}
);
unicode = 1492;
userData = {
com.typemytype.robofont.guides = (
{
angle = 90;
isGlobal = 0;
magnetic = 5;
x = 70;
y = 0;
}
);
};
},
{
color = 5;
glyphname = "vav-hb";
kernLeft = vavhebrew;
kernRight = vavhebrew;
layers = (
{
anchors = (
{
name = bottom;
pos = (-25,0);
},
{
name = bottomleft;
pos = (-64,0);
},
{
name = center;
pos = (-55,236);
},
{
name = top;
pos = (186,315);
},
{
name = topleft;
pos = (263,315);
}
);
layerId = "FF2DC345-5101-49B6-97F3-57A040F7C387";
shapes = (
{
closed = 1;
nodes = (
(30,0,o),
(201,320,o),
(201,384,cs),
(201,419,o),
(177,419,o),
(144,419,cs),
(111,419,o),
(75,419,o),
(65,383,cs),
(26,236,o),
(-61,53,o),
(-61,24,cs),
(-61,11,o),
(-58,0,o),
(-34,0,cs)
);
}
);
userData = {
com.schriftgestaltung.hints = (
{
horizontal = 1;
options = 0;
origin = (
0,
4
);
stem = -2;
type = Tag;
}
);
};
width = 251;
},
{
anchors = (
{
name = bottom;
pos = (185,0);
},
{
name = bottomleft;
pos = (30,0);
},
{
name = center;
pos = (6,390);
},
{
name = top;
pos = (186,780);
},
{
name = topleft;
pos = (263,780);
}
);
associatedMasterId = "FF2DC345-5101-49B6-97F3-57A040F7C387";
layerId = "6035867B-48BD-40D2-9757-7A3CBB4BE75A";
name = "Mar 16, 22, 20:54";
shapes = (
{
closed = 1;
nodes = (
(201,344,o),
(137,210,o),
(74,113,cs),
(33,48,o),
(-6,0,o),
(-30,0,cs),
(-61,0,o),
(-61,11,o),
(-61,29,cs),
(-61,50,o),
(26,236,o),
(65,383,cs),
(75,417,o),
(107,419,o),
(140,419,cs),
(143,419,o),
(143,419,o),
(144,419,cs),
(177,419,o),
(201,419,o),
(201,384,cs)
);
}
);
userData = {
com.schriftgestaltung.hints = (
{
horizontal = 1;
options = 0;
origin = (
0,
4
);
stem = -2;
type = Tag;
}
);
};
visible = 1;
width = 251;
}
);
unicode = 1493;
userData = {
com.typemytype.robofont.guides = (
{
angle = 0;
isGlobal = 0;
magnetic = 5;
x = 0;
y = 571;
}
);
};
},
{
color = 5;
glyphname = "zayin-hb";
kernLeft = zayinhebrew;
kernRight = zayinhebrew;
layers = (
{
anchors = (
{
name = bottom;
pos = (57,0);
},
{
name = bottomleft;
pos = (-133,0);
},
{
name = center;
pos = (50,248);
},
{
name = top;
pos = (311,504);
},
{
name = topleft;
pos = (122,504);
}
);
layerId = "FF2DC345-5101-49B6-97F3-57A040F7C387";
shapes = (
{
closed = 1;
nodes = (
(0,-1,o),
(29,83,o),
(143,254,cs),
(158,278,o),
(189,278,o),
(213,278,cs),
(254,278,o),
(299,336,o),
(299,398,cs),
(299,429,o),
(276,458,o),
(243,458,cs),
(77,458,o),
(-76,47,o),
(-76,30,cs),
(-76,9,o),
(-58,-1,o),
(-42,-1,cs)
);
}
);
userData = {
com.schriftgestaltung.hints = (
{
horizontal = 1;
options = 0;
place = (
22,
0
);
stem = -2;
type = Tag;
}
);
};
width = 300;
},
{
anchors = (
{
name = bottom;
pos = (-33,0);
},
{
name = bottomleft;
pos = (-133,0);
},
{
name = center;
pos = (-39,263);
},
{
name = top;
pos = (311,504);
},
{
name = topleft;
pos = (92,504);
}
);
associatedMasterId = "FF2DC345-5101-49B6-97F3-57A040F7C387";
layerId = "E8637BC1-6591-4DB7-9F96-0BA611BCFE2B";
name = "Mar 16, 22, 21:19";
shapes = (
{
closed = 1;
nodes = (
(-58,-1,o),
(-76,9,o),
(-76,30,cs),
(-76,47,o),
(77,458,o),
(243,458,cs),
(276,458,o),
(299,429,o),
(299,398,cs),
(299,336,o),
(254,278,o),
(213,278,cs),
(189,278,o),
(158,278,o),
(143,254,cs),
(29,83,o),
(0,-1,o),
(-42,-1,cs)
);
}
);
userData = {
com.schriftgestaltung.hints = (
{
horizontal = 1;
options = 0;
place = (
22,
0
);
stem = -2;
type = Tag;
}
);
};
width = 300;
}
);
unicode = 1494;
userData = {
com.typemytype.robofont.guides = (
{
angle = 0;
isGlobal = 0;
magnetic = 5;
x = 0;
y = 983;
},
{
angle = 0;
isGlobal = 0;
magnetic = 5;
x = 0;
y = 983;
},
{
angle = 0;
isGlobal = 0;
magnetic = 5;
x = 0;
y = 571;
}
);
};
},
{
color = 5;
glyphname = "het-hb";
kernLeft = hethebrew;
kernRight = vavhebrew;
layers = (
{
anchors = (
{
name = bottom;
pos = (179,0);
},
{
name = bottomleft;
pos = (-120,0);
},
{
name = center;
pos = (467,225);
},
{
name = top;
pos = (467,345);
},
{
name = topleft;
pos = (30,345);
}
);
layerId = "FF2DC345-5101-49B6-97F3-57A040F7C387";
shapes = (
{
closed = 1;
nodes = (
(63,0,o),
(189,194,o),
(222,326,c),
(251,341,o),
(285,356,o),
(318,356,cs),
(365,356,o),
(398,342,o),
(398,290,cs),
(398,227,o),
(371,93,o),
(302,57,cs),
(285,48,o),
(276,33,o),
(276,21,cs),
(276,9,o),
(285,0,o),
(302,0,cs),
(431,0,o),
(537,167,o),
(537,305,cs),
(537,398,o),
(456,420,o),
(374,420,cs),
(308,420,o),
(261,407,o),
(230,390,c),
(227,419,o),
(204,419,o),
(174,419,cs),
(141,419,o),
(119,422,o),
(108,384,cs),
(75,264,o),
(0,77,o),
(-75,63,cs),
(-91,60,o),
(-106,42,o),
(-106,27,cs),
(-106,12,o),
(-94,0,o),
(-64,0,cs)
);
}
);
userData = {
com.schriftgestaltung.hints = (
{
horizontal = 1;
options = 0;
origin = (
0,
24
);
stem = -2;
type = Tag;
}
);
};
width = 588;
},
{
anchors = (
{
name = bottom;
pos = (179,0);
},
{
name = bottomleft;
pos = (-120,0);
},
{
name = center;
pos = (467,225);
},
{
name = top;
pos = (467,345);
},
{
name = topleft;
pos = (30,345);
}
);
associatedMasterId = "FF2DC345-5101-49B6-97F3-57A040F7C387";
layerId = "3B666811-0A51-499E-99B8-03DC2181B4A8";
name = "Mar 16, 22, 21:34";
shapes = (
{
closed = 1;
nodes = (
(-94,0,o),
(-106,12,o),
(-106,27,cs),
(-106,42,o),
(-91,60,o),
(-75,63,cs),
(0,77,o),
(75,264,o),
(108,384,cs),
(119,419,o),
(137,419,o),
(171,419,cs),
(173,419,o),
(173,419,o),
(174,419,cs),
(204,419,o),
(227,419,o),
(230,390,c),
(261,407,o),
(308,420,o),
(374,420,cs),
(384,420,o),
(395,420,o),
(405,419,cs),
(474,414,o),
(537,384,o),
(537,305,cs),
(537,167,o),
(431,0,o),
(302,0,cs),
(285,0,o),
(276,9,o),
(276,21,cs),
(276,33,o),
(285,48,o),
(302,57,cs),
(342,78,o),
(384,144,o),
(398,275,cs),
(398,279,o),
(398,285,o),
(398,290,cs),
(398,348,o),
(357,354,o),
(324,356,cs),
(321,356,o),
(320,356,o),
(318,356,cs),
(285,356,o),
(251,341,o),
(222,326,c),
(189,194,o),
(63,0,o),
(-64,0,cs)
);
}
);
userData = {
com.schriftgestaltung.hints = (
{
horizontal = 1;
options = 0;
origin = (
0,
24
);
stem = -2;
type = Tag;
}
);
};
visible = 1;
width = 588;
}
);
unicode = 1495;
userData = {
com.typemytype.robofont.guides = (
{
angle = 0;
isGlobal = 0;
magnetic = 5;
x = 0;
y = 571;
},
{
angle = 90;
isGlobal = 0;
magnetic = 5;
x = 70;
y = 0;
},
{
angle = 90;
isGlobal = 0;
magnetic = 5;
x = 517;
y = 0;
}
);
};
},
{
color = 5;
glyphname = "tet-hb";
kernLeft = tethebrew;
kernRight = tethebrew;
layers = (
{
anchors = (
{
name = bottom;
pos = (201,0);
},
{
name = bottomleft;
pos = (-90,0);
},
{
name = center;
pos = (273,195);
},
{
name = top;
pos = (486,270);
},
{
name = topleft;
pos = (30,270);
}
);
layerId = "FF2DC345-5101-49B6-97F3-57A040F7C387";
shapes = (
{
closed = 1;
nodes = (
(-3,0,o),
(44,59,o),
(77,110,c),
(101,63,o),
(147,30,o),
(221,30,cs),
(395,30,o),
(557,216,o),
(557,396,cs),
(557,417,o),
(539,428,o),
(522,428,cs),
(462,428,o),
(404,413,o),
(404,359,cs),
(404,228,o),
(350,99,o),
(224,99,cs),
(177,99,o),
(143,152,o),
(143,201,cs),
(143,212,o),
(144,224,o),
(149,234,cs),
(174,296,o),
(197,357,o),
(197,372,cs),
(197,408,o),
(174,408,o),
(140,408,cs),
(108,408,o),
(72,407,o),
(62,371,cs),
(21,224,o),
(-61,50,o),
(-61,29,cs),
(-61,11,o),
(-61,0,o),
(-30,0,cs)
);
}
);
userData = {
com.schriftgestaltung.Glyphs.glyph.rightMetricsKey = "kaf-hb";
com.schriftgestaltung.hints = (
{
horizontal = 1;
options = 0;
origin = (
0,
8
);
stem = -2;
type = Tag;
}
);
};
width = 593;
}
);
unicode = 1496;
userData = {
com.typemytype.robofont.guides = (
{
angle = 0;
isGlobal = 0;
magnetic = 5;
x = 0;
y = 571;
},
{
angle = 0;
isGlobal = 0;
magnetic = 5;
x = 0;
y = 581;
},
{
angle = 90;
isGlobal = 0;
magnetic = 5;
x = 196;
y = 0;
},
{
angle = 90;
isGlobal = 0;
magnetic = 5;
x = 65;
y = 0;
}
);
};
},
{
color = 5;
glyphname = "yod-hb";
kernLeft = yodhebrew;
kernRight = yodhebrew;
layers = (
{
anchors = (
{
name = bottom;
pos = (54,0);
},
{
name = bottomleft;
pos = (-90,0);
},
{
name = center;
pos = (80,207);
},
{
name = top;
pos = (176,270);
},
{
name = topleft;
pos = (30,270);
}
);
layerId = "FF2DC345-5101-49B6-97F3-57A040F7C387";
shapes = (
{
closed = 1;
nodes = (
(89,128,o),
(176,239,o),
(176,306,cs),
(176,341,o),
(153,341,o),
(120,341,cs),
(87,341,o),
(51,339,o),
(41,302,cs),
(9,191,o),
(0,176,o),
(0,153,cs),
(0,135,o),
(3,128,o),
(33,128,cs)
);
}
);
userData = {
com.schriftgestaltung.hints = (
{
horizontal = 1;
options = 0;
origin = (
0,
4
);
stem = -2;
type = Tag;
}
);
};
width = 225;
},
{
anchors = (
{
name = bottom;
pos = (54,0);
},
{
name = bottomleft;
pos = (-90,0);
},
{
name = center;
pos = (-55,207);
},
{
name = top;
pos = (176,270);
},
{
name = topleft;
pos = (30,270);
}
);
associatedMasterId = "FF2DC345-5101-49B6-97F3-57A040F7C387";
layerId = "EE1C8EE7-7C03-45D7-9516-9C316EC94C1E";
name = "Mar 16, 22, 22:31";
shapes = (
{
closed = 1;
nodes = (
(3,128,o),
(0,135,o),
(0,153,cs),
(0,176,o),
(0,158,o),
(41,302,cs),
(50,339,o),
(87,341,o),
(120,341,cs),
(153,341,o),
(176,341,o),
(176,306,cs),
(176,239,o),
(89,128,o),
(33,128,cs)
);
}
);
userData = {
com.schriftgestaltung.hints = (
{
horizontal = 1;
options = 0;
origin = (
0,
4
);
stem = -2;
type = Tag;
}
);
};
visible = 1;
width = 225;
}
);
unicode = 1497;
userData = {
com.typemytype.robofont.guides = (
{
angle = 0;
isGlobal = 0;
magnetic = 5;
x = 0;
y = 240;
}
);
};
},
{
color = 5;
glyphname = "finalkaf-hb";
kernLeft = dalethebrew;
kernRight = dalethebrew;
layers = (
{
anchors = (
{
name = bottom;
pos = (482,-43);
},
{
name = bottomleft;
},
{
name = center;
pos = (65,126);
},
{
name = top;
pos = (455,465);
},
{
name = topleft;
pos = (105,465);
}
);
layerId = "FF2DC345-5101-49B6-97F3-57A040F7C387";
shapes = (
{
closed = 1;
nodes = (
(17,-619,o),
(30,-615,o),
(44,-603,cs),
(278,-391,o),
(206,-204,o),
(380,234,cs),
(396,276,o),
(404,309,o),
(404,335,cs),
(404,407,o),
(348,425,o),
(281,425,cs),
(221,425,o),
(150,410,o),
(104,410,cs),
(68,410,o),
(29,447,o),
(-7,447,cs),
(-40,447,o),
(-79,423,o),
(-79,384,cs),
(-79,354,o),
(-54,326,o),
(18,326,cs),
(90,326,o),
(107,347,o),
(188,347,cs),
(236,347,o),
(278,333,o),
(278,290,cs),
(278,276,o),
(275,260,o),
(266,239,cs),
(89,-168,o),
(126,-429,o),
(-7,-562,cs),
(-18,-574,o),
(-24,-585,o),
(-24,-594,cs),
(-24,-609,o),
(-12,-619,o),
(6,-619,cs)
);
}
);
userData = {
com.schriftgestaltung.Glyphs.glyph.rightMetricsKey = "het-hb";
com.schriftgestaltung.hints = (
{
horizontal = 1;
options = 0;
place = (
549,
0
);
stem = -2;
type = Tag;
}
);
};
width = 456;
},
{
anchors = (
{
name = bottom;
pos = (482,-43);
},
{
name = bottomleft;
},
{
name = center;
pos = (65,126);
},
{
name = top;
pos = (455,465);
},
{
name = topleft;
pos = (105,465);
}
);
associatedMasterId = "FF2DC345-5101-49B6-97F3-57A040F7C387";
layerId = "C7828AF6-116C-4B5B-A360-A86E5537C4C4";
name = "Mar 16, 22, 23:11";
shapes = (
{
closed = 1;
nodes = (
(206,-204,o),
(278,-391,o),
(44,-603,cs),
(30,-615,o),
(17,-619,o),
(6,-619,cs),
(-12,-619,o),
(-24,-609,o),
(-24,-594,cs),
(-24,-585,o),
(-18,-574,o),
(-7,-562,cs),
(126,-429,o),
(89,-168,o),
(266,239,cs),
(275,260,o),
(278,276,o),
(278,290,cs),
(278,333,o),
(236,347,o),
(188,347,cs),
(131,347,o),
(65,329,o),
(53,327,cs),
(39,326,o),
(29,326,o),
(18,326,cs),
(-54,326,o),
(-79,354,o),
(-79,384,cs),
(-79,410,o),
(-60,435,o),
(-33,443,cs),
(-24,446,o),
(-15,447,o),
(-7,447,cs),
(32,447,o),
(30,410,o),
(101,410,cs),
(102,410,o),
(102,410,o),
(104,410,cs),
(150,410,o),
(221,425,o),
(281,425,cs),
(348,425,o),
(404,407,o),
(404,335,cs),
(404,309,o),
(396,276,o),
(380,234,cs)
);
}
);
userData = {
com.schriftgestaltung.Glyphs.glyph.rightMetricsKey = "het-hb";
com.schriftgestaltung.hints = (
{
horizontal = 1;
options = 0;
place = (
549,
0
);
stem = -2;
type = Tag;
}
);
};
width = 456;
}
);
unicode = 1498;
userData = {
com.typemytype.robofont.guides = (
{
angle = 0;
isGlobal = 0;
magnetic = 5;
x = 0;
y = 61;
}
);
};
},
{
color = 5;
glyphname = "kaf-hb";
kernLeft = kafhebrew;
kernRight = kafhebrew;
layers = (
{
anchors = (
{
name = bottom;
pos = (120,0);
},
{
name = bottomleft;
pos = (-117,0);
},
{
name = center;
pos = (215,195);
},
{
name = top;
pos = (389,390);
},
{
name = topleft;
pos = (78,390);
}
);
layerId = "FF2DC345-5101-49B6-97F3-57A040F7C387";
shapes = (
{
closed = 1;
nodes = (
(300,0,o),
(434,117,o),
(434,266,cs),
(434,374,o),
(326,419,o),
(231,419,cs),
(89,419,o),
(27,353,o),
(27,308,cs),
(27,281,o),
(45,261,o),
(75,261,cs),
(174,261,o),
(122,357,o),
(221,357,cs),
(284,357,o),
(305,297,o),
(305,246,cs),
(305,153,o),
(206,77,o),
(110,77,cs),
(17,77,o),
(-55,131,o),
(-76,131,cs),
(-84,131,o),
(-90,125,o),
(-90,114,cs),
(-90,78,o),
(-22,0,o),
(125,0,cs)
);
}
);
userData = {
com.schriftgestaltung.hints = (
{
horizontal = 1;
options = 0;
origin = (
0,
6
);
stem = -2;
type = Tag;
}
);
};
width = 483;
}
);
unicode = 1499;
userData = {
com.typemytype.robofont.guides = (
{
angle = 0;
isGlobal = 0;
magnetic = 5;
x = 0;
y = 590;
},
{
angle = 90;
isGlobal = 0;
magnetic = 5;
x = 40;
y = 0;
}
);
};
},
{
color = 5;
glyphname = "lamed-hb";
kernLeft = "lamed-hb";
kernRight = "lamed-hb";
layers = (
{
anchors = (
{
name = bottom;
pos = (246,0);
},
{
name = bottomleft;
pos = (5,0);
},
{
name = center;
pos = (276,566);
},
{
name = top;
pos = (561,885);
},
{
name = topleft;
pos = (237,885);
}
);
layerId = "FF2DC345-5101-49B6-97F3-57A040F7C387";
shapes = (
{
closed = 1;
nodes = (
(314,0,o),
(438,125,o),
(438,222,cs),
(438,249,o),
(425,255,o),
(390,255,cs),
(366,255,o),
(324,255,o),
(311,222,cs),
(276,146,o),
(242,72,o),
(149,72,cs),
(105,72,o),
(77,123,o),
(77,177,cs),
(77,476,o),
(323,974,o),
(419,974,cs),
(444,974,o),
(446,957,o),
(446,938,cs),
(446,701,o),
(146,230,o),
(146,204,cs),
(146,186,o),
(149,180,o),
(167,180,cs),
(267,180,o),
(576,693,o),
(576,929,cs),
(576,1035,o),
(524,1050,o),
(465,1050,cs),
(215,1050,o),
(0,479,o),
(0,207,cs),
(0,156,o),
(15,0,o),
(147,0,cs)
);
}
);
userData = {
com.schriftgestaltung.Glyphs.glyph.rightMetricsKey = "kaf-hb";
};
width = 501;
},
{
anchors = (
{
name = bottom;
pos = (381,0);
},
{
name = bottomleft;
pos = (95,0);
},
{
name = center;
pos = (317,390);
},
{
name = top;
pos = (351,780);
},
{
name = topleft;
pos = (27,780);
}
);
associatedMasterId = "FF2DC345-5101-49B6-97F3-57A040F7C387";
layerId = "6ED3AAE6-1870-4A52-80AB-65CBF77CC9F8";
name = "Mar 19, 22, 22:14";
shapes = (
{
closed = 1;
nodes = (
(446,960,o),
(440,974,o),
(419,974,cs),
(323,974,o),
(77,476,o),
(77,177,cs),
(77,123,o),
(105,72,o),
(149,72,cs),
(242,72,o),
(276,146,o),
(311,222,cs),
(324,255,o),
(366,255,o),
(390,255,cs),
(425,255,o),
(438,249,o),
(438,222,cs),
(438,125,o),
(314,0,o),
(147,0,cs),
(15,0,o),
(0,156,o),
(0,207,cs),
(0,518,o),
(246,1043,o),
(444,1050,cs),
(452,1050,o),
(459,1050,o),
(465,1050,cs),
(524,1050,o),
(576,1035,o),
(576,929,cs),
(576,693,o),
(267,180,o),
(167,180,cs),
(149,180,o),
(146,186,o),
(146,204,cs),
(146,230,o),
(446,701,o),
(446,938,cs),
(446,941,o),
(446,944,o),
(446,947,cs)
);
}
);
userData = {
com.schriftgestaltung.Glyphs.glyph.rightMetricsKey = "kaf-hb";
};
visible = 1;
width = 501;
}
);
unicode = 1500;
userData = {
com.typemytype.robofont.guides = (
{
angle = 0;
isGlobal = 0;
magnetic = 5;
x = 0;
y = 710;
},
{
angle = 90;
isGlobal = 0;
magnetic = 5;
x = 464;
y = 0;
}
);
};
},
{
color = 5;
glyphname = "finalmem-hb";
kernLeft = hethebrew;
kernRight = vavhebrew;
layers = (
{
anchors = (
{
name = bottom;
pos = (207,0);
},
{
name = bottomleft;
pos = (30,0);
},
{
name = center;
pos = (206,201);
},
{
name = top;
pos = (462,435);
},
{
name = topleft;
pos = (30,435);
}
);
layerId = "FF2DC345-5101-49B6-97F3-57A040F7C387";
shapes = (
{
closed = 1;
nodes = (
(354,0,o),
(450,141,o),
(450,266,cs),
(450,350,o),
(398,419,o),
(267,419,cs),
(105,419,o),
(0,312,o),
(0,174,cs),
(0,59,o),
(48,0,o),
(164,0,cs)
);
},
{
closed = 1;
nodes = (
(104,68,o),
(96,128,o),
(96,152,cs),
(96,260,o),
(176,354,o),
(249,354,cs),
(294,354,o),
(323,317,o),
(323,266,cs),
(323,156,o),
(245,68,o),
(159,68,cs)
);
}
);
userData = {
com.schriftgestaltung.Glyphs.glyph.rightMetricsKey = "het-hb";
com.schriftgestaltung.hints = (
{
horizontal = 1;
options = 0;
origin = (
0,
11
);
stem = -2;
type = Tag;
}
);
};
width = 501;
},
{
anchors = (
{
name = bottom;
pos = (462,0);
},
{
name = bottomleft;
pos = (30,0);
},
{
name = center;
pos = (462,390);
},
{
name = top;
pos = (462,780);
},
{
name = topleft;
pos = (30,780);
}
);
associatedMasterId = "FF2DC345-5101-49B6-97F3-57A040F7C387";
layerId = "10F04F7F-5019-4D7E-9125-FCCA3CDFAD73";
name = "Mar 20, 22, 17:14";
shapes = (
{
closed = 1;
nodes = (
(47,0,o),
(0,68,o),
(0,156,cs),
(0,162,o),
(0,168,o),
(0,174,cs),
(9,324,o),
(110,419,o),
(267,419,cs),
(398,419,o),
(450,350,o),
(450,266,cs),
(450,141,o),
(354,0,o),
(164,0,cs)
);
},
{
closed = 1;
nodes = (
(245,68,o),
(323,156,o),
(323,266,cs),
(323,317,o),
(294,354,o),
(249,354,cs),
(179,354,o),
(102,269,o),
(98,158,cs),
(96,155,o),
(96,152,o),
(96,149,cs),
(96,98,o),
(122,68,o),
(159,68,cs)
);
}
);
userData = {
com.schriftgestaltung.Glyphs.glyph.rightMetricsKey = "het-hb";
com.schriftgestaltung.hints = (
{
horizontal = 1;
options = 0;
origin = (
0,
11
);
stem = -2;
type = Tag;
}
);
};
visible = 1;
width = 501;
}
);
unicode = 1501;
userData = {
com.typemytype.robofont.guides = (
{
angle = 0;
isGlobal = 0;
magnetic = 5;
x = 0;
y = 853;
},
{
angle = 0;
isGlobal = 0;
magnetic = 5;
x = 0;
y = 58;
}
);
};
},
{
color = 5;
glyphname = "mem-hb";
kernLeft = hethebrew;
kernRight = memhebrew;
layers = (
{
anchors = (
{
name = bottom;
pos = (182,0);
},
{
name = bottomleft;
pos = (14,0);
},
{
name = center;
pos = (273,191);
},
{
name = top;
pos = (459,420);
},
{
name = topleft;
pos = (254,420);
}
);
layerId = "FF2DC345-5101-49B6-97F3-57A040F7C387";
shapes = (
{
closed = 1;
nodes = (
(-9,0,o),
(26,39,o),
(60,92,c),
(84,44,o),
(117,0,o),
(191,0,cs),
(363,0,o),
(432,120,o),
(521,255,cs),
(536,279,o),
(567,279,o),
(593,279,cs),
(633,279,o),
(678,338,o),
(678,399,cs),
(678,431,o),
(666,456,o),
(635,456,cs),
(408,456,o),
(420,69,o),
(194,69,cs),
(158,69,o),
(129,105,o),
(129,156,cs),
(129,219,o),
(201,344,o),
(201,384,cs),
(201,420,o),
(173,419,o),
(140,419,cs),
(107,419,o),
(75,417,o),
(65,383,cs),
(26,236,o),
(-61,50,o),
(-61,29,cs),
(-61,11,o),
(-61,0,o),
(-30,0,cs)
);
}
);
userData = {
com.schriftgestaltung.Glyphs.glyph.rightMetricsKey = "het-hb";
com.schriftgestaltung.hints = (
{
horizontal = 1;
options = 0;
place = (
15,
0
);
stem = -2;
type = Tag;
}
);
};
width = 678;
},
{
anchors = (
{
name = bottom;
pos = (182,0);
},
{
name = bottomleft;
pos = (14,0);
},
{
name = center;
pos = (273,191);
},
{
name = top;
pos = (459,420);
},
{
name = topleft;
pos = (254,420);
}
);
associatedMasterId = "FF2DC345-5101-49B6-97F3-57A040F7C387";
layerId = "0B404EAC-1ABE-4524-A034-0B59E99B183C";
name = "Mar 20, 22, 20:14";
shapes = (
{
closed = 1;
nodes = (
(201,359,o),
(164,282,o),
(137,204,cs),
(132,188,o),
(129,171,o),
(129,156,cs),
(129,105,o),
(158,69,o),
(194,69,cs),
(420,69,o),
(408,456,o),
(635,456,cs),
(666,456,o),
(678,431,o),
(678,399,cs),
(678,338,o),
(633,279,o),
(593,279,cs),
(567,279,o),
(536,279,o),
(521,255,cs),
(432,120,o),
(363,0,o),
(191,0,cs),
(117,0,o),
(84,44,o),
(60,92,c),
(26,39,o),
(-9,0,o),
(-30,0,cs),
(-61,0,o),
(-61,11,o),
(-61,29,cs),
(-61,50,o),
(26,236,o),
(65,383,cs),
(75,417,o),
(107,419,o),
(140,419,cs),
(173,419,o),
(201,420,o),
(201,384,cs)
);
}
);
userData = {
com.schriftgestaltung.Glyphs.glyph.rightMetricsKey = "het-hb";
com.schriftgestaltung.hints = (
{
horizontal = 1;
options = 0;
place = (
15,
0
);
stem = -2;
type = Tag;
}
);
};
visible = 1;
width = 678;
}
);
unicode = 1502;
userData = {
com.typemytype.robofont.guides = (
{
angle = 90;
isGlobal = 0;
magnetic = 5;
x = 50;
y = 0;
},
{
angle = 90;
isGlobal = 0;
magnetic = 5;
x = 576;
y = 0;
}
);
};
},
{
color = 5;
glyphname = "finalnun-hb";
kernLeft = vavhebrew;
kernRight = vavhebrew;
layers = (
{
anchors = (
{
name = bottom;
pos = (275,0);
},
{
name = bottomleft;
pos = (-45,0);
},
{
name = center;
pos = (132,197);
},
{
name = top;
pos = (335,450);
},
{
name = topleft;
pos = (210,450);
}
);
layerId = "FF2DC345-5101-49B6-97F3-57A040F7C387";
shapes = (
{
closed = 1;
nodes = (
(-190,-619,o),
(-171,-615,o),
(-160,-588,cs),
(-18,-217,o),
(332,335,o),
(332,368,cs),
(332,386,o),
(332,396,o),
(300,396,cs),
(216,396,o),
(-295,-456,o),
(-295,-585,cs),
(-295,-621,o),
(-238,-619,o),
(-214,-619,cs)
);
}
);
userData = {
com.schriftgestaltung.hints = (
{
horizontal = 1;
options = 0;
origin = (
0,
3
);
stem = -2;
type = Tag;
}
);
};
width = 366;
},
{
anchors = (
{
name = bottom;
pos = (185,0);
},
{
name = bottomleft;
pos = (30,0);
},
{
name = center;
pos = (185,390);
},
{
name = top;
pos = (185,780);
},
{
name = topleft;
pos = (30,780);
}
);
associatedMasterId = "FF2DC345-5101-49B6-97F3-57A040F7C387";
layerId = "CF883582-FF79-4BB4-84A4-B52038240EAF";
name = "Mar 20, 22, 20:38";
shapes = (
{
closed = 1;
nodes = (
(332,396,o),
(332,386,o),
(332,368,cs),
(332,335,o),
(-18,-217,o),
(-160,-588,cs),
(-171,-615,o),
(-190,-619,o),
(-214,-619,cs),
(-222,-619,o),
(-231,-619,o),
(-238,-618,cs),
(-240,-618,o),
(-240,-618,o),
(-241,-618,cs),
(-273,-615,o),
(-295,-613,o),
(-295,-585,cs),
(-295,-456,o),
(216,396,o),
(300,396,cs)
);
}
);
userData = {
com.schriftgestaltung.hints = (
{
horizontal = 1;
options = 0;
origin = (
0,
3
);
stem = -2;
type = Tag;
}
);
};
visible = 1;
width = 366;
}
);
unicode = 1503;
},
{
color = 5;
glyphname = "nun-hb";
kernLeft = hethebrew;
kernRight = nunhebrew;
layers = (
{
anchors = (
{
name = bottom;
pos = (66,0);
},
{
name = bottomleft;
pos = (-150,0);
},
{
name = center;
pos = (-30,278);
},
{
name = top;
pos = (305,240);
},
{
name = topleft;
pos = (0,225);
}
);
layerId = "FF2DC345-5101-49B6-97F3-57A040F7C387";
shapes = (
{
closed = 1;
nodes = (
(84,0,o),
(231,263,o),
(231,384,cs),
(231,419,o),
(207,419,o),
(174,419,cs),
(141,419,o),
(105,419,o),
(95,383,cs),
(62,263,o),
(0,77,o),
(-75,63,cs),
(-91,60,o),
(-106,42,o),
(-106,27,cs),
(-106,12,o),
(-94,0,o),
(-64,0,cs)
);
}
);
userData = {
com.schriftgestaltung.hints = (
{
horizontal = 1;
options = 0;
place = (
559,
0
);
stem = -2;
type = Tag;
}
);
};
width = 281;
},
{
anchors = (
{
name = bottom;
pos = (66,0);
},
{
name = bottomleft;
pos = (-150,0);
},
{
name = center;
pos = (0,278);
},
{
name = top;
pos = (305,240);
},
{
name = topleft;
pos = (30,240);
}
);
associatedMasterId = "FF2DC345-5101-49B6-97F3-57A040F7C387";
layerId = "A503DF61-69F2-4334-8541-2661D958BEF7";
name = "Mar 20, 22, 21:37";
shapes = (
{
closed = 1;
nodes = (
(-94,0,o),
(-106,12,o),
(-106,27,cs),
(-106,42,o),
(-91,60,o),
(-75,63,cs),
(0,77,o),
(62,263,o),
(95,383,cs),
(105,417,o),
(137,419,o),
(171,419,cs),
(173,419,o),
(173,419,o),
(174,419,cs),
(207,419,o),
(231,419,o),
(231,384,cs),
(231,263,o),
(84,0,o),
(-64,0,cs)
);
}
);
userData = {
com.schriftgestaltung.hints = (
{
horizontal = 1;
options = 0;
place = (
559,
0
);
stem = -2;
type = Tag;
}
);
};
visible = 1;
width = 281;
}
);
unicode = 1504;
userData = {
com.typemytype.robofont.guides = (
{
angle = 90;
isGlobal = 0;
magnetic = 5;
x = 361;
y = 0;
},
{
angle = 90;
isGlobal = 0;
magnetic = 5;
x = 45;
y = 0;
}
);
};
},
{
color = 5;
glyphname = "samekh-hb";
kernLeft = tethebrew;
kernRight = tethebrew;
layers = (
{
anchors = (
{
name = bottom;
pos = (189,0);
},
{
name = bottomleft;
pos = (30,0);
},
{
name = center;
pos = (252,150);
},
{
name = top;
pos = (473,480);
},
{
name = topleft;
pos = (30,480);
}
);
layerId = "FF2DC345-5101-49B6-97F3-57A040F7C387";
shapes = (
{
closed = 1;
nodes = (
(-9,0,o),
(26,39,o),
(60,92,c),
(84,44,o),
(128,0,o),
(203,0,cs),
(362,0,o),
(510,119,o),
(510,264,cs),
(510,344,o),
(462,419,o),
(327,419,cs),
(281,419,o),
(239,405,o),
(201,383,c),
(200,408,o),
(189,420,o),
(144,420,cs),
(101,420,o),
(74,414,o),
(65,383,cs),
(23,237,o),
(-61,50,o),
(-61,29,cs),
(-61,11,o),
(-55,0,o),
(-30,0,cs)
);
},
{
closed = 1;
nodes = (
(159,69,o),
(131,116,o),
(131,177,cs),
(131,215,o),
(167,345,o),
(281,345,cs),
(342,345,o),
(381,320,o),
(381,258,cs),
(381,177,o),
(311,69,o),
(206,69,cs)
);
}
);
userData = {
com.schriftgestaltung.Glyphs.glyph.rightMetricsKey = "kaf-hb";
com.schriftgestaltung.hints = (
{
horizontal = 1;
options = 0;
origin = (
0,
8
);
stem = -2;
type = Tag;
}
);
};
width = 567;
},
{
anchors = (
{
name = bottom;
pos = (189,0);
},
{
name = bottomleft;
pos = (30,0);
},
{
name = center;
pos = (252,180);
},
{
name = top;
pos = (473,480);
},
{
name = topleft;
pos = (30,480);
}
);
associatedMasterId = "FF2DC345-5101-49B6-97F3-57A040F7C387";
layerId = "8DC807CE-FB60-45A7-901E-66CDA546909C";
name = "Mar 23, 22, 10:56";
shapes = (
{
closed = 1;
nodes = (
(462,419,o),
(510,344,o),
(510,264,cs),
(510,258,o),
(510,252,o),
(509,246,cs),
(494,87,o),
(335,0,o),
(203,0,cs),
(128,0,o),
(84,44,o),
(60,92,c),
(26,39,o),
(-9,0,o),
(-30,0,cs),
(-61,0,o),
(-61,11,o),
(-61,29,cs),
(-61,50,o),
(26,236,o),
(65,383,cs),
(75,417,o),
(107,419,o),
(140,419,cs),
(143,419,o),
(143,419,o),
(144,419,cs),
(177,419,o),
(201,419,o),
(201,384,cs),
(201,384,o),
(201,383,o),
(201,383,c),
(239,405,o),
(281,419,o),
(327,419,c)
);
},
{
closed = 1;
nodes = (
(134,192,o),
(131,180,o),
(131,167,cs),
(131,119,o),
(159,69,o),
(206,69,cs),
(302,69,o),
(374,162,o),
(381,246,cs),
(381,249,o),
(381,254,o),
(381,258,cs),
(381,321,o),
(339,342,o),
(302,344,cs),
(294,345,o),
(288,345,o),
(281,345,cs),
(183,345,o),
(164,288,o),
(137,204,cs)
);
}
);
userData = {
com.schriftgestaltung.Glyphs.glyph.rightMetricsKey = "kaf-hb";
com.schriftgestaltung.hints = (
{
horizontal = 1;
options = 0;
origin = (
0,
8
);
stem = -2;
type = Tag;
}
);
};
visible = 1;
width = 567;
}
);
unicode = 1505;
userData = {
com.typemytype.robofont.guides = (
{
angle = 90;
isGlobal = 0;
magnetic = 5;
x = 65;
y = 0;
},
{
angle = 90;
isGlobal = 0;
magnetic = 5;
x = 509;
y = 0;
}
);
};
},
{
color = 5;
glyphname = "ayin-hb";
layers = (
{
anchors = (
{
name = bottom;
pos = (209,0);
},
{
name = bottomleft;
pos = (30,0);
},
{
name = center;
pos = (282,267);
},
{
name = top;
pos = (527,330);
},
{
name = topleft;
pos = (30,330);
}
);
layerId = "FF2DC345-5101-49B6-97F3-57A040F7C387";
shapes = (
{
closed = 1;
nodes = (
(266,0,o),
(558,63,o),
(560,390,cs),
(560,413,o),
(543,423,o),
(527,423,cs),
(467,423,o),
(410,408,o),
(408,354,cs),
(402,137,o),
(302,87,o),
(84,78,c),
(168,165,o),
(231,305,o),
(231,384,cs),
(231,419,o),
(207,419,o),
(174,419,cs),
(141,419,o),
(105,419,o),
(95,383,cs),
(62,263,o),
(0,77,o),
(-75,63,cs),
(-91,60,o),
(-106,42,o),
(-106,27,cs),
(-106,12,o),
(-94,0,o),
(-64,0,cs)
);
}
);
userData = {
com.schriftgestaltung.hints = (
{
horizontal = 1;
options = 0;
place = (
556,
0
);
stem = -2;
type = Tag;
}
);
};
width = 609;
}
);
unicode = 1506;
userData = {
com.typemytype.robofont.guides = (
{
angle = 0;
isGlobal = 0;
magnetic = 5;
x = 0;
y = 571;
},
{
angle = 90;
isGlobal = 0;
magnetic = 5;
x = 40;
y = 0;
}
);
};
},
{
color = 5;
glyphname = "finalpe-hb";
kernLeft = hethebrew;
layers = (
{
anchors = (
{
name = bottom;
pos = (128,0);
},
{
name = bottomleft;
pos = (-30,0);
},
{
name = center;
pos = (102,540);
},
{
name = top;
pos = (284,780);
},
{
name = topleft;
pos = (30,780);
}
);
layerId = "FF2DC345-5101-49B6-97F3-57A040F7C387";
shapes = (
{
closed = 1;
nodes = (
(230,-1,o),
(351,956,o),
(473,996,cs),
(483,999,o),
(489,1014,o),
(489,1028,cs),
(489,1040,o),
(483,1050,o),
(471,1050,cs),
(405,1050,o),
(321,945,o),
(233,720,c),
(164,723,o),
(86,746,o),
(23,746,cs),
(-39,746,o),
(-106,731,o),
(-106,648,cs),
(-106,593,o),
(-82,512,o),
(-10,512,cs),
(14,512,o),
(26,516,o),
(26,534,cs),
(26,560,o),
(12,588,o),
(12,618,cs),
(12,663,o),
(53,675,o),
(95,675,cs),
(132,675,o),
(168,666,o),
(209,660,c),
(107,392,o),
(18,80,o),
(-78,62,cs),
(-94,59,o),
(-109,41,o),
(-109,26,cs),
(-109,11,o),
(-99,-1,o),
(-69,-1,cs)
);
}
);
userData = {
com.schriftgestaltung.Glyphs.glyph.rightMetricsKey = "het-hb";
};
width = 284;
},
{
anchors = (
{
name = bottom;
pos = (128,0);
},
{
name = bottomleft;
pos = (-30,0);
},
{
name = center;
pos = (338,374);
},
{
name = top;
pos = (284,780);
},
{
name = topleft;
pos = (30,780);
}
);
associatedMasterId = "FF2DC345-5101-49B6-97F3-57A040F7C387";
layerId = "C4AB2826-601C-4FB4-9199-136E3CD02F5E";
name = "Mar 23, 22, 13:20";
shapes = (
{
closed = 1;
nodes = (
(470,1050,o),
(471,1050,o),
(471,1050,cs),
(485,1050,o),
(489,1040,o),
(489,1028,cs),
(489,1014,o),
(483,1001,o),
(473,996,cs),
(348,953,o),
(228,-1,o),
(-69,-1,cs),
(-99,-1,o),
(-109,11,o),
(-109,26,cs),
(-109,41,o),
(-94,59,o),
(-78,62,cs),
(18,80,o),
(107,392,o),
(209,660,c),
(168,666,o),
(132,675,o),
(95,675,cs),
(89,675,o),
(83,675,o),
(77,674,cs),
(26,669,o),
(12,645,o),
(12,618,cs),
(12,591,o),
(24,561,o),
(26,543,cs),
(27,524,o),
(29,515,o),
(-3,512,cs),
(-6,512,o),
(-7,512,o),
(-10,512,cs),
(-63,512,o),
(-97,564,o),
(-103,614,cs),
(-105,624,o),
(-106,636,o),
(-106,648,cs),
(-106,695,o),
(-88,737,o),
(2,744,cs),
(9,746,o),
(15,746,o),
(23,746,cs),
(86,746,o),
(164,723,o),
(233,720,c),
(302,893,o),
(377,1034,o),
(468,1050,cs)
);
}
);
userData = {
com.schriftgestaltung.Glyphs.glyph.rightMetricsKey = "het-hb";
};
visible = 1;
width = 284;
}
);
unicode = 1507;
userData = {
com.typemytype.robofont.guides = (
{
angle = 0;
isGlobal = 0;
magnetic = 5;
x = 0;
y = 571;
},
{
angle = 90;
isGlobal = 0;
magnetic = 5;
x = 1818;
y = 0;
}
);
};
},
{
color = 5;
glyphname = "pe-hb";
kernLeft = tethebrew;
kernRight = pehebrew;
layers = (
{
anchors = (
{
name = bottom;
pos = (221,0);
},
{
name = bottomleft;
pos = (32,0);
},
{
name = center;
pos = (261,149);
},
{
name = top;
pos = (416,375);
},
{
name = topleft;
pos = (32,375);
}
);
layerId = "FF2DC345-5101-49B6-97F3-57A040F7C387";
shapes = (
{
closed = 1;
nodes = (
(-445,-159,o),
(-288,-67,o),
(125,-67,cs),
(434,-67,o),
(531,110,o),
(531,231,cs),
(531,357,o),
(473,419,o),
(329,419,cs),
(276,419,o),
(225,398,o),
(186,372,c),
(186,408,o),
(176,420,o),
(132,420,cs),
(78,420,o),
(60,407,o),
(53,381,cs),
(9,234,o),
(-19,168,o),
(-19,147,cs),
(-19,129,o),
(-13,120,o),
(14,120,cs),
(62,120,o),
(131,212,o),
(165,296,c),
(197,321,o),
(245,348,o),
(291,348,cs),
(353,348,o),
(402,324,o),
(402,236,cs),
(402,96,o),
(263,9,o),
(105,9,cs),
(-139,9,o),
(-487,-48,o),
(-487,-141,cs),
(-487,-150,o),
(-483,-159,o),
(-475,-159,cs)
);
}
);
userData = {
com.schriftgestaltung.Glyphs.glyph.rightMetricsKey = "kaf-hb";
com.schriftgestaltung.hints = (
{
horizontal = 1;
options = 0;
origin = (
0,
24
);
stem = -2;
type = Tag;
}
);
};
width = 581;
},
{
anchors = (
{
name = bottom;
pos = (221,0);
},
{
name = bottomleft;
pos = (32,0);
},
{
name = center;
pos = (261,149);
},
{
name = top;
pos = (416,375);
},
{
name = topleft;
pos = (32,375);
}
);
associatedMasterId = "FF2DC345-5101-49B6-97F3-57A040F7C387";
layerId = "F64EF353-B085-4D84-93B6-77CB4E0CA882";
name = "Aug 29, 22, 22:51";
shapes = (
{
closed = 1;
nodes = (
(-453,-159,o),
(-282,-67,o),
(125,-67,cs),
(434,-67,o),
(531,110,o),
(531,231,cs),
(531,357,o),
(473,419,o),
(329,419,cs),
(276,419,o),
(225,398,o),
(186,372,c),
(188,377,o),
(188,380,o),
(188,384,cs),
(188,419,o),
(165,419,o),
(132,419,cs),
(98,419,o),
(62,417,o),
(53,381,cs),
(11,236,o),
(-19,168,o),
(-19,147,cs),
(-19,129,o),
(-19,120,o),
(14,120,cs),
(62,120,o),
(131,212,o),
(165,296,c),
(197,321,o),
(245,348,o),
(291,348,cs),
(353,348,o),
(402,324,o),
(402,236,cs),
(402,96,o),
(263,9,o),
(105,9,cs),
(-139,9,o),
(-487,-48,o),
(-487,-141,cs),
(-487,-150,o),
(-483,-159,o),
(-475,-159,cs)
);
}
);
userData = {
com.schriftgestaltung.Glyphs.glyph.rightMetricsKey = "kaf-hb";
com.schriftgestaltung.hints = (
{
horizontal = 1;
options = 0;
origin = (
0,
24
);
stem = -2;
type = Tag;
}
);
};
visible = 1;
width = 581;
}
);
unicode = 1508;
userData = {
com.typemytype.robofont.guides = (
{
angle = 90;
isGlobal = 0;
magnetic = 5;
x = 70;
y = 0;
}
);
};
},
{
color = 5;
glyphname = "finaltsadi-hb";
layers = (
{
anchors = (
{
name = bottom;
pos = (375,0);
},
{
name = bottomleft;
pos = (30,0);
},
{
name = center;
pos = (375,390);
},
{
name = top;
pos = (375,780);
},
{
name = topleft;
pos = (30,780);
}
);
layerId = "FF2DC345-5101-49B6-97F3-57A040F7C387";
shapes = (
{
closed = 1;
nodes = (
(-132,-622,o),
(15,-399,o),
(129,-81,cs),
(185,74,o),
(210,174,o),
(224,240,c),
(402,248,o),
(516,368,o),
(516,416,cs),
(516,426,o),
(510,434,o),
(495,434,cs),
(444,434,o),
(372,359,o),
(263,359,cs),
(252,359,o),
(242,359,o),
(234,360,c),
(227,416,o),
(179,419,o),
(149,419,cs),
(71,419,o),
(39,365,o),
(39,317,cs),
(39,263,o),
(75,258,o),
(75,246,cs),
(75,173,o),
(-3,-159,o),
(-112,-391,cs),
(-148,-469,o),
(-187,-526,o),
(-223,-562,cs),
(-232,-571,o),
(-238,-585,o),
(-238,-597,cs),
(-238,-607,o),
(-232,-622,o),
(-214,-622,cs)
);
}
);
userData = {
com.schriftgestaltung.hints = (
{
horizontal = 1;
options = 0;
origin = (
0,
34
);
stem = -2;
type = Tag;
}
);
};
width = 516;
},
{
anchors = (
{
name = bottom;
pos = (375,0);
},
{
name = bottomleft;
pos = (30,0);
},
{
name = center;
pos = (375,390);
},
{
name = top;
pos = (375,780);
},
{
name = topleft;
pos = (30,780);
}
);
associatedMasterId = "FF2DC345-5101-49B6-97F3-57A040F7C387";
layerId = "9232D2A6-D914-441B-B8A2-A00EE0E28460";
name = "Mar 23, 22, 14:51";
shapes = (
{
closed = 1;
nodes = (
(-223,-622,o),
(-229,-619,o),
(-232,-613,cs),
(-237,-609,o),
(-238,-603,o),
(-238,-597,cs),
(-238,-585,o),
(-232,-571,o),
(-223,-562,cs),
(-187,-526,o),
(-148,-469,o),
(-112,-391,cs),
(-3,-159,o),
(71,174,o),
(75,248,cs),
(72,261,o),
(39,261,o),
(39,314,cs),
(39,317,o),
(39,321,o),
(39,326,cs),
(42,365,o),
(71,419,o),
(149,419,cs),
(179,419,o),
(227,416,o),
(234,360,c),
(243,360,o),
(252,359,o),
(263,359,cs),
(303,359,o),
(359,369,o),
(429,410,cs),
(459,426,o),
(482,434,o),
(495,434,cs),
(510,434,o),
(516,426,o),
(516,416,cs),
(516,368,o),
(402,248,o),
(224,240,c),
(210,174,o),
(185,74,o),
(129,-81,cs),
(30,-357,o),
(-97,-573,o),
(-187,-615,cs),
(-198,-621,o),
(-207,-622,o),
(-214,-622,cs)
);
}
);
userData = {
com.schriftgestaltung.hints = (
{
horizontal = 1;
options = 0;
origin = (
0,
34
);
stem = -2;
type = Tag;
}
);
};
visible = 1;
width = 516;
}
);
unicode = 1509;
userData = {
com.typemytype.robofont.guides = (
{
angle = 0;
isGlobal = 0;
magnetic = 5;
x = 0;
y = 571;
},
{
angle = 0;
isGlobal = 0;
magnetic = 5;
x = 0;
y = "-124";
},
{
angle = 90;
isGlobal = 0;
magnetic = 5;
x = 28;
y = 0;
},
{
angle = 90;
isGlobal = 0;
magnetic = 5;
x = 431;
y = 0;
}
);
};
},
{
color = 5;
glyphname = "tsadi-hb";
kernLeft = tsadihebrew;
kernRight = tsadihebrew;
layers = (
{
anchors = (
{
name = bottom;
pos = (192,0);
},
{
name = bottomleft;
pos = (30,0);
},
{
name = center;
pos = (77,636);
},
{
name = top;
pos = (338,780);
},
{
name = topleft;
pos = (-90,780);
}
);
layerId = "FF2DC345-5101-49B6-97F3-57A040F7C387";
shapes = (
{
closed = 1;
nodes = (
(96,0,o),
(297,161,o),
(378,422,c),
(533,479,o),
(705,600,o),
(882,813,cs),
(890,822,o),
(893,834,o),
(893,843,cs),
(893,858,o),
(885,870,o),
(869,870,cs),
(854,870,o),
(830,858,o),
(798,827,cs),
(663,683,o),
(528,590,o),
(405,536,c),
(411,575,o),
(414,615,o),
(414,659,cs),
(414,807,o),
(323,984,o),
(128,984,cs),
(-58,984,o),
(-210,881,o),
(-210,683,cs),
(-210,528,o),
(-63,380,o),
(164,380,cs),
(188,380,o),
(212,381,o),
(237,384,c),
(161,153,o),
(8,81,o),
(-28,54,cs),
(-36,48,o),
(-55,39,o),
(-55,21,cs),
(-55,8,o),
(-46,0,o),
(-33,0,cs)
);
},
{
closed = 1;
nodes = (
(-24,476,o),
(-136,567,o),
(-136,690,cs),
(-136,792,o),
(-55,915,o),
(89,915,cs),
(201,915,o),
(279,818,o),
(279,675,cs),
(279,606,o),
(273,545,o),
(264,489,c),
(222,480,o),
(182,476,o),
(146,476,cs)
);
}
);
userData = {
com.schriftgestaltung.hints = (
{
horizontal = 1;
options = 0;
origin = (
0,
11
);
stem = -2;
type = Tag;
}
);
};
width = 386;
},
{
anchors = (
{
name = bottom;
pos = (192,0);
},
{
name = bottomleft;
pos = (30,0);
},
{
name = center;
pos = (105,618);
},
{
name = top;
pos = (338,780);
},
{
name = topleft;
pos = (-90,780);
}
);
associatedMasterId = "FF2DC345-5101-49B6-97F3-57A040F7C387";
layerId = "A3D0B46B-0879-4F6D-AFFC-D40569559D6C";
name = "Mar 23, 22, 17:13";
shapes = (
{
closed = 1;
nodes = (
(113,984,o),
(120,984,o),
(128,984,cs),
(323,984,o),
(414,807,o),
(414,659,cs),
(414,615,o),
(411,575,o),
(405,536,c),
(528,590,o),
(663,683,o),
(798,827,cs),
(830,858,o),
(854,870,o),
(869,870,cs),
(885,870,o),
(893,858,o),
(893,843,cs),
(893,834,o),
(890,822,o),
(882,813,cs),
(705,600,o),
(533,479,o),
(378,422,c),
(297,161,o),
(96,0,o),
(-33,0,cs),
(-46,0,o),
(-55,8,o),
(-55,21,cs),
(-55,39,o),
(-34,47,o),
(-28,54,cs),
(5,84,o),
(161,153,o),
(237,384,c),
(212,381,o),
(188,380,o),
(164,380,cs),
(-63,380,o),
(-210,528,o),
(-210,683,cs),
(-210,686,o),
(-210,690,o),
(-210,695,cs),
(-201,866,o),
(-88,971,o),
(105,984,cs)
);
},
{
closed = 1;
nodes = (
(273,545,o),
(279,606,o),
(279,675,cs),
(279,818,o),
(201,915,o),
(89,915,cs),
(-43,915,o),
(-127,813,o),
(-135,707,cs),
(-135,701,o),
(-136,696,o),
(-136,690,cs),
(-136,567,o),
(-24,476,o),
(146,476,cs),
(182,476,o),
(222,480,o),
(264,489,c)
);
}
);
userData = {
com.schriftgestaltung.hints = (
{
horizontal = 1;
options = 0;
origin = (
0,
11
);
stem = -2;
type = Tag;
}
);
};
visible = 1;
width = 386;
}
);
unicode = 1510;
userData = {
com.typemytype.robofont.guides = (
{
angle = 90;
isGlobal = 0;
magnetic = 5;
x = 27;
y = 0;
}
);
};
},
{
color = 5;
glyphname = "qof-hb";
kernLeft = lamedhebrew;
kernRight = vavhebrew;
layers = (
{
anchors = (
{
name = bottom;
pos = (129,0);
},
{
name = bottomleft;
pos = (30,0);
},
{
name = center;
pos = (-58,150);
},
{
name = top;
pos = (254,360);
},
{
name = topleft;
pos = (60,285);
}
);
layerId = "FF2DC345-5101-49B6-97F3-57A040F7C387";
shapes = (
{
closed = 1;
nodes = (
(-324,-619,o),
(-144,-33,o),
(2,0,cs),
(161,36,o),
(234,168,o),
(234,336,cs),
(234,357,o),
(216,368,o),
(198,368,cs),
(138,368,o),
(83,353,o),
(83,299,cs),
(83,140,o),
(30,86,o),
(-49,54,cs),
(-165,8,o),
(-279,-228,o),
(-402,-415,cs),
(-417,-439,o),
(-420,-439,o),
(-445,-439,cs),
(-486,-439,o),
(-531,-498,o),
(-531,-559,cs),
(-531,-591,o),
(-507,-619,o),
(-475,-619,cs)
);
}
);
userData = {
com.schriftgestaltung.hints = (
{
horizontal = 1;
options = 0;
place = (
513,
0
);
stem = -2;
type = Tag;
}
);
};
width = 284;
}
);
unicode = 1511;
userData = {
com.typemytype.robofont.guides = (
{
angle = 0;
isGlobal = 0;
magnetic = 5;
x = 0;
y = "-191";
},
{
angle = 90;
isGlobal = 0;
magnetic = 5;
x = 70;
y = 0;
},
{
angle = 90;
isGlobal = 0;
magnetic = 5;
x = 516;
y = 0;
},
{
angle = 90;
isGlobal = 0;
magnetic = 5;
x = 70;
y = 0;
}
);
};
},
{
color = 5;
glyphname = "resh-hb";
kernLeft = "resh-hb";
kernRight = "resh-hb";
layers = (
{
anchors = (
{
name = bottom;
pos = (135,0);
},
{
name = bottomleft;
pos = (-88,0);
},
{
name = center;
pos = (95,681);
},
{
name = top;
pos = (314,975);
},
{
name = topleft;
pos = (-31,975);
}
);
layerId = "FF2DC345-5101-49B6-97F3-57A040F7C387";
shapes = (
{
closed = 1;
nodes = (
(162,0,o),
(425,338,o),
(425,735,cs),
(425,888,o),
(341,1008,o),
(144,1008,cs),
(-49,1008,o),
(-213,872,o),
(-213,683,cs),
(-213,554,o),
(-97,464,o),
(44,464,cs),
(171,464,o),
(231,515,o),
(231,527,cs),
(231,539,o),
(221,543,o),
(201,543,cs),
(165,543,o),
(132,533,o),
(92,533,cs),
(-28,533,o),
(-105,600,o),
(-105,698,cs),
(-105,831,o),
(-15,948,o),
(119,948,cs),
(216,948,o),
(279,882,o),
(279,747,cs),
(279,275,o),
(45,92,o),
(0,54,cs),
(-9,47,o),
(-25,35,o),
(-25,21,cs),
(-25,8,o),
(-16,0,o),
(-3,0,cs)
);
}
);
userData = {
com.schriftgestaltung.Glyphs.glyph.rightMetricsKey = "het-hb";
com.schriftgestaltung.hints = (
{
horizontal = 1;
options = 0;
origin = (
0,
12
);
stem = -2;
type = Tag;
}
);
};
width = 411;
},
{
anchors = (
{
name = bottom;
pos = (135,0);
},
{
name = bottomleft;
pos = (-88,0);
},
{
name = center;
pos = (95,651);
},
{
name = top;
pos = (314,975);
},
{
name = topleft;
pos = (-31,975);
}
);
associatedMasterId = "FF2DC345-5101-49B6-97F3-57A040F7C387";
layerId = "38C1D795-E407-4634-A532-81E1CA2881FC";
name = "Mar 23, 22, 20:20";
shapes = (
{
closed = 1;
nodes = (
(147,1008,o),
(152,1008,o),
(155,1008,cs),
(335,1008,o),
(425,891,o),
(425,735,cs),
(425,338,o),
(162,0,o),
(-3,0,cs),
(-16,0,o),
(-25,8,o),
(-25,21,cs),
(-25,39,o),
(-4,47,o),
(2,54,cs),
(45,95,o),
(279,275,o),
(279,747,cs),
(279,882,o),
(216,948,o),
(119,948,cs),
(-15,948,o),
(-105,831,o),
(-105,698,cs),
(-105,600,o),
(-28,533,o),
(92,533,cs),
(105,533,o),
(122,534,o),
(137,536,cs),
(159,539,o),
(177,540,o),
(191,540,cs),
(221,540,o),
(231,534,o),
(231,527,cs),
(231,519,o),
(219,509,o),
(201,500,cs),
(147,474,o),
(95,464,o),
(44,464,cs),
(-97,464,o),
(-213,554,o),
(-213,683,cs),
(-213,872,o),
(-49,1004,o),
(144,1008,cs)
);
}
);
userData = {
com.schriftgestaltung.Glyphs.glyph.rightMetricsKey = "het-hb";
com.schriftgestaltung.hints = (
{
horizontal = 1;
options = 0;
origin = (
0,
12
);
stem = -2;
type = Tag;
}
);
};
visible = 1;
width = 411;
}
);
unicode = 1512;
userData = {
com.typemytype.robofont.guides = (
{
angle = 0;
isGlobal = 0;
magnetic = 5;
x = 0;
y = 571;
},
{
angle = 90;
isGlobal = 0;
magnetic = 5;
x = 40;
y = 0;
},
{
angle = 90;
isGlobal = 0;
magnetic = 5;
x = 436;
y = 0;
}
);
};
},
{
color = 5;
glyphname = "shin-hb";
kernLeft = "shin-hb";
kernRight = "shin-hb";
layers = (
{
anchors = (
{
name = bottom;
pos = (224,0);
},
{
name = bottomleft;
pos = (24,0);
},
{
name = center;
pos = (320,150);
},
{
name = top;
pos = (371,393);
},
{
name = topleft;
pos = (161,534);
},
{
name = topright;
pos = (579,416);
}
);
layerId = "FF2DC345-5101-49B6-97F3-57A040F7C387";
shapes = (
{
closed = 1;
nodes = (
(-18,0,o),
(27,26,o),
(69,65,c),
(101,32,o),
(153,0,o),
(261,0,cs),
(474,0,o),
(639,128,o),
(639,308,cs),
(639,329,o),
(623,339,o),
(606,339,cs),
(546,339,o),
(488,324,o),
(488,270,cs),
(486,120,o),
(347,72,o),
(237,72,cs),
(173,72,o),
(134,90,o),
(113,113,c),
(158,168,o),
(195,237,o),
(215,297,c),
(356,305,o),
(446,405,o),
(446,450,cs),
(446,462,o),
(440,471,o),
(425,471,cs),
(383,471,o),
(323,414,o),
(260,416,cs),
(255,416,o),
(251,416,o),
(246,417,c),
(239,471,o),
(191,474,o),
(161,474,cs),
(83,474,o),
(51,416,o),
(51,368,cs),
(51,327,o),
(68,317,o),
(80,309,c),
(48,216,o),
(3,116,o),
(-45,78,cs),
(-54,71,o),
(-64,66,o),
(-75,63,cs),
(-91,60,o),
(-106,42,o),
(-106,27,cs),
(-106,8,o),
(-87,0,o),
(-64,0,cs)
);
}
);
userData = {
com.schriftgestaltung.Glyphs.glyph.leftMetricsKey = "het-hb";
com.schriftgestaltung.Glyphs.glyph.rightMetricsKey = "het-hb";
com.schriftgestaltung.hints = (
{
horizontal = 1;
options = 0;
origin = (
0,
4
);
stem = -2;
type = Tag;
}
);
};
width = 690;
},
{
anchors = (
{
name = bottom;
pos = (539,0);
},
{
name = bottomleft;
pos = (24,0);
},
{
name = center;
pos = (708,390);
},
{
name = top;
pos = (551,780);
},
{
name = topleft;
pos = (12,780);
},
{
name = topright;
pos = (1040,780);
}
);
associatedMasterId = "FF2DC345-5101-49B6-97F3-57A040F7C387";
layerId = "E7622956-0AD4-499B-A960-AABF6CB408D9";
name = "Mar 23, 22, 21:05";
shapes = (
{
closed = 1;
nodes = (
(356,81,o),
(486,123,o),
(488,270,cs),
(488,324,o),
(546,339,o),
(606,339,cs),
(623,339,o),
(639,329,o),
(639,308,cs),
(639,128,o),
(474,0,o),
(261,0,cs),
(138,0,o),
(89,38,o),
(69,65,c),
(27,26,o),
(-18,0,o),
(-64,0,cs),
(-91,0,o),
(-103,9,o),
(-105,21,cs),
(-106,23,o),
(-106,24,o),
(-106,27,cs),
(-106,42,o),
(-91,60,o),
(-75,63,cs),
(-64,66,o),
(-54,71,o),
(-45,78,cs),
(3,116,o),
(48,216,o),
(80,309,c),
(71,317,o),
(51,324,o),
(51,368,cs),
(51,371,o),
(51,375,o),
(53,381,cs),
(56,420,o),
(84,474,o),
(161,474,cs),
(191,474,o),
(239,471,o),
(246,417,c),
(249,416,o),
(252,416,o),
(257,416,cs),
(282,416,o),
(318,423,o),
(365,449,cs),
(390,464,o),
(411,471,o),
(425,471,cs),
(440,471,o),
(446,462,o),
(446,450,cs),
(446,405,o),
(356,305,o),
(215,297,c),
(195,237,o),
(158,168,o),
(113,113,c),
(135,95,o),
(168,72,o),
(237,72,cs),
(246,72,o),
(257,72,o),
(269,74,cs)
);
}
);
userData = {
com.schriftgestaltung.Glyphs.glyph.leftMetricsKey = "het-hb";
com.schriftgestaltung.Glyphs.glyph.rightMetricsKey = "het-hb";
com.schriftgestaltung.hints = (
{
horizontal = 1;
options = 0;
origin = (
0,
4
);
stem = -2;
type = Tag;
}
);
};
visible = 1;
width = 690;
}
);
unicode = 1513;
userData = {
com.typemytype.robofont.guides = (
{
angle = 0;
isGlobal = 0;
magnetic = 5;
x = 0;
y = 952;
},
{
angle = 0;
isGlobal = 0;
magnetic = 5;
x = 0;
y = 571;
}
);
};
},
{
color = 5;
glyphname = "tav-hb";
kernLeft = hethebrew;
kernRight = tavhebrew;
layers = (
{
anchors = (
{
name = bottom;
pos = (285,0);
},
{
name = bottomleft;
pos = (15,0);
},
{
name = center;
pos = (255,189);
},
{
name = top;
pos = (450,372);
},
{
name = topleft;
pos = (78,228);
}
);
layerId = "FF2DC345-5101-49B6-97F3-57A040F7C387";
shapes = (
{
closed = 1;
nodes = (
(-279,-621,o),
(38,-214,o),
(123,60,c),
(141,41,o),
(179,30,o),
(221,30,cs),
(395,30,o),
(557,216,o),
(557,396,cs),
(557,417,o),
(539,428,o),
(522,428,cs),
(462,428,o),
(404,413,o),
(404,359,cs),
(404,228,o),
(350,99,o),
(224,99,cs),
(183,99,o),
(159,113,o),
(149,152,cs),
(141,179,o),
(111,191,o),
(81,191,cs),
(48,191,o),
(17,177,o),
(11,152,cs),
(-72,-174,o),
(-387,-537,o),
(-739,-537,cs),
(-879,-537,o),
(-949,-447,o),
(-949,-340,cs),
(-949,-264,o),
(-912,-180,o),
(-834,-117,cs),
(-802,-90,o),
(-789,-69,o),
(-789,-54,cs),
(-789,-42,o),
(-799,-34,o),
(-814,-34,cs),
(-835,-34,o),
(-865,-46,o),
(-898,-72,cs),
(-1008,-160,o),
(-1057,-264,o),
(-1057,-357,cs),
(-1057,-501,o),
(-942,-621,o),
(-754,-621,cs)
);
}
);
userData = {
com.schriftgestaltung.Glyphs.glyph.rightMetricsKey = "het-hb";
com.schriftgestaltung.hints = (
{
horizontal = 1;
options = 0;
place = (
513,
0
);
stem = -2;
type = Tag;
}
);
};
width = 606;
}
);
unicode = 1514;
userData = {
com.typemytype.robofont.guides = (
{
angle = 0;
isGlobal = 0;
magnetic = 5;
x = 0;
y = 571;
},
{
angle = 90;
isGlobal = 0;
magnetic = 5;
x = 576;
y = 0;
},
{
angle = 90;
isGlobal = 0;
magnetic = 5;
x = 50;
y = 0;
}
);
};
},
{
color = 5;
glyphname = "gimel-hb.alt";
layers = (
{
layerId = "FF2DC345-5101-49B6-97F3-57A040F7C387";
shapes = (
{
closed = 1;
nodes = (
(-132,-130,o),
(-88,-66,o),
(54,-66,cs),
(108,-66,o),
(159,-73,o),
(221,-73,cs),
(411,-73,o),
(558,153,o),
(558,335,cs),
(558,356,o),
(542,366,o),
(524,366,cs),
(464,366,o),
(405,351,o),
(405,297,cs),
(405,167,o),
(348,3,o),
(222,3,cs),
(168,3,o),
(104,14,o),
(32,14,cs),
(-175,14,o),
(-211,-58,o),
(-358,-58,cs),
(-406,-58,o),
(-427,-52,o),
(-445,-52,cs),
(-456,-52,o),
(-459,-58,o),
(-459,-64,cs),
(-459,-96,o),
(-388,-130,o),
(-283,-130,cs)
);
}
);
width = 608;
},
{
associatedMasterId = "FF2DC345-5101-49B6-97F3-57A040F7C387";
layerId = "D4F99A95-E43B-4514-A959-50C56F3E0CF3";
name = "Aug 30, 22, 18:24";
shapes = (
{
closed = 1;
nodes = (
(-261,-130,o),
(-237,-129,o),
(-210,-124,cs),
(-130,-115,o),
(-88,-79,o),
(11,-69,cs),
(24,-67,o),
(38,-66,o),
(54,-66,cs),
(108,-66,o),
(174,-73,o),
(221,-73,cs),
(395,-73,o),
(558,153,o),
(558,335,cs),
(558,356,o),
(542,366,o),
(524,366,cs),
(464,366,o),
(405,351,o),
(405,297,cs),
(405,167,o),
(348,3,o),
(222,3,cs),
(168,3,o),
(104,14,o),
(32,14,cs),
(15,14,o),
(-1,14,o),
(-18,12,cs),
(-202,-1,o),
(-214,-58,o),
(-358,-58,cs),
(-382,-58,o),
(-409,-57,o),
(-442,-52,cs),
(-444,-52,o),
(-445,-52,o),
(-445,-52,cs),
(-456,-52,o),
(-459,-58,o),
(-459,-64,cs),
(-459,-66,o),
(-459,-67,o),
(-459,-69,cs),
(-454,-97,o),
(-388,-130,o),
(-283,-130,cs)
);
}
);
visible = 1;
width = 608;
}
);
},
{
color = 5;
glyphname = "dalet-hb.alt";
layers = (
{
layerId = "FF2DC345-5101-49B6-97F3-57A040F7C387";
shapes = (
{
closed = 1;
nodes = (
(365,0,o),
(452,147,o),
(452,299,cs),
(452,426,o),
(381,456,o),
(303,456,cs),
(248,456,o),
(168,435,o),
(120,435,cs),
(30,435,o),
(17,471,o),
(-16,471,cs),
(-55,471,o),
(-88,447,o),
(-88,408,cs),
(-88,377,o),
(-61,347,o),
(11,347,cs),
(62,347,o),
(177,378,o),
(230,378,cs),
(281,378,o),
(317,357,o),
(317,285,cs),
(317,204,o),
(285,80,o),
(194,63,cs),
(177,60,o),
(162,42,o),
(162,27,cs),
(162,12,o),
(174,0,o),
(204,0,cs)
);
}
);
width = 500;
},
{
associatedMasterId = "FF2DC345-5101-49B6-97F3-57A040F7C387";
layerId = "9729CA6E-2A61-4DC1-AD4F-DEB7B227D9DC";
name = "Aug 30, 22, 10:11";
shapes = (
{
closed = 1;
nodes = (
(353,0,o),
(441,131,o),
(452,270,cs),
(452,281,o),
(452,290,o),
(452,299,cs),
(452,426,o),
(381,456,o),
(303,456,cs),
(239,456,o),
(168,437,o),
(125,435,cs),
(123,435,o),
(122,435,o),
(120,435,cs),
(21,435,o),
(23,471,o),
(-16,471,cs),
(-22,471,o),
(-31,470,o),
(-42,468,cs),
(-69,461,o),
(-88,434,o),
(-88,408,cs),
(-88,377,o),
(-61,347,o),
(11,347,cs),
(21,347,o),
(32,348,o),
(44,350,cs),
(105,356,o),
(176,378,o),
(230,378,cs),
(281,378,o),
(317,357,o),
(317,285,cs),
(317,276,o),
(317,266,o),
(315,255,cs),
(305,147,o),
(261,75,o),
(194,63,cs),
(177,60,o),
(162,42,o),
(162,27,cs),
(162,12,o),
(174,0,o),
(204,0,cs)
);
}
);
visible = 1;
width = 500;
}
);
},
{
color = 10;
export = 0;
glyphname = uni05D0.alt;
layers = (
{
layerId = "FF2DC345-5101-49B6-97F3-57A040F7C387";
shapes = (
{
closed = 1;
nodes = (
(215,-1,o),
(335,953,o),
(459,996,cs),
(470,1001,o),
(476,1014,o),
(476,1028,cs),
(476,1040,o),
(470,1050,o),
(458,1050,cs),
(458,1050,o),
(456,1050,o),
(455,1050,cs),
(216,1008,o),
(77,92,o),
(-91,62,cs),
(-109,59,o),
(-123,41,o),
(-123,26,cs),
(-123,11,o),
(-112,-1,o),
(-82,-1,cs)
);
}
);
width = 234;
}
);
},
{
color = 10;
export = 0;
glyphname = uni05D1.alt;
layers = (
{
layerId = "FF2DC345-5101-49B6-97F3-57A040F7C387";
shapes = (
{
closed = 1;
nodes = (
(249,0,o),
(392,86,o),
(404,234,cs),
(405,249,o),
(407,264,o),
(407,276,cs),
(407,398,o),
(351,425,o),
(284,425,cs),
(233,425,o),
(174,408,o),
(128,408,cs),
(126,408,o),
(125,408,o),
(125,408,cs),
(53,408,o),
(56,444,o),
(17,444,cs),
(11,444,o),
(2,444,o),
(-9,441,cs),
(-36,434,o),
(-55,408,o),
(-55,381,cs),
(-55,353,o),
(-30,324,o),
(42,324,cs),
(53,324,o),
(63,324,o),
(75,326,cs),
(131,332,o),
(179,344,o),
(215,344,cs),
(255,344,o),
(279,329,o),
(279,273,cs),
(279,263,o),
(278,251,o),
(276,236,cs),
(261,134,o),
(192,84,o),
(101,77,cs),
(95,77,o),
(89,77,o),
(83,77,cs),
(-3,77,o),
(-63,122,o),
(-85,129,cs),
(-90,131,o),
(-94,131,o),
(-99,131,cs),
(-111,131,o),
(-117,125,o),
(-117,114,cs),
(-117,78,o),
(-48,0,o),
(99,0,cs)
);
}
);
width = 458;
}
);
},
{
color = 10;
export = 0;
glyphname = uni05D4.alt;
layers = (
{
layerId = "FF2DC345-5101-49B6-97F3-57A040F7C387";
shapes = (
{
closed = 1;
nodes = (
(20,-70,o),
(33,-67,o),
(44,-63,cs),
(59,-58,o),
(63,-46,o),
(63,-36,cs),
(63,-28,o),
(62,-21,o),
(59,-15,cs),
(53,-1,o),
(50,12,o),
(50,23,cs),
(50,117,o),
(251,137,o),
(251,369,cs),
(251,381,o),
(249,393,o),
(249,407,cs),
(246,428,o),
(230,437,o),
(215,437,cs),
(213,437,o),
(212,437,o),
(210,435,cs),
(153,431,o),
(105,416,o),
(105,368,cs),
(105,365,o),
(105,363,o),
(105,360,cs),
(107,351,o),
(107,342,o),
(107,333,cs),
(107,143,o),
(-76,120,o),
(-76,23,cs),
(-76,5,o),
(-69,-15,o),
(-55,-40,cs),
(-42,-63,o),
(-18,-70,o),
(5,-70,cs)
);
}
);
width = 300;
}
);
},
{
color = 10;
export = 0;
glyphname = uni05D5.alt;
layers = (
{
layerId = "FF2DC345-5101-49B6-97F3-57A040F7C387";
shapes = (
{
closed = 1;
nodes = (
(-60,-58,o),
(-60,-58,o),
(-58,-58,cs),
(33,-58,o),
(374,771,o),
(389,896,cs),
(390,897,o),
(390,900,o),
(390,903,cs),
(390,930,o),
(368,932,o),
(338,935,cs),
(336,935,o),
(336,935,o),
(335,935,cs),
(326,936,o),
(317,936,o),
(309,936,cs),
(288,936,o),
(270,930,o),
(263,905,cs),
(149,534,o),
(-81,6,o),
(-87,-25,cs),
(-87,-30,o),
(-88,-34,o),
(-88,-39,cs),
(-88,-49,o),
(-82,-55,o),
(-60,-58,cs)
);
}
);
width = 231;
}
);
},
{
color = 10;
export = 0;
glyphname = uni05D9.alt;
layers = (
{
layerId = "FF2DC345-5101-49B6-97F3-57A040F7C387";
shapes = (
{
closed = 1;
nodes = (
(44,26,o),
(149,162,o),
(149,228,cs),
(149,264,o),
(128,264,o),
(93,264,cs),
(92,264,o),
(90,264,o),
(89,264,cs),
(56,264,o),
(24,261,o),
(14,225,cs),
(-28,81,o),
(-45,74,o),
(-45,53,cs),
(-45,33,o),
(-45,26,o),
(-12,26,cs)
);
}
);
width = 198;
}
);
},
{
color = 10;
export = 0;
glyphname = uni05E1.alt;
layers = (
{
layerId = "FF2DC345-5101-49B6-97F3-57A040F7C387";
shapes = (
{
closed = 1;
nodes = (
(234,-28,o),
(327,8,o),
(402,92,c),
(428,44,o),
(467,0,o),
(542,0,cs),
(674,0,o),
(833,87,o),
(848,246,cs),
(849,252,o),
(849,258,o),
(849,264,cs),
(849,344,o),
(801,419,o),
(666,419,c),
(620,419,o),
(578,405,o),
(539,383,c),
(539,383,o),
(539,384,o),
(539,384,cs),
(539,419,o),
(516,419,o),
(483,419,cs),
(482,419,o),
(482,419,o),
(479,419,cs),
(446,419,o),
(414,417,o),
(404,383,cs),
(383,308,o),
(336,99,o),
(191,62,cs),
(170,57,o),
(152,54,o),
(135,54,cs),
(53,54,o),
(6,110,o),
(6,192,cs),
(6,249,o),
(29,317,o),
(75,387,cs),
(95,417,o),
(102,438,o),
(102,453,cs),
(102,467,o),
(95,474,o),
(83,474,cs),
(63,474,o),
(32,455,o),
(2,414,cs),
(-60,330,o),
(-87,252,o),
(-87,188,cs),
(-87,56,o),
(23,-28,o),
(150,-28,cs)
);
},
{
closed = 1;
nodes = (
(498,69,o),
(470,119,o),
(470,167,cs),
(470,180,o),
(473,192,o),
(476,204,cs),
(503,288,o),
(522,345,o),
(620,345,cs),
(627,345,o),
(633,345,o),
(641,344,cs),
(678,342,o),
(720,321,o),
(720,258,cs),
(720,254,o),
(720,249,o),
(720,246,cs),
(713,162,o),
(641,69,o),
(545,69,cs)
);
}
);
width = 911;
}
);
},
{
color = 10;
export = 0;
glyphname = uni05E6.alt;
layers = (
{
layerId = "FF2DC345-5101-49B6-97F3-57A040F7C387";
shapes = (
{
closed = 1;
nodes = (
(53,0,o),
(228,83,o),
(242,315,c),
(342,390,o),
(374,491,o),
(374,555,cs),
(374,590,o),
(365,614,o),
(351,617,cs),
(348,618,o),
(344,618,o),
(339,618,cs),
(324,618,o),
(306,611,o),
(296,581,cs),
(255,477,o),
(228,462,o),
(210,450,c),
(192,461,o),
(171,467,o),
(152,467,cs),
(77,467,o),
(53,408,o),
(53,372,cs),
(51,371,o),
(51,371,o),
(51,369,cs),
(51,329,o),
(75,308,o),
(87,299,cs),
(87,299,o),
(89,297,o),
(90,297,cs),
(90,293,o),
(90,288,o),
(90,285,cs),
(90,146,o),
(24,90,o),
(-70,77,cs),
(-135,68,o),
(-159,44,o),
(-159,24,cs),
(-159,11,o),
(-147,0,o),
(-129,0,c)
);
}
);
width = 324;
}
);
},
{
color = 10;
export = 0;
glyphname = uni05E8.alt;
layers = (
{
layerId = "FF2DC345-5101-49B6-97F3-57A040F7C387";
shapes = (
{
closed = 1;
nodes = (
(48,-237,o),
(50,-237,o),
(53,-237,cs),
(342,-172,o),
(476,48,o),
(489,207,cs),
(491,224,o),
(491,239,o),
(491,252,cs),
(491,423,o),
(401,491,o),
(270,491,cs),
(267,491,o),
(264,491,o),
(261,491,cs),
(102,486,o),
(0,398,o),
(0,240,cs),
(0,123,o),
(92,47,o),
(195,47,cs),
(234,47,o),
(275,57,o),
(312,80,cs),
(326,87,o),
(332,96,o),
(332,102,cs),
(332,114,o),
(315,122,o),
(288,122,cs),
(278,122,o),
(264,120,o),
(249,117,cs),
(240,116,o),
(233,114,o),
(224,114,cs),
(161,114,o),
(108,170,o),
(108,254,cs),
(108,257,o),
(108,261,o),
(108,264,cs),
(113,359,o),
(152,425,o),
(236,431,cs),
(242,431,o),
(246,432,o),
(251,432,cs),
(345,432,o),
(375,357,o),
(375,270,cs),
(375,242,o),
(371,210,o),
(366,180,cs),
(347,78,o),
(300,-79,o),
(53,-183,cs),
(44,-187,o),
(24,-195,o),
(23,-211,cs),
(23,-211,o),
(23,-213,o),
(23,-213,cs),
(23,-225,o),
(32,-237,o),
(47,-237,cs)
);
}
);
width = 563;
}
);
},
{
color = 10;
export = 0;
glyphname = uni05D0.yud;
layers = (
{
layerId = "FF2DC345-5101-49B6-97F3-57A040F7C387";
shapes = (
{
closed = 1;
nodes = (
(252,-3,o),
(390,690,o),
(459,842,cs),
(471,867,o),
(485,875,o),
(503,875,cs),
(507,875,o),
(513,875,o),
(518,873,cs),
(524,872,o),
(530,872,o),
(534,872,cs),
(588,872,o),
(612,929,o),
(615,978,cs),
(615,980,o),
(615,983,o),
(615,984,cs),
(615,1023,o),
(596,1052,o),
(545,1052,cs),
(333,1052,o),
(147,69,o),
(-1,69,cs),
(-51,69,o),
(-55,150,o),
(-55,185,cs),
(-55,195,o),
(-55,201,o),
(-55,201,cs),
(-129,143,l),
(-129,143,o),
(-103,-3,o),
(5,-3,cs)
);
}
);
width = 350;
}
);
},
{
color = 10;
export = 0;
glyphname = uni05D8.yud;
layers = (
{
layerId = "FF2DC345-5101-49B6-97F3-57A040F7C387";
shapes = (
{
closed = 1;
nodes = (
(84,0,o),
(147,47,o),
(186,110,c),
(210,63,o),
(255,30,o),
(329,30,cs),
(503,30,o),
(665,216,o),
(665,396,cs),
(665,417,o),
(648,428,o),
(632,428,cs),
(572,428,o),
(513,413,o),
(513,359,cs),
(513,228,o),
(458,99,o),
(332,99,cs),
(287,99,o),
(251,152,o),
(251,201,cs),
(251,212,o),
(254,224,o),
(257,234,cs),
(282,296,o),
(306,357,o),
(306,372,cs),
(306,408,o),
(282,408,o),
(249,408,cs),
(248,408,o),
(248,408,o),
(246,408,cs),
(212,408,o),
(180,405,o),
(171,371,cs),
(162,341,o),
(89,69,o),
(-1,69,cs),
(-51,69,o),
(-55,156,o),
(-55,189,cs),
(-55,197,o),
(-55,201,o),
(-55,201,cs),
(-129,143,l),
(-129,143,o),
(-103,0,o),
(-1,0,cs)
);
}
);
width = 701;
}
);
},
{
color = 10;
export = 0;
glyphname = uni05E1.yud;
layers = (
{
layerId = "FF2DC345-5101-49B6-97F3-57A040F7C387";
shapes = (
{
closed = 1;
nodes = (
(69,0,o),
(137,36,o),
(173,92,c),
(197,44,o),
(237,0,o),
(311,0,cs),
(443,0,o),
(603,87,o),
(618,246,cs),
(618,252,o),
(618,258,o),
(618,264,cs),
(618,344,o),
(570,419,o),
(435,419,c),
(390,419,o),
(347,405,o),
(309,383,c),
(309,383,o),
(309,384,o),
(309,384,cs),
(309,419,o),
(285,419,o),
(252,419,cs),
(251,419,o),
(251,419,o),
(249,419,cs),
(216,419,o),
(183,417,o),
(174,383,cs),
(165,353,o),
(89,69,o),
(-1,69,cs),
(-51,69,o),
(-55,156,o),
(-55,189,cs),
(-55,197,o),
(-55,201,o),
(-55,201,cs),
(-129,143,l),
(-129,143,o),
(-103,0,o),
(-1,0,cs)
);
},
{
closed = 1;
nodes = (
(267,69,o),
(240,119,o),
(240,167,cs),
(240,180,o),
(242,192,o),
(246,204,cs),
(272,288,o),
(291,345,o),
(390,345,cs),
(396,345,o),
(404,345,o),
(411,344,cs),
(447,342,o),
(489,321,o),
(489,258,cs),
(489,254,o),
(489,249,o),
(489,246,cs),
(483,162,o),
(411,69,o),
(314,69,cs)
);
}
);
width = 677;
}
);
},
{
color = 10;
export = 0;
glyphname = uni05D0.alt.yud;
layers = (
{
layerId = "FF2DC345-5101-49B6-97F3-57A040F7C387";
shapes = (
{
closed = 1;
nodes = (
(308,-3,o),
(426,953,o),
(551,996,cs),
(561,1001,o),
(569,1014,o),
(569,1028,cs),
(569,1040,o),
(563,1050,o),
(551,1050,cs),
(549,1050,o),
(548,1050,o),
(546,1050,cs),
(308,1008,o),
(158,69,o),
(-1,69,cs),
(-51,69,o),
(-55,150,o),
(-55,185,cs),
(-55,195,o),
(-55,201,o),
(-55,201,cs),
(-129,143,l),
(-129,143,o),
(-103,-3,o),
(5,-3,cs)
);
}
);
width = 354;
}
);
},
{
color = 4;
glyphname = uni05D1_uni05F3;
layers = (
{
layerId = "FF2DC345-5101-49B6-97F3-57A040F7C387";
shapes = (
{
ref = "bet-hb";
},
{
pos = (102,0);
ref = "geresh-hb";
}
);
width = 458;
},
{
associatedMasterId = "FF2DC345-5101-49B6-97F3-57A040F7C387";
layerId = "AA2B70B8-E36A-4B02-8689-9EEC17AF6784";
name = "May 19, 22, 21:37";
shapes = (
{
closed = 1;
nodes = (
(249,0,o),
(390,87,o),
(405,246,cs),
(407,252,o),
(407,258,o),
(407,264,cs),
(407,266,o),
(407,266,o),
(407,266,cs),
(407,374,o),
(299,419,o),
(204,419,cs),
(204,419,ls),
(107,419,o),
(14,354,o),
(14,321,cs),
(14,318,o),
(14,317,o),
(15,314,cs),
(18,306,o),
(27,300,o),
(39,300,cs),
(47,300,o),
(56,303,o),
(68,309,cs),
(93,324,o),
(119,348,o),
(177,348,cs),
(231,348,o),
(278,321,o),
(278,258,cs),
(278,254,o),
(278,249,o),
(278,246,cs),
(270,156,o),
(192,84,o),
(101,77,cs),
(95,77,o),
(89,77,o),
(83,77,cs),
(-3,77,o),
(-63,122,o),
(-85,129,cs),
(-90,131,o),
(-94,131,o),
(-99,131,cs),
(-111,131,o),
(-117,125,o),
(-117,114,cs),
(-117,78,o),
(-48,0,o),
(99,0,cs)
);
},
{
closed = 1;
nodes = (
(189,701,o),
(195,702,o),
(201,704,cs),
(252,714,o),
(354,825,o),
(401,891,cs),
(405,897,o),
(407,903,o),
(407,911,cs),
(407,923,o),
(399,938,o),
(375,948,cs),
(359,957,o),
(344,960,o),
(332,960,cs),
(312,960,o),
(300,951,o),
(294,942,cs),
(210,815,o),
(156,762,o),
(149,737,cs),
(147,734,o),
(147,731,o),
(147,729,cs),
(147,713,o),
(162,701,o),
(185,701,cs)
);
}
);
visible = 1;
width = 458;
}
);
},
{
color = 4;
glyphname = uni05D2_uni05F3_uni05D5;
layers = (
{
layerId = "FF2DC345-5101-49B6-97F3-57A040F7C387";
shapes = (
{
ref = "gimel-hb";
},
{
pos = (395,0);
ref = "geresh-hb";
},
{
alignment = -1;
pos = (66,123);
ref = "vav-hb";
}
);
width = 878;
},
{
associatedMasterId = "FF2DC345-5101-49B6-97F3-57A040F7C387";
layerId = "C488E22C-6460-42F9-92F7-3D17D75F51B2";
name = "May 19, 22, 23:19";
shapes = (
{
closed = 1;
nodes = (
(662,-61,o),
(828,153,o),
(828,335,cs),
(828,356,o),
(812,366,o),
(795,366,cs),
(735,366,o),
(677,351,o),
(677,297,cs),
(677,167,o),
(623,17,o),
(498,17,cs),
(431,17,o),
(332,80,o),
(252,80,cs),
(177,80,o),
(110,27,o),
(9,27,cs),
(-75,27,o),
(-114,72,o),
(-172,72,cs),
(-186,72,o),
(-189,68,o),
(-189,57,cs),
(-189,21,o),
(-73,-57,o),
(77,-57,cs),
(138,-57,o),
(233,-9,o),
(281,-9,cs),
(341,-9,o),
(428,-61,o),
(488,-61,cs)
);
},
{
closed = 1;
nodes = (
(60,123,o),
(99,173,o),
(138,236,cs),
(203,335,o),
(266,468,o),
(266,507,cs),
(266,540,o),
(248,542,o),
(219,542,cs),
(216,542,o),
(213,542,o),
(210,542,cs),
(209,542,o),
(207,542,o),
(206,542,cs),
(173,542,o),
(140,539,o),
(131,504,cs),
(90,357,o),
(5,173,o),
(5,150,cs),
(5,132,o),
(5,123,o),
(36,123,cs)
);
},
{
closed = 1;
nodes = (
(482,701,o),
(488,702,o),
(492,704,cs),
(545,714,o),
(647,825,o),
(693,891,cs),
(696,897,o),
(699,903,o),
(699,911,cs),
(699,923,o),
(690,938,o),
(668,948,cs),
(650,957,o),
(636,960,o),
(624,960,cs),
(603,960,o),
(593,951,o),
(587,942,cs),
(503,815,o),
(449,762,o),
(441,737,cs),
(440,734,o),
(440,731,o),
(440,729,cs),
(440,713,o),
(455,701,o),
(477,701,cs)
);
}
);
visible = 1;
width = 878;
}
);
},
{
color = 4;
glyphname = uni05D2_uni05F3_uni05D9;
layers = (
{
layerId = "FF2DC345-5101-49B6-97F3-57A040F7C387";
shapes = (
{
ref = "gimel-hb";
},
{
pos = (308,0);
ref = "geresh-hb";
},
{
alignment = -1;
ref = "yod-hb";
}
);
width = 878;
},
{
associatedMasterId = "FF2DC345-5101-49B6-97F3-57A040F7C387";
layerId = "8EA7EDC4-FD74-44E6-A0A9-AFE0B2747525";
name = "May 19, 22, 22:09";
shapes = (
{
closed = 1;
nodes = (
(662,-61,o),
(828,153,o),
(828,335,cs),
(828,356,o),
(812,366,o),
(795,366,cs),
(735,366,o),
(677,351,o),
(677,297,cs),
(677,167,o),
(623,17,o),
(498,17,cs),
(431,17,o),
(332,80,o),
(252,80,cs),
(177,80,o),
(110,27,o),
(9,27,cs),
(-75,27,o),
(-114,72,o),
(-172,72,cs),
(-186,72,o),
(-189,68,o),
(-189,57,cs),
(-189,21,o),
(-73,-57,o),
(77,-57,cs),
(138,-57,o),
(233,-9,o),
(281,-9,cs),
(341,-9,o),
(428,-61,o),
(488,-61,cs)
);
},
{
closed = 1;
nodes = (
(89,128,o),
(176,239,o),
(176,306,cs),
(176,341,o),
(153,341,o),
(120,341,cs),
(119,341,o),
(117,341,o),
(116,341,cs),
(83,341,o),
(50,338,o),
(41,302,cs),
(0,158,o),
(0,176,o),
(0,153,cs),
(0,135,o),
(3,128,o),
(33,128,cs)
);
},
{
closed = 1;
nodes = (
(395,701,o),
(401,702,o),
(405,704,cs),
(458,714,o),
(560,825,o),
(606,891,cs),
(609,897,o),
(612,903,o),
(612,911,cs),
(612,923,o),
(605,938,o),
(581,948,cs),
(564,957,o),
(549,960,o),
(537,960,cs),
(518,960,o),
(506,951,o),
(500,942,cs),
(416,815,o),
(362,762,o),
(354,737,cs),
(353,734,o),
(353,731,o),
(353,729,cs),
(353,713,o),
(368,701,o),
(390,701,cs)
);
}
);
visible = 1;
width = 878;
}
);
},
{
color = 5;
glyphname = uni05D3_uni05D9;
layers = (
{
layerId = "FF2DC345-5101-49B6-97F3-57A040F7C387";
shapes = (
{
closed = 1;
nodes = (
(422,0,o),
(542,141,o),
(542,296,cs),
(542,462,o),
(360,512,o),
(221,525,cs),
(69,540,o),
(6,594,o),
(-28,594,cs),
(-40,594,o),
(-48,588,o),
(-48,578,cs),
(-48,548,o),
(6,492,o),
(182,462,cs),
(290,444,o),
(407,428,o),
(407,303,cs),
(407,216,o),
(338,69,o),
(228,69,cs),
(182,69,o),
(152,113,o),
(152,171,cs),
(152,185,o),
(161,204,o),
(161,221,cs),
(161,245,o),
(152,255,o),
(105,255,cs),
(54,255,o),
(35,246,o),
(26,218,cs),
(-15,80,o),
(-33,65,o),
(-33,44,cs),
(-33,26,o),
(-25,17,o),
(0,17,cs),
(24,17,o),
(59,44,o),
(90,80,c),
(116,38,o),
(158,0,o),
(225,0,cs)
);
}
);
width = 591;
},
{
associatedMasterId = "FF2DC345-5101-49B6-97F3-57A040F7C387";
layerId = "EA230ECB-672C-4BD7-BB6F-60ED0F01D0F8";
name = "Aug 29, 22, 19:15";
shapes = (
{
closed = 1;
nodes = (
(426,0,o),
(542,150,o),
(542,293,cs),
(542,294,o),
(542,294,o),
(542,296,cs),
(540,471,o),
(332,516,o),
(219,524,cs),
(99,533,o),
(5,591,o),
(-25,594,cs),
(-25,594,o),
(-27,594,o),
(-28,594,cs),
(-40,594,o),
(-48,588,o),
(-48,578,cs),
(-48,548,o),
(6,492,o),
(182,462,cs),
(290,444,o),
(407,428,o),
(407,303,cs),
(407,297,o),
(407,288,o),
(405,281,cs),
(396,189,o),
(329,71,o),
(228,69,cs),
(228,69,o),
(228,69,o),
(228,69,cs),
(179,69,o),
(152,125,o),
(152,171,cs),
(152,173,o),
(152,174,o),
(153,176,cs),
(153,179,o),
(153,182,o),
(153,183,cs),
(158,197,o),
(161,210,o),
(161,221,cs),
(161,255,o),
(138,255,o),
(105,255,cs),
(104,255,o),
(102,255,o),
(101,255,cs),
(68,255,o),
(35,252,o),
(26,218,cs),
(-16,72,o),
(-33,65,o),
(-33,44,cs),
(-33,26,o),
(-33,17,o),
(0,17,c),
(24,17,o),
(59,44,o),
(90,80,c),
(116,38,o),
(158,0,o),
(225,0,cs)
);
}
);
visible = 1;
width = 591;
}
);
},
{
color = 5;
glyphname = uni05D3_uni05D9_uni05D9;
layers = (
{
layerId = "FF2DC345-5101-49B6-97F3-57A040F7C387";
shapes = (
{
closed = 1;
nodes = (
(579,0,o),
(668,174,o),
(668,296,cs),
(668,482,o),
(449,515,o),
(305,531,cs),
(185,545,o),
(53,615,o),
(26,615,cs),
(14,615,o),
(9,609,o),
(9,602,cs),
(9,572,o),
(78,501,o),
(267,470,cs),
(377,452,o),
(534,444,o),
(534,303,cs),
(534,240,o),
(510,80,o),
(408,63,cs),
(390,60,o),
(377,42,o),
(377,27,cs),
(377,12,o),
(387,0,o),
(417,0,cs)
);
},
{
closed = 1;
nodes = (
(89,114,o),
(176,225,o),
(176,293,cs),
(176,321,o),
(164,327,o),
(120,327,cs),
(72,327,o),
(48,320,o),
(41,290,cs),
(9,176,o),
(0,162,o),
(0,140,cs),
(0,122,o),
(5,114,o),
(33,114,cs)
);
},
{
closed = 1;
nodes = (
(314,114,o),
(401,225,o),
(401,293,cs),
(401,320,o),
(390,327,o),
(345,327,cs),
(296,327,o),
(273,317,o),
(266,290,cs),
(236,176,o),
(224,159,o),
(224,140,cs),
(224,122,o),
(230,114,o),
(260,114,cs)
);
}
);
width = 719;
},
{
associatedMasterId = "FF2DC345-5101-49B6-97F3-57A040F7C387";
layerId = "0C60703A-1078-4AF2-8991-80D587AA694D";
name = "Aug 29, 22, 17:38";
shapes = (
{
closed = 1;
nodes = (
(579,0,o),
(668,174,o),
(668,296,cs),
(668,482,o),
(449,515,o),
(305,531,cs),
(185,545,o),
(57,612,o),
(27,615,cs),
(26,615,o),
(24,615,o),
(24,615,cs),
(15,615,o),
(9,609,o),
(9,602,cs),
(9,572,o),
(78,501,o),
(267,470,cs),
(377,452,o),
(534,444,o),
(534,303,cs),
(534,296,o),
(534,288,o),
(533,281,cs),
(521,173,o),
(494,78,o),
(408,63,cs),
(390,60,o),
(377,42,o),
(377,27,cs),
(377,12,o),
(387,0,o),
(417,0,cs)
);
},
{
closed = 1;
nodes = (
(89,114,o),
(176,225,o),
(176,293,cs),
(176,327,o),
(153,327,o),
(120,327,cs),
(119,327,o),
(117,327,o),
(116,327,cs),
(83,327,o),
(50,324,o),
(41,290,cs),
(0,144,o),
(0,162,o),
(0,140,cs),
(0,122,o),
(0,114,o),
(33,114,cs)
);
},
{
closed = 1;
nodes = (
(314,114,o),
(401,225,o),
(401,293,cs),
(401,327,o),
(380,327,o),
(345,327,cs),
(344,327,o),
(342,327,o),
(341,327,cs),
(308,327,o),
(276,324,o),
(266,290,cs),
(225,144,o),
(225,162,o),
(225,140,cs),
(225,122,o),
(225,114,o),
(260,114,cs)
);
}
);
visible = 1;
width = 719;
}
);
},
{
color = 5;
glyphname = uni05D3_uni05D9_uni05D9_uni05D5;
layers = (
{
layerId = "FF2DC345-5101-49B6-97F3-57A040F7C387";
shapes = (
{
closed = 1;
nodes = (
(30,0,o),
(48,5,o),
(54,30,cs),
(96,179,o),
(159,353,o),
(221,509,c),
(324,488,o),
(426,477,o),
(473,470,cs),
(669,438,o),
(740,408,o),
(740,303,cs),
(740,228,o),
(717,83,o),
(612,63,cs),
(596,60,o),
(582,42,o),
(582,27,cs),
(582,12,o),
(593,0,o),
(623,0,cs),
(785,0,o),
(873,174,o),
(873,296,cs),
(873,482,o),
(654,515,o),
(509,531,cs),
(443,539,o),
(342,554,o),
(248,576,c),
(329,780,o),
(405,945,o),
(405,974,cs),
(405,983,o),
(401,993,o),
(378,993,cs),
(347,993,o),
(296,915,o),
(237,803,c),
(212,807,o),
(179,809,o),
(146,809,cs),
(38,809,o),
(-81,774,o),
(-81,675,cs),
(-81,612,o),
(5,563,o),
(111,536,c),
(18,321,o),
(-67,90,o),
(-67,33,cs),
(-67,5,o),
(-51,0,o),
(8,0,cs)
);
},
{
closed = 1;
nodes = (
(297,114,o),
(381,225,o),
(381,293,cs),
(381,323,o),
(368,327,o),
(321,327,cs),
(278,327,o),
(254,320,o),
(246,290,cs),
(215,173,o),
(204,152,o),
(204,137,cs),
(204,122,o),
(212,114,o),
(234,114,cs)
);
},
{
closed = 1;
nodes = (
(518,114,o),
(606,225,o),
(606,293,cs),
(606,321,o),
(593,327,o),
(551,327,cs),
(507,327,o),
(480,321,o),
(471,290,cs),
(441,179,o),
(431,155,o),
(431,140,cs),
(431,122,o),
(435,114,o),
(462,114,cs)
);
},
{
closed = 1;
nodes = (
(65,630,o),
(17,660,o),
(17,693,cs),
(17,744,o),
(83,762,o),
(138,762,cs),
(164,762,o),
(191,759,o),
(213,756,c),
(189,710,o),
(167,659,o),
(143,606,c)
);
}
);
width = 923;
},
{
associatedMasterId = "FF2DC345-5101-49B6-97F3-57A040F7C387";
layerId = "0BCA528E-6006-433C-A0EB-28579AFB6642";
name = "Aug 28, 22, 20:06";
shapes = (
{
closed = 1;
nodes = (
(30,-1,o),
(48,5,o),
(54,30,cs),
(96,179,o),
(159,353,o),
(221,509,c),
(324,488,o),
(426,477,o),
(473,470,cs),
(581,452,o),
(740,444,o),
(740,303,cs),
(740,296,o),
(738,288,o),
(738,281,cs),
(726,173,o),
(699,78,o),
(612,63,cs),
(596,60,o),
(582,42,o),
(582,27,cs),
(582,12,o),
(593,0,o),
(623,0,cs),
(785,0,o),
(873,174,o),
(873,296,cs),
(873,482,o),
(654,515,o),
(509,531,cs),
(443,539,o),
(342,554,o),
(248,576,c),
(329,780,o),
(401,944,o),
(404,960,cs),
(405,965,o),
(405,969,o),
(405,974,cs),
(405,983,o),
(401,990,o),
(378,993,cs),
(377,993,o),
(377,993,o),
(375,993,cs),
(347,993,o),
(296,915,o),
(237,803,c),
(212,807,o),
(179,809,o),
(146,809,cs),
(51,809,o),
(-58,786,o),
(-78,692,cs),
(-79,686,o),
(-81,680,o),
(-81,675,cs),
(-81,609,o),
(6,566,o),
(111,536,c),
(18,321,o),
(-61,99,o),
(-67,41,cs),
(-67,38,o),
(-67,35,o),
(-67,33,cs),
(-67,5,o),
(-51,3,o),
(-19,0,cs),
(-18,0,o),
(-18,0,o),
(-16,0,cs),
(-7,-1,o),
(0,-1,o),
(8,-1,cs)
);
},
{
closed = 1;
nodes = (
(294,114,o),
(381,225,o),
(381,293,cs),
(381,327,o),
(359,327,o),
(326,327,cs),
(324,327,o),
(323,327,o),
(321,327,cs),
(287,327,o),
(255,324,o),
(246,290,cs),
(206,144,o),
(206,162,o),
(206,140,cs),
(206,122,o),
(206,114,o),
(239,114,cs)
);
},
{
closed = 1;
nodes = (
(519,114,o),
(606,225,o),
(606,293,cs),
(606,327,o),
(585,327,o),
(551,327,cs),
(549,327,o),
(548,327,o),
(546,327,cs),
(513,327,o),
(482,324,o),
(471,290,cs),
(431,144,o),
(431,162,o),
(431,140,cs),
(431,122,o),
(431,114,o),
(464,114,cs)
);
},
{
closed = 1;
nodes = (
(69,630,o),
(17,660,o),
(17,693,cs),
(17,696,o),
(18,701,o),
(18,704,cs),
(32,750,o),
(84,762,o),
(138,762,cs),
(164,762,o),
(191,759,o),
(213,756,c),
(189,710,o),
(167,659,o),
(143,606,c)
);
}
);
visible = 1;
width = 923;
}
);
},
{
color = 5;
glyphname = uni05D3_uni05F3;
layers = (
{
layerId = "FF2DC345-5101-49B6-97F3-57A040F7C387";
shapes = (
{
closed = 1;
nodes = (
(204,0,o),
(293,170,o),
(293,296,cs),
(293,471,o),
(83,515,o),
(-30,524,cs),
(-165,534,o),
(-240,594,o),
(-277,594,cs),
(-289,594,o),
(-297,588,o),
(-297,578,cs),
(-297,548,o),
(-241,491,o),
(-67,462,cs),
(41,444,o),
(158,428,o),
(158,303,cs),
(158,215,o),
(134,87,o),
(32,63,cs),
(12,59,o),
(0,42,o),
(0,27,cs),
(0,12,o),
(12,0,o),
(42,0,cs)
);
},
{
closed = 1;
nodes = (
(246,701,o),
(407,869,o),
(407,911,cs),
(407,942,o),
(357,960,o),
(332,960,cs),
(312,960,o),
(302,953,o),
(294,942,cs),
(209,815,o),
(147,752,o),
(147,729,cs),
(147,713,o),
(162,701,o),
(185,701,cs)
);
}
);
width = 341;
},
{
associatedMasterId = "FF2DC345-5101-49B6-97F3-57A040F7C387";
layerId = "A55D0E39-D535-494B-BBB4-A368C2D25302";
name = "Aug 29, 22, 18:58";
shapes = (
{
closed = 1;
nodes = (
(204,0,o),
(293,174,o),
(293,296,cs),
(293,471,o),
(83,516,o),
(-30,524,cs),
(-150,533,o),
(-243,591,o),
(-274,594,cs),
(-274,594,o),
(-276,594,o),
(-277,594,cs),
(-289,594,o),
(-297,588,o),
(-297,578,cs),
(-297,548,o),
(-241,492,o),
(-67,462,cs),
(41,444,o),
(158,428,o),
(158,303,cs),
(158,297,o),
(158,288,o),
(158,281,cs),
(146,173,o),
(119,78,o),
(32,63,cs),
(15,60,o),
(0,42,o),
(0,27,cs),
(0,12,o),
(12,0,o),
(42,0,cs)
);
},
{
closed = 1;
nodes = (
(189,701,o),
(195,702,o),
(201,704,cs),
(252,714,o),
(354,825,o),
(401,891,cs),
(405,897,o),
(407,903,o),
(407,911,cs),
(407,923,o),
(399,938,o),
(375,948,cs),
(359,957,o),
(344,960,o),
(332,960,cs),
(312,960,o),
(300,951,o),
(294,942,cs),
(210,815,o),
(156,762,o),
(149,737,cs),
(147,734,o),
(147,731,o),
(147,729,cs),
(147,713,o),
(162,701,o),
(185,701,cs)
);
}
);
visible = 1;
width = 341;
}
);
},
{
color = 5;
glyphname = uni05D3_uni05F3_uni05D9;
layers = (
{
layerId = "FF2DC345-5101-49B6-97F3-57A040F7C387";
shapes = (
{
closed = 1;
nodes = (
(414,0,o),
(542,137,o),
(542,296,cs),
(540,471,o),
(332,516,o),
(219,524,cs),
(99,533,o),
(3,594,o),
(-28,594,cs),
(-40,594,o),
(-48,588,o),
(-48,578,cs),
(-48,548,o),
(6,492,o),
(182,462,cs),
(290,444,o),
(407,428,o),
(407,303,cs),
(407,215,o),
(339,69,o),
(228,69,cs),
(191,69,o),
(152,107,o),
(152,171,cs),
(152,189,o),
(161,201,o),
(161,221,cs),
(161,246,o),
(153,255,o),
(105,255,cs),
(45,255,o),
(33,242,o),
(26,218,cs),
(-13,86,o),
(-33,65,o),
(-33,44,cs),
(-33,23,o),
(-27,17,o),
(0,17,cs),
(24,17,o),
(59,44,o),
(90,80,c),
(116,38,o),
(158,0,o),
(225,0,cs)
);
},
{
closed = 1;
nodes = (
(495,701,o),
(656,876,o),
(656,911,cs),
(656,939,o),
(608,960,o),
(581,960,cs),
(560,960,o),
(549,951,o),
(543,942,cs),
(453,804,o),
(396,753,o),
(396,729,cs),
(396,713,o),
(411,701,o),
(434,701,cs)
);
}
);
width = 588;
},
{
associatedMasterId = "FF2DC345-5101-49B6-97F3-57A040F7C387";
layerId = "8E435679-C3D3-41E6-AD6E-65D10DC30597";
name = "Aug 28, 22, 21:24";
shapes = (
{
closed = 1;
nodes = (
(426,0,o),
(542,150,o),
(542,293,cs),
(542,294,o),
(542,294,o),
(542,296,cs),
(540,471,o),
(332,516,o),
(219,524,cs),
(99,533,o),
(5,591,o),
(-25,594,cs),
(-25,594,o),
(-27,594,o),
(-28,594,cs),
(-40,594,o),
(-48,588,o),
(-48,578,cs),
(-48,548,o),
(6,492,o),
(182,462,cs),
(290,444,o),
(407,428,o),
(407,303,cs),
(407,297,o),
(407,288,o),
(405,281,cs),
(396,189,o),
(329,71,o),
(228,69,cs),
(228,69,o),
(228,69,o),
(228,69,cs),
(179,69,o),
(152,125,o),
(152,171,cs),
(152,173,o),
(152,174,o),
(153,176,cs),
(153,179,o),
(153,182,o),
(153,183,cs),
(158,197,o),
(161,210,o),
(161,221,cs),
(161,255,o),
(138,255,o),
(105,255,cs),
(104,255,o),
(102,255,o),
(101,255,cs),
(68,255,o),
(35,252,o),
(26,218,cs),
(-16,72,o),
(-33,65,o),
(-33,44,cs),
(-33,26,o),
(-33,17,o),
(0,17,c),
(24,17,o),
(59,44,o),
(90,80,c),
(116,38,o),
(158,0,o),
(225,0,cs)
);
},
{
closed = 1;
nodes = (
(438,701,o),
(444,702,o),
(449,704,cs),
(501,714,o),
(603,825,o),
(650,891,cs),
(653,897,o),
(656,903,o),
(656,911,cs),
(656,923,o),
(647,938,o),
(624,948,cs),
(606,957,o),
(593,960,o),
(581,960,cs),
(560,960,o),
(549,951,o),
(543,942,cs),
(459,815,o),
(405,762,o),
(398,737,cs),
(396,734,o),
(396,731,o),
(396,729,cs),
(396,713,o),
(411,701,o),
(434,701,cs)
);
}
);
visible = 1;
width = 588;
}
);
},
